<?xml version="1.0" encoding="UTF-8"?><svg id="a" xmlns="http://www.w3.org/2000/svg" viewBox="0 0 500 500"><path d="M239.23,420.77c-45.52-9.32-72.52-95.8-94.84-133.41-12.44-23.96-25.47-47.61-38.26-71.39-6.63-13.86-18.27-26.72-17.55-42.88-1.16-1.12-.53-2.84.54-3.78.23-2.2,1.8-5.77,4.38-3.6,31.1-22.37,65.38-39.76,98.16-59.45,22.92-11.42,56.59-44.73,77.05-12.9,14.3,18.88,21.6,41.77,31.96,62.83,21.76,43.89,45.4,86.9,70.42,128.98,27.6,49.93,44.7,65.5-18.26,92.58-24.78,11.7-49.8,22.91-75.14,33.34-10.96,4.51-22.43,9.89-34.45,9.89-1.33,0-2.66-.07-4-.21ZM229.9,89.15c-13.61,6.99-26.4,15.5-39.7,23.05-32.47,19.54-66.72,36.51-97.05,59.37-1.77,12.22,6.16,22.54,11.57,32.76,16.2,29.8,32.57,59.53,48.01,89.73,19.93,33.99,47.29,118.81,90.61,122.63,19.82-1.5,37.37-12.43,55.66-19.33,27.74-12.88,56.99-23.57,82.59-40.47,17.93-10.45,7.15-31.06-.42-44.84-8.74-16.55-18.53-32.48-27.93-48.64-19.54-33.93-38.05-68.34-55.56-103.34-10.47-20.95-17.7-43.79-31.54-62.87-5.66-8.87-12.41-13.02-20.15-13.02-4.96,0-10.33,1.71-16.09,4.97Z"/><path d="M90.59,172.15c-3.7-.67-1.32-4.78.34-6.41.19-.21.38-.42.58-.63.58-.17,1.24-.02,1.99.61,4.79-3.44,9.65-6.77,14.58-10.01,1.64.5,2.41,3.12.42,4.08-4.68,2.15-9.71,4.34-13.41,7.91-1.84,1.18-2.02,4.45-4.46,4.45-.01,0-.03,0-.04,0Z"/><path d="M117.62,206.82c-3.38-11.66-5.22-23.6-7.12-35.56-.33-2.26,1.51-4.7,3.94-4.04,3.44,1.1,5.58,4.41,7.99,6.91,5.35,6.15,10.22,12.7,15.82,18.62,1.89,2.09-1.4,5.04-3.27,2.91-7.03-7.34-12.74-15.85-19.94-23.03,1.79,9.86,3.38,20.05,5.8,29.71.25,1.31.81,2.5,1.12,3.79.09,1.45-1.06,2.26-2.21,2.26-.9,0-1.81-.5-2.12-1.57ZM121.46,204.88s-.05-.07-.08-.1c-.06-.06-.12-.12-.18-.18-.1-.07-.18-.16-.3-.19.21.13.4.28.56.47Z"/><path d="M115.53,191.7c-1.06-3.2,7.15-6.1,9.29-8.14,2.33-1.6,4.82,2.06,2.45,3.62-2.63,1.8-5.41,3.39-8.02,5.23-.4.51-1.01.75-1.62.75-.91,0-1.83-.53-2.11-1.47ZM119.65,191.74c.08-.19.11-.4.14-.61h0v-.27s0,0,0,0l-.02-.09c.03.33-.02.66-.13.96Z"/><path d="M369.4,354.16c-6.24-3.58-11.65-8.63-17.44-12.91-2.92-2.29-5.81-4.63-8.56-7.13-1.63-1.02-.82-3.93,1.14-3.92,1.26-.12,2.08.98,2.94,1.72,1.43,1.31,2.95,2.52,4.47,3.74,5.74,4.62,11.59,9.11,17.48,13.52-3.59-9.28-8.35-18.11-11.98-27.36-.83-3.23,3.77-4.01,4.41-.76,2.84,6.82,5.97,13.51,9.02,20.23,1.84,3.63,6.18,12.94-.55,12.94-.29,0-.59-.02-.92-.05ZM344.54,334.56h.16c-.27-.01-.52-.07-.71-.12.18.06.36.1.55.12ZM343.75,334.34s0,0,0,0h0s0,0,0,0Z"/><path d="M352.15,340.03c-1.53-.92-1.18-3.48.56-3.92,2.76-2.04,5.03-4.11,7.77-5.94,2.33-1.61,4.81,2.05,2.45,3.62-2.48,1.12-6.86,6.55-9.73,6.55-.38,0-.73-.09-1.05-.3Z"/><path d="M387.69,352.69c-.67-1.04-.32-2.39.69-3.05,1.47-1.2,2.64-2.74,3.6-4.37,8.25-16.88-8.05-37.74-16.08-52.07-12.89-20.36-23.57-41.81-34.89-63.02-9.3-18.66-20.8-36.1-29.8-54.91-13.16-27.35-24.12-56.16-42.38-80.69-3.48-4.71-7.6-10.01-13.85-10.65-3.64-.62-7.39-.45-10.98-.26-1.68-.55-2.1-3.04-.53-3.99,5.63-1.33,13.1-.65,18.35,1.9,8.6,5.3,13.5,14.82,19.08,22.94,13.1,21.11,22.61,44.07,33.07,66.51,10.1,21.08,22.84,40.7,33.27,61.61,11.2,21.38,22.28,42.61,35.18,62.9,8.68,15.26,22.32,34.32,13.19,52.12-1.2,1.86-3.69,5.95-6.11,5.95-.63,0-1.25-.27-1.84-.93Z"/><path d="M248.21,325.56c-2.7-2.83-1.77-7.29-2.57-10.86-.8-5.85-1.96-11.66-3.51-17.36-1.24-4.58-2.93-9.05-5.33-13.16-.4-.82-.92-1.59-1.47-2.34-2.51,7.55-10.04,17.55-23.54,15.51-19.76-2.88-25.84-25.44-24.47-42.66.59-11.16,3.93-21.95,5.42-32.99,1.13-10.1,2.51-20.99-1.08-30.67-.6-2.36-4.42-5.36-1.34-7.29.39-.15.75-.21,1.08-.19.22-.5.69-.89,1.44-1.13,1.35-.28,2.27.72,2.75,1.83,6.93,11.73,18.47,20.29,30.65,25.72,11.6,5.13,25.23,5.13,34.87,14.08,17.98,14.96,17.59,50.83-10.52,51.12,1.21,2.35,2.21,5.54,3.29,6.7,3.98,6.67,8.59,12.85,14.6,17.57,6.96,5.22,20.19,7.7,5.7,15.33-5.13,2.16-16.27,11.89-22.84,11.89-1.22,0-2.28-.33-3.11-1.11Z"/><path d="M134.98,195.66c1.88,2.13,5.16-.81,3.27-2.91-5.6-5.92-10.47-12.48-15.82-18.62-2.41-2.5-4.55-5.81-7.99-6.91-.28-.07-.54-.11-.8-.11-2.02,0-3.44,2.14-3.14,4.15,1.9,11.95,3.74,23.9,7.12,35.56.71,2.45,4.5,1.9,4.34-.69-.3-1.29-.86-2.48-1.12-3.79-.78-3.11-1.47-6.27-2.11-9.46.2-.12.38-.27.53-.47,2.61-1.84,5.38-3.43,8.02-5.23.07-.05.13-.09.2-.15,2.42,2.95,4.87,5.87,7.51,8.63ZM287.37,137.4h-.02s-.47-.22-.47-.22l-.5-.2-.53-.21-.56-.2-.6-.22-.63-.2-.66-.2-.69-.2-.73-.19-.77-.18-.81-.17-.84-.15-.86-.13-.89-.1-.92-.07-.93-.03h-.95l-.93.03-.89.08-.88.11-.86.14-.84.17-.81.2-.77.22-.74.23-.72.25-.71.27-.7.3-.7.32-.69.34-.67.36-.67.38-.67.41-.65.42-.64.44-.61.44-.56.44-.52.44-.45.43-.39.42-.32.41-.25.39-.19.39-.14.38-.09.4-.06.41-.03.43v.47l.02.51.04.56.05.6.06.67.07.73.07.78.08.84.09.91.09.99.1,1.06.11,1.14.13,1.23.14,1.33.16,1.41.18,1.5.19,1.54.22,1.57.23,1.61.26,1.66.28,1.71.31,1.75.34,1.74.37,1.7.4,1.7.44,1.7.48,1.69.53,1.7.56,1.65.6,1.59.64,1.56.68,1.55.72,1.57.77,1.59.78,1.56.79,1.5.8,1.5.8,1.49.79,1.49.76,1.48.71,1.44.65,1.39.59,1.36.52,1.32.45,1.29.38,1.26.29,1.21.2,1.14.12,1.1.03,1.06-.04,1.04-.11,1.04-.18,1-.25.96-.31.95-.38.94-.43.95-.49.98-.56.99-.61.99-.69,1.01-.75,1.02-.82,1.04-.88,1.08-.91,1.06-.93,1.04-.95,1.04-.96,1.01-.16.17c-1.32-1.65-2.8-3.18-4.42-4.53-9.64-8.95-23.26-8.95-34.87-14.08-12.18-5.43-23.72-14-30.65-25.72-.48-1.12-1.4-2.11-2.75-1.83-.76.24-1.22.63-1.44,1.13-.33-.02-.69.04-1.08.19-3.08,1.94.75,4.93,1.34,7.29,3.59,9.67,2.22,20.57,1.08,30.67-1.49,11.04-4.83,21.83-5.42,32.99-1.37,17.21,4.72,39.78,24.47,42.66,3.11.47,5.9.3,8.39-.33l.04.16.32,1.54.27,1.57.2,1.55.1,1.48.02,1.43-.07,1.36-.17,1.28-.25,1.21-.32,1.09-.38.97-.43.89-.48.82-.54.77-.6.72-.65.66-.7.59-.76.53-.81.47-.87.4-.93.34-.98.25-1.01.15-1.04.06-1.08-.02-1.1-.09-1.14-.15-1.16-.2-1.18-.23-1.22-.27-1.26-.3-1.31-.32-1.33-.35-1.31-.36-1.26-.36-1.2-.36-1.16-.37-1.11-.38-1.06-.38-.99-.39-.91-.39-.87-.4-.85-.43-.85-.46-.87-.48-.88-.51-.89-.54-.94-.57-1-.61-1.07-.65-1.15-.69-1.2-.71-1.25-.71-1.32-.71-1.39-.7-1.46-.68-1.52-.64-1.54-.58-1.51-.48-1.5-.39-1.49-.31-1.48-.23-1.48-.17-1.44-.1-1.38-.04h-1.36s-1.35.05-1.35.05l-1.33.07-.52.04c-1.26-2.4-2.5-4.64-3.7-6.7-15.45-30.2-31.82-59.93-48.01-89.73-5.41-10.22-13.34-20.54-11.57-32.76,30.33-22.85,64.58-39.82,97.05-59.37,13.31-7.55,26.09-16.06,39.7-23.05,14.74-8.36,26.95-6.5,36.25,8.05,8.95,12.34,15.14,26.25,21.22,40.2Z" fill="#f5efdf"/><path d="M300.67,156.19c-7.11-14.45-12.77-29.76-20.25-44.05,11.85,20.16,20.68,42.08,30.81,63.13,9,18.81,20.5,36.25,29.8,54.91,7.63,14.3,14.96,28.71,22.89,42.82-22.38-38.19-43.57-77.15-63.24-116.81Z" fill="#cabbae"/><path d="M369.4,354.16c8.03.85,3.39-9.1,1.47-12.89-3.05-6.72-6.19-13.41-9.02-20.23-.64-3.24-5.24-2.47-4.41.76,1.08,2.74,2.25,5.44,3.46,8.12-.15.06-.29.14-.43.24-2.74,1.83-5.01,3.9-7.77,5.94-.04.01-.09.02-.13.04-.21-.17-.42-.33-.62-.5-1.52-1.22-3.03-2.43-4.47-3.74-.86-.74-1.68-1.84-2.94-1.72h-.01c-1.96,0-2.76,2.9-1.13,3.92,2.74,2.51,5.63,4.84,8.56,7.13,5.79,4.28,11.21,9.33,17.44,12.91ZM381.18,312.05c5.83,10.62,13.56,25.29,8.61,36.24-.44.48-.9.93-1.41,1.34-.82.54-1.21,1.54-.97,2.45-1.46,1.76-3.37,3.38-5.82,4.81-25.6,16.9-54.85,27.59-82.59,40.47-18.29,6.9-35.84,17.83-55.66,19.33-40.7-3.59-67.32-78.68-86.91-115.94l.52-.04,1.33-.07,1.35-.04h1.36s1.38.03,1.38.03l1.44.1,1.48.17,1.48.23,1.49.31,1.5.39,1.51.48,1.54.58,1.52.64,1.46.68,1.39.7,1.32.71,1.25.71,1.2.71,1.15.69,1.07.65,1,.61.94.57.89.54.88.51.87.48.85.46.85.43.87.4.91.39.99.39,1.06.38,1.11.38,1.16.37,1.2.36,1.26.36,1.31.36,1.33.35,1.31.32,1.26.3,1.22.27,1.18.23,1.16.2,1.14.15,1.1.09,1.08.02,1.04-.06,1.01-.15.98-.25.93-.34.87-.4.81-.47.76-.53.7-.59.65-.66.6-.72.54-.77.48-.82.43-.89.38-.97.32-1.09.25-1.21.17-1.28.07-1.36-.02-1.43-.1-1.48-.2-1.55-.27-1.57-.32-1.54-.04-.16c8.31-2.11,13.22-9.37,15.15-15.18.55.75,1.06,1.52,1.47,2.34,2.39,4.11,4.09,8.58,5.33,13.16,1.55,5.7,2.71,11.51,3.51,17.36.8,3.56-.13,8.02,2.57,10.86,5.36,4.97,19.88-8.23,25.96-10.78,14.49-7.64,1.26-10.11-5.7-15.33-6.01-4.73-10.61-10.9-14.6-17.57-1.08-1.16-2.07-4.34-3.29-6.7,25.57-.27,28.21-29.97,14.94-46.6l.16-.17.96-1.01.95-1.04.93-1.04.91-1.06.88-1.08.82-1.04.75-1.02.69-1.01.61-.99.56-.99.49-.98.43-.95.38-.94.31-.95.25-.96.18-1,.11-1.04.04-1.04-.03-1.06-.12-1.1-.2-1.14-.29-1.21-.38-1.26-.45-1.29-.52-1.32-.59-1.36-.65-1.39-.71-1.44-.76-1.48-.79-1.49-.8-1.49-.8-1.5-.79-1.5-.78-1.56-.77-1.59-.72-1.57-.68-1.55-.64-1.56-.6-1.59-.56-1.65-.53-1.7-.48-1.69-.44-1.7-.4-1.7-.37-1.7-.34-1.74-.31-1.75-.28-1.71-.26-1.66-.23-1.61-.22-1.57-.19-1.54-.18-1.5-.16-1.41-.14-1.33-.13-1.23-.11-1.14-.1-1.06-.09-.99-.09-.91-.08-.84-.07-.78-.07-.73-.06-.67-.05-.6-.04-.56-.02-.51v-.47l.03-.43.06-.41.09-.4.14-.38.19-.39.25-.39.32-.41.39-.42.45-.43.52-.44.56-.44.61-.44.64-.44.65-.42.67-.41.67-.38.67-.36.69-.34.7-.32.7-.3.71-.27.72-.25.74-.23.77-.22.81-.2.84-.17.86-.14.88-.11.89-.08.93-.03h.95l.93.03.92.07.89.1.86.13.84.15.81.17.77.18.73.19.69.2.66.2.63.2.6.22.56.2.53.21.5.2.47.2h.02c3.33,7.64,6.62,15.27,10.32,22.68,17.51,35,36.02,69.42,55.56,103.34,9.41,16.16,19.19,32.09,27.93,48.64Z" fill="#e2dcce"/><path d="M62.07,173.13c-.75-4.4,4.77-31.19,11.58-25.29.59,1,.26,2.41-.77,2.99-2.97,4.07-4.53,8.97-5.57,13.85-1.45,2.93.84,10.12-3.05,10.64-1.2,0-2.18-.99-2.19-2.19Z"/><path d="M76.24,168.32c-4.02-1.51-.71-7.88.22-10.76,1.09-2.3,4.8-.9,4.05,1.56-2.07,2.54-.33,9.27-4.27,9.2Z"/><path d="M416.44,346.25c-3.6-1.6.21-6.15.19-8.95.82-4.06.99-8.35.74-12.44.05-1.97-1-3.92-.57-5.84.84-2.13,4.24-1.51,4.23.8,1.27,4.55,1.54,26.51-4.59,26.44Z"/><path d="M432.04,337.64c-3.41-2.03,1.7-8.47,1.1-11.99.29-2.29-.37-4.91.81-6.99,1.2-1.67,4.1-.81,4.05,1.29-.88,3.52-.35,18.89-5.96,17.69Z"/><path d="M362.72,333.89c2.33,5.05,4.7,10.1,6.71,15.28-4.43-3.32-8.85-6.68-13.21-10.12,2.3-1.61,4.79-4.26,6.5-5.16Z" fill="#e2dcce"/></svg>