<?xml version="1.0" encoding="UTF-8"?><svg id="a" xmlns="http://www.w3.org/2000/svg" viewBox="0 0 644.38 358.01"><path d="M85.21,314.61c.36,1.92-1.13,3.98.52,5.72-1.35,4.39-1.95,8.93-4.43,13.06-2.37,3.96-4.49,8.06-7.87,11.19-3.72,3.44-7.65,6.71-12.66,8.13-3.21.91-6.39,1.86-9.78,1.9-2.86.03-5.72-.3-8.59.57-1.21.37-2.73-.58-4.11-.56-6.73.09-12.69-2.4-18.6-5.31-4.9-2.41-8.51-6.1-11.42-10.63-2.49-3.88-4.47-8-5.77-12.47-.8-2.78-.55-3.28,2.07-4.22,6.03-2.17,12.03-4.43,18.04-6.64,2.07-.76,4.14-1.57,6.25-2.18,1.41-.4,2.58-.5,3.34,1.55.81,2.18,2.29,4.19,3.78,6.01,1.83,2.23,4.17,1.8,5.59-.76,2.03-3.66.6-8.25-2.92-10.49-3.49-2.22-7.48-2.86-11.27-4.07-6.77-2.17-13.53-4.26-18.37-10.03-3.42-4.07-6.84-8.22-7.89-13.64-.87-4.44-1.8-8.89-.44-13.53.71-2.41.35-5.13.8-7.65,1.65-9.14,5.7-16.69,13.11-22.58,4.67-3.71,10.01-5.01,15.3-6.8.2-.07.45,0,.68-.01,5.35-.23,10.7-.77,16.04-.62,7.33.21,14.44,2.18,20.47,6.38,4.69,3.27,8.53,7.71,11.29,13.04,2.18,4.21,3.43,8.73,5.11,13.1.46,1.19.07,1.19-.82,1.48-4,1.3-7.94,2.82-11.96,4.03-4.36,1.31-8.83,2.25-13.18,3.58-4.95,1.51-4.84,1.6-6.46-3.34-.66-2.03-1.05-4.25-2.94-5.7-1.45-1.11-2.34-1.12-3.12.54-1.18,2.54-.93,5.19-.29,7.84.18.75.18,1.55.43,2.5,1.82,4.07,5,5.98,8.8,7.11,5.04,1.51,10.09,2.88,14.78,5.49,6.95,3.89,12.41,9.07,15.34,16.7.54,1.4.9,2.92,1,4.41.17,2.3-.27,4.68.14,6.91Z"/><path d="M176.75,274.87c1.35,1.21-.63,2.57.51,3.62-1.52,7.26-.49,14.6-.57,21.9-.04,2.84.12,5.69-.06,8.56-.2,3.11.18,6.26-.09,9.35-.6,6.96-1.31,13.93-4.24,20.38-2.45,5.4-6.15,9.75-11.3,12.61-4.22,2.35-8.64,3.78-13.58,4.34-9.11,1.03-18.2.52-27.27.38-4.32-.07-8.86-.85-12.67-3.89-1.62-1.3-3.85-1.81-5.35-3.51-1.64-1.87-3.85-3.36-5.03-5.47-2.24-3.98-4.11-8.19-4.91-12.83-.66-3.84-.99-7.69-1.39-11.56-1.2-11.84-.4-23.7-.56-35.54-.17-12.13-.09-24.26,0-36.4.03-3.83.45-7.67.63-11.5.04-.85.21-1.12,1.11-1.2,11.12-.99,22.25-.62,33.38-.64,1.99,0,2.44.73,2.27,2.92-.09,1.15-.02,2.31-.02,3.47,0,10.17-.02,20.34.02,30.5,0,1.44-.2,2.86-.09,4.3.11,1.49.06,2.99.07,4.48,0,1.62.23,3.28-.05,4.84-.54,3.06.16,6.11-.49,9.23-.65,3.1-.34,6.46-.09,9.67.32,4.13-.09,8.33,1.25,12.4.41,1.25,0,2.76.08,4.14.24,3.79,4.56,6.21,7.58,4.12,1.71-1.19,2.95-3.25,2.49-5.3-.48-2.14,1.55-3.78.31-6.14-.85-1.62-.26-4.07-.17-6.14.05-1.19-.56-2.53.63-3.55.17-.15.1-.69.01-1.01-1.16-4.2.41-8.38.08-12.61-.33-4.25-.07-8.55-.07-12.82v-26c0-4.39,0-8.78,0-13.17,0-2.95.36-3.33,3.43-3.34,10.2-.02,20.4-.02,30.6,0,2.42,0,3.36.97,3.36,3.46.02,12.6,0,25.19.18,37.96Z"/><path d="M302.62,294.74c.18,19.64.04,39.28-.13,59.09-12.3.17-24.42.15-36.55.2-1.46,0-2.23-.04-2.11-1.96.21-3.34-.27-6.74.16-10.03.38-2.99-.35-5.9-.05-8.79.99-9.37.48-18.76.66-28.14.02-.95.49-1.88.62-2.84.04-.29-.33-.68-.6-.94-.06-.05-.62.23-.7.45-.29.8-.54,1.64-.7,2.48-.55,2.89-.99,5.81-1.6,8.69-.76,3.59-1.72,7.14-2.48,10.73-.76,3.62-1.31,7.29-2.08,10.91-.83,3.91-1.8,7.79-2.7,11.68-.46,2-.97,4-1.34,6.01-.23,1.21-.82,1.81-2,1.7-3.64-.34-7.31.59-10.97-.59-1.65-.53-3.6-.13-5.41-.07-.93.03-1.23-.15-1.43-1.24-.76-4.26-1.75-8.49-2.66-12.73-.45-2.12-.89-4.24-1.36-6.36-1.58-7.07-3.1-14.16-4.79-21.2-.84-3.5-2.03-6.91-2.04-10.58,0-.48-.42-.97-.65-1.44-.09-.19-.23-.36-.34-.54-.11.18-.31.36-.32.55-.03.92-.02,1.85-.02,2.77,0,16.29,0,32.58,0,48.87,0,2.56-.01,2.58-2.42,2.58-10.99,0-21.99.02-32.98-.02-.89,0-2.3-.09-2.58-.62-.58-1.1-1.13-2.83-.65-3.74.67-1.27.52-2.41.52-3.6.03-17.21.03-34.43.02-51.64,0-2.63.78-5.29.54-7.79-.37-3.93.95-7.84-.22-11.75-.33-1.11.34-2.49.35-3.75.03-11.9.05-23.8-.02-35.7-.01-1.63.27-2.09,1.99-2.08,16.09.09,32.18.04,48.28.06,2.54,0,2.4.09,2.87,2.56.78,4.15,1.86,8.23,2.66,12.38.6,3.13.9,6.32,1.4,9.47.41,2.59.55,5.3,1.47,7.7.62,1.61.31,3.1.58,4.61.05.26.33.48.5.72.28-.24.82-.51.8-.73-.34-5.07,1.57-9.8,2.18-14.72.64-5.14,2.09-10.18,3.16-15.27.31-1.49.74-3,.77-4.51.04-1.91.97-2.25,2.56-2.23,5.44.05,10.88.02,16.32.02,10.2,0,20.4,0,30.6,0,2.24,0,2.11.03,2.29,2.4,1.43,19.65.43,39.32.62,58.98Z"/><path d="M431.26,294.74c.19,19.64.04,39.28-.13,59.09-12.3.17-24.42.15-36.55.2-1.46,0-2.23-.04-2.11-1.96.21-3.34-.27-6.74.16-10.03.38-2.99-.35-5.9-.05-8.79.99-9.37.48-18.76.66-28.14.02-.95.49-1.88.61-2.84.04-.29-.33-.68-.6-.94-.06-.05-.62.23-.7.45-.29.8-.54,1.64-.7,2.48-.55,2.89-.99,5.81-1.6,8.69-.76,3.59-1.72,7.14-2.48,10.73-.76,3.62-1.31,7.29-2.08,10.91-.83,3.91-1.8,7.79-2.7,11.68-.46,2-.97,4-1.34,6.01-.23,1.21-.82,1.81-2,1.7-3.64-.34-7.31.59-10.97-.59-1.65-.53-3.6-.13-5.41-.07-.93.03-1.23-.15-1.43-1.24-.76-4.26-1.76-8.49-2.66-12.73-.45-2.12-.89-4.24-1.36-6.36-1.58-7.07-3.1-14.16-4.79-21.2-.84-3.5-2.03-6.91-2.04-10.58,0-.48-.42-.97-.65-1.44-.09-.19-.23-.36-.34-.54-.11.18-.31.36-.32.55-.03.92-.02,1.85-.02,2.77,0,16.29,0,32.58,0,48.87,0,2.56-.01,2.58-2.42,2.58-10.99,0-21.99.02-32.98-.02-.89,0-2.3-.09-2.58-.62-.58-1.1-1.13-2.83-.65-3.74.67-1.27.52-2.41.52-3.6.03-17.21.03-34.43.02-51.64,0-2.63.78-5.29.54-7.79-.37-3.93.95-7.84-.23-11.75-.33-1.11.34-2.49.35-3.75.03-11.9.05-23.8-.02-35.7-.01-1.63.27-2.09,1.99-2.08,16.09.09,32.18.04,48.28.06,2.54,0,2.4.09,2.87,2.56.78,4.15,1.86,8.23,2.66,12.38.6,3.13.9,6.32,1.4,9.47.41,2.59.55,5.3,1.47,7.7.62,1.61.31,3.1.58,4.61.05.26.33.48.5.72.28-.24.82-.51.8-.73-.34-5.07,1.57-9.8,2.18-14.72.64-5.14,2.09-10.18,3.16-15.27.31-1.49.74-3,.77-4.51.04-1.91.97-2.25,2.56-2.23,5.44.05,10.88.02,16.32.02,10.2,0,20.4,0,30.6,0,2.24,0,2.11.03,2.28,2.4,1.43,19.65.43,39.32.62,58.98Z"/><path d="M480.36,236.41c.03,6.12.01,12.24.01,18.36,0,7.16.02,14.32-.02,21.48,0,1.81-.27,3.61-.28,5.41,0,1.59.24,3.17.28,4.76.07,2.62-.7,5.28-.49,7.78.16,1.85-.31,3.6-.11,5.32.37,3.11-.05,6.17-.06,9.25-.03,13.74-.01,27.48-.01,41.23,0,.23-.01.46,0,.69.22,4.12-.54,3.83-3.67,3.82-10.42-.05-20.84-.08-31.26.02-2.94.03-3.23-.68-3.19-3.32.1-7.74-.36-15.5.19-23.2.32-4.42-1.1-8.83.28-13.22.37-1.19-.46-2.83.02-3.93.56-1.27-.85-2.21.08-3.59.57-.85-.47-2.71-.48-4.11-.02-1.17.29-2.39.66-3.51.37-1.13-.4-2.05-.19-3.28.31-1.87.79-4.02-.4-5.98-.36-.59-.1-1.57-.11-2.36-.03-3.04.14-6.08.07-9.13-.2-9.35-.07-18.71-.07-28.41,0-4.85-.02-9.35,0-13.86.01-2.5.24-2.77,2.62-2.77,11.21-.02,22.43-.02,33.64,0,2.27,0,2.48.23,2.49,2.55Z"/><path d="M562.89,274.37c.38,2.01-.31,2.92-2.47,2.94-3.74.04-7.48.01-11.22.01-.57,0-1.14-.02-1.7,0-2.49.12-2.98.62-2.98,3.12,0,22.76,0,45.53,0,68.29,0,1.62-.02,3.24,0,4.85.02,1.38-.53,1.96-1.95,2.12-12.24,1.35-24.53.31-36.78.71-1.82.06-1.39-.99-1.39-1.94,0-14.91.01-29.81-.04-44.72,0-1.29-.65-2.59-.58-3.87.05-1.1,1.24-2.06.02-3.32-.3-.31.65-1.61.55-2.4-.87-6.82-.58-13.67-.65-20.52,0-.76-2.69-1.96-3.73-1.6-4.28,1.47-8.67.28-12.99.62-.29.02-.61-.63-.95-.92-1.15-1-1.05-2.71-.56-3.45.91-1.37.5-2.67.52-3.95.02-1.77-.86-3.74-.32-5.26.58-1.63-1.07-2.69-.31-4.4,0-2.31.2-4.3-.06-6.23-.24-1.81.07-3.55.06-5.33-.01-1.85,0-3.7,0-5.55,0-1.96.16-3.95-.05-5.89-.19-1.82.5-2.02,2.06-2.01,10.88.07,21.76.09,32.64,0,3.42-.03,6.84-.58,10.26-.61,2.62-.02,5.25.46,7.88.63,1.62.11,3.24-.11,4.88-.01,1.81.11,3.62.03,5.44.03h5.44c1.81,0,3.63-.02,5.44,0,2.78.03,2.85.08,2.86,2.89.02,10.51-.02,21.03.04,31.54,0,1.41.39,2.82.66,4.22Z"/><path d="M644.33,246.29c.17.65-.15,1.24-.42,1.81-.2.44-.41.87-.61,1.31-.44.93-.87,1.85-1.3,2.78-.87,1.84-1.74,3.69-2.6,5.54-1.77,3.8-3.56,7.59-5.34,11.38-1.79,3.81-3.58,7.63-5.36,11.44-1.77,3.77-3.54,7.54-5.31,11.32-1.75,3.74-3.51,7.48-5.26,11.23-.85,1.81-1.7,3.62-2.55,5.43-.4.84-.79,1.69-1.19,2.53-.19.4-.37.8-.56,1.19-.1.21-.19.41-.29.62-.13.28-.25.61-.43.86-.13.18-.3.33-.5.42-.15.06-.3.09-.46.09-.06,0-.12,0-.18,0-.25-.02-.5-.16-.71-.29-.25-.15-.49-.32-.73-.49-.69-.46-1.37-.92-2.06-1.38-.82-.55-1.64-1.1-2.46-1.65-.84-.56-1.67-1.15-2.56-1.64-.18-.1-.36-.19-.42-.23-.13-.07-.26-.13-.28-.14-1.8-.91-3.61-1.79-5.42-2.68-1.79-.88-3.57-1.76-5.36-2.64-3.31-1.63-6.63-3.25-9.93-4.89-.54-.27-1.08-.53-1.62-.8-.23-.11-.46-.22-.68-.34-.16-.08-.34-.14-.49-.24-.11-.06-.2-.15-.27-.24-.14-.17-.22-.38-.22-.62,0-.08,0-.16.03-.23,0-.01,0-.03,0-.04.42-1.89.89-3.77,1.32-5.66.48-2.08.97-4.17,1.46-6.25.97-4.15,1.94-8.29,2.91-12.44.95-4.04,1.89-8.07,2.83-12.11.91-3.91,1.83-7.83,2.75-11.74.89-3.8,1.78-7.59,2.67-11.39.37-1.58.74-3.16,1.11-4.74.06-.28.13-.55.19-.82.04-.19.09-.38.13-.57.05-.21.1-.42.18-.63.11-.3.27-.59.42-.87.26-.48.53-.96.81-1.43.12-.19.24-.38.38-.56.15-.19.37-.37.6-.43.25-.06.49-.09.74.02.14.06.27.15.4.24.08.05.17.1.25.15.36.18.74.34,1.1.49.05.02.1.04.16.06.18.08.36.16.54.23.27.11.53.23.8.34.23.1.47.2.7.3.06.02.06.01.06.01,0,0,0,0,.12.04.16.06.31.13.46.21.14.07.28.14.42.2.34.15.69.3,1.03.44.42.18.84.36,1.26.54.83.36,1.66.72,2.5,1.08,1.8.78,3.59,1.55,5.39,2.32,1.9.81,3.79,1.65,5.7,2.44,1.86.76,3.73,1.51,5.59,2.27,3.4,1.37,6.79,2.75,10.19,4.12,1.76.71,3.52,1.42,5.28,2.13.8.32,1.6.65,2.4.97.4.16.81.33,1.21.49.17.07.33.13.5.2.17.07.34.13.48.24.21.17.4.39.47.66Z"/><path d="M607.1,331.91c.33,1.83.42,3.72.28,5.57-.17,2.06-.57,4.1-1.28,6.04-.66,1.82-1.56,3.55-2.66,5.14-1.07,1.54-2.32,2.93-3.73,4.15-.7.6-1.43,1.15-2.09,1.59-2.4,1.61-5.09,2.7-7.78,3.22-1.38.27-2.77.4-4.16.4-.68,0-1.36-.03-2.03-.09-2.05-.17-4.05-.7-5.97-1.45-1.23-.49-2.4-1.11-3.52-1.81-1.14-.71-2.18-1.55-3.16-2.45-1.32-1.21-2.49-2.62-3.39-4.03-.6-.92-1.15-1.87-1.61-2.88-.42-.92-.78-1.87-1.08-2.84-.62-1.96-.95-4.04-.99-6.1-.01-.5,0-1,.02-1.5.01-.27.03-.55.06-.82h0s0-.03,0-.04c.02-.29.05-.58.09-.87.23-2.04.79-4.06,1.57-5.95.82-1.98,1.94-3.8,3.27-5.47,1.32-1.65,2.9-3.06,4.62-4.26.77-.55,1.6-1.02,2.44-1.45.81-.41,1.65-.78,2.5-1.08.82-.29,1.65-.54,2.49-.73.04-.02.09-.03.13-.04.02,0,.04,0,.06-.01,0,0,0,0,0,0,.03,0,.06-.01.08-.02.01,0,.02,0,.03,0,.11-.02.23-.04.34-.07.5-.1,1-.18,1.51-.24.05,0,.1,0,.15,0,.72-.08,1.44-.13,2.17-.14,1.91-.03,3.82.22,5.67.7,2.53.66,4.92,1.8,7.01,3.28,1.52,1.08,2.88,2.36,4.08,3.77,1.27,1.51,2.32,3.19,3.17,4.99.82,1.75,1.38,3.62,1.72,5.52Z"/><path d="M155.74,208.91c.94,4.85-.23,6.65-4.86,6.66-16.03.03-32.06.01-48.09.01-2.57,0-5.14.03-7.72,0-4.18-.07-4.67-.51-4.68-4.74-.04-13.11-.01-26.23-.01-39.34,0-1.21.17-2.46-.06-3.62-.14-.71-.93-1.86-1.37-1.84-4.79.31-9.67-1.07-14.4,1.02-1.14.5-2.29.35-1.97,2.03.51,2.7-1.19,5.16-.23,8.15.73,2.28-.87,5.23-.91,7.9-.14,8.87-.03,17.75-.07,26.63-.02,4.88-.15,5.06-5,4.98-2.04-.04-4.06-.74-6.11-.96-1.31-.14-2.66-.02-3.98.1-.3.03-.57.79-.84.78-6.27-.22-12.53-.5-18.79-.79-.75-.04-1.56-.44-2.24-.26-9.85,2.63-19.87.64-29.8,1.09-3.57.16-4.46-1.22-4.46-4.89-.01-30.46,0-60.92,0-91.38,0-3.19.86-6.3.98-9.44.09-2.42-1.56-5.28-.76-7.22,1.17-2.82-1.23-5.32-.01-7.46,1.59-2.8-.29-5.45.14-7.5.84-3.96.73-7.8.79-11.68.1-5.71-.45-11.41-.05-17.16.41-5.82.09-11.7.09-17.54s-.15-12.11.05-18.15c.17-5.09.86-10.15,1.08-15.24.09-1.99,1.22-1.48,2.33-1.69,5.42-1.02,10.83.17,16.24.01,2.51-.07,5.01-.41,7.52-.46,2.28-.04,4.56.17,6.85.25,2.27.08,4.55.18,6.82.21,2.37.04,4.75,0,7.12,0h7.72c2.57,0,5.15.1,7.72-.03,2.16-.11,4.3-.48,6.46-.74.05,2.19-.42,4.58.28,6.55,1.35,3.84,1.74,7.44-.11,11.14,2.87,2.58.36,5.85.96,8.83.76,3.75-.28,7.85-.34,11.8-.03,2.17.54,4.34.54,6.52.05,17.55.03,35.1.03,52.65v1.21c.02,5.47,2.65,7.3,8.11,5.84,1.53-.41,3.26-.63,4.8-.35,3.27.61,4.88-.35,4.9-3.55.04-7.67.01-15.33.01-23,0-23.8-.01-47.61,0-71.41,0-5.34.07-5.06,5.17-5.52,8.86-.82,17.69.35,26.53.12,9.3-.25,18.6-.09,27.9-.04,4.17.03,4.24.41,4.53,4.92,2.15,33.3.78,66.64,1.15,99.96.04,3.7.2,7.39.05,11.1-.17,4.03-.04,8.07-.04,12.1v11.5c0,4.03-.18,8.08.06,12.1.18,2.87-1.19,5.99,1.06,8.61-2.16,2.61-.84,5.69-1.07,8.55-.23,2.8-.05,5.64-.05,8.47v18.76c0,2.22-.26,3.89.05,5.44Z"/><path d="M282.33.02c3.84,0,5.6,1.77,5.51,5.78-.32,14.76-.7,29.52-1.19,44.27-.22,6.49-.72,12.98-1.21,19.46-.05.66-.81,1.61-1.43,1.82-1.75.6-3.61,1.21-5.42,1.23-12.86.1-25.72.11-38.58,0-2.42-.02-3.44.51-3.28,3.21.11,1.86-.78,3.77-.75,5.65.02,1.11.87,2.27,1.56,3.25.2.29,1.13.06,1.72.04,9.57-.3,19.14-.68,28.71-.82,1.64-.02,3.32,1.89,4.89-.23.65.63,1.69,1.16,1.86,1.89.3,1.34.09,2.8.09,4.21,0,10.89-.16,21.79.1,32.67.07,3.17-.92,3.53-3.62,3.49-11.27-.16-22.55-.04-33.83-.09-1.96,0-3.41-.06-3.08,2.75.34,2.96-.92,7.05.58,8.68,1.43,1.55,5.5.67,8.42.69,8.11.05,16.22-.12,24.33.07,4.99.12,9.96.72,14.94,1.18,2.07.19,2.92,1.46,2.87,3.59-.09,3.63-.02,7.26-.02,10.89v10.89c0,3.43-.27,6.89.08,10.28.34,3.33.26,6.94-.38,9.83-1.53,6.98-.48,13.85-.81,20.75-.16,3.18-1.49,3.83-4.34,4.03-35.23,2.58-70.5.46-105.75,1.12-5.12.1-5.14-.05-5.16-5.45-.02-8.67,0-17.34,0-26.02,0-3.63.27-7.29-.08-10.88-.32-3.33.3-6.59.12-9.9-.2-3.62-.08-7.26-.04-10.89.07-6.19-.55-12.32-1.09-18.47-.23-2.6,1-5.3,1.03-7.96.13-10.89.43-21.8-.11-32.66-.26-5.13.97-10.43-1.02-15.45,2.58-7.38.93-15,1.05-22.49.08-4.9.19-9.82.13-15.33,0-10.49-.02-20.37.01-30.25.02-4.36.43-4.84,4.58-4.84,36.2-.03,72.4-.03,108.61,0Z"/><path d="M483.43,206.9c.01,9.59.04,9.59-9.05,9.59-15.43,0-30.89-.67-46.28.13-39.4,2.05-78.8.55-118.2,1.08-1.38.02-2.8.18-4.14-.08-.63-.12-1.45-1.01-1.56-1.66-.24-1.37-.01-2.81-.08-4.22-.23-4.53-.7-9.06-.71-13.59,0-4.41.56-8.82.69-13.24.13-4.43.03-8.87.03-13.31v-55.05c0-4.64.13-9.28-.03-13.91-.2-5.59-1.27-11.17.03-16.75-2.8-2.69.29-5.39-.02-8.07-.31-2.67-1.61-5.53-1.01-7.93,1.87-7.5.84-15.03.97-22.53.22-12.7.05-25.41.07-38.11,0-5.76.03-5.8,5.43-5.8,18.2-.02,36.39-.02,54.59,0,5.22,0,5.44.06,5.22,5.35-.22,5.12.35,10.3-.13,15.31-.56,5.8.6,11.43.27,17.17-.34,5.83-.07,11.69-.07,17.54v71.99c0,6.05.26,12.11-.1,18.14-.2,3.31,1.08,3.55,3.67,3.43,4.14-.19,8.31-.05,13.05-.05,24.13,0,47.67.05,71.21-.05,3.6-.01,7.33.91,10.82-1.1.74-.43,2.33-.46,2.84.05,2.07,2.07,4.53,1.07,6.72,1.01,5.77-.16,5.77-.33,5.78,5.04,0,16.54-.01,33.07,0,49.61Z"/><path d="M484.57,133.38c.21,4.23-.37,4.79-4.39,5.6-1.14.23-2.37.04-3.55.04-29.88,0-59.76,0-89.64,0-4.48,0-4.49-.02-4.5-4.84,0-9.89,0-19.77,0-30.26,0-21.59.03-42.57-.02-63.54-.01-4.23.56-8.81-.84-12.56-.98-2.62,2.78-4.79-.25-6.75,2.95-4.51-.84-8.94-.19-13.51.42-2.95,1.27-4.16,4.24-4.15,16.62.08,33.24.01,49.87.06,3.81.01,4.18.54,4.19,5.24.02,21.38,0,42.77,0,64.15,0,1.21,0,2.42,0,3.63.03,4.68.03,4.51,5.11,4.47,12.07-.1,24.14.01,36.21-.08,1.97-.01,2.88.28,2.67,2.58-.23,2.6.19,5.27-.13,7.85-.29,2.33,0,4.89.35,6.82,2.07,11.76.3,23.53.87,35.26Z"/><path d="M571.75,163.62c.91-5.68,2.36-11.41,2.3-17.11-.28-25,1.43-50.04-1.09-75-.23-2.25-.49-4.65-1.46-6.61-.9-1.82-1.33-4.36-4.66-4.25-3.34.12-3.98,2.95-4.34,4.58-1.29,5.79-2,11.75-2.5,17.68-.37,4.4-.07,8.85-.07,13.28v13.29c0,4.63-.13,9.27.04,13.89.14,4.1-1.33,8.18-.08,12.3.28.92.45,2.34-.03,2.95-2.4,3.01-.77,5.83.07,9.93.4,3.26.62,6.55,1.24,9.76.53,2.74,1.26,5.51,2.39,8.04,1.31,2.91,4.78,3.23,6.57.79.75-1.02,1.42-2.28,1.62-3.52ZM641.81,78.02c.1,17.34.16,34.69-.01,52.03-.08,7.7-.08,15.51-1.3,23.07-1.58,9.82-1.28,19.99-4.66,29.46-1.87,5.24-4.12,10.42-6.83,15.25-3.98,7.1-10.21,12.39-17.1,16-6.62,3.47-13.66,6.52-21.55,6.95-4.39.24-9.04.24-13.3,2.17-.99.45-2.35.07-3.53.07-6.13,0-12.28.29-18.39-.07-8.42-.5-17-1.08-24.69-4.87-9.88-4.86-18.14-11.79-24.04-21.55-5.01-8.29-6.57-17.42-8.43-26.75-2.86-14.37-1.61-28.8-2.35-43.19-.23-4.56.36-9.03.12-13.53-.16-2.87-1.71-6.04-.92-8.5,1.15-3.57.7-6.99.95-10.47.08-1.2.06-2.42,0-3.63-.59-13.65,1.58-27.04,3.59-40.44.22-1.47.77-2.9,1.16-4.95,4.05-10.08,9.32-18.76,17.24-25.35,6.35-5.28,13.24-9.28,21.59-11.16,11.74-2.64,23.56-2.94,35.24-1.92,9.05.79,18.39,1.19,27.14,4.53,13.39,5.12,24.49,12.82,30.65,26.68,3.91,8.8,7.06,17.67,8.5,27.33.64,4.33.87,8.57.9,12.85Z"/></svg>