<?xml version="1.0" encoding="UTF-8"?><svg id="a" xmlns="http://www.w3.org/2000/svg" viewBox="0 0 624.24 934.59"><path d="M577.92,934.59H46.32c-25.54,0-46.32-20.78-46.32-46.32V46.32C0,20.78,20.78,0,46.32,0h531.6c25.54,0,46.32,20.78,46.32,46.32v841.95c0,25.54-20.78,46.32-46.32,46.32h0Z" fill="#252525"/><path d="M591.15,888.27c0,7.31-5.93,13.23-13.24,13.23H46.32c-7.31,0-13.23-5.92-13.23-13.23V46.32c0-7.31,5.93-13.23,13.23-13.23h531.6c7.31,0,13.24,5.92,13.24,13.23v841.95h0ZM593.36,888.27V46.32c0-8.51-6.93-15.44-15.44-15.44H46.32c-8.51,0-15.44,6.93-15.44,15.44v841.95c0,8.51,6.93,15.44,15.44,15.44h531.6c8.51,0,15.44-6.93,15.44-15.44h0Z" fill="#fec87c"/><path d="M297,885.99s-21.42,3.69-43.37-15.45c0,0-9.79-6.85-11.38-3.87-1.59,2.99,4.76,9.43,10.17,10.08,0,0-2.91-.07-4.92,3.06,0,0,5.07-1.66,10.02.31,4.95,1.97,22.21,9.08,39.47,5.87Z" fill="#fec87c"/><path d="M303.93,883.59s-25.51-1.53-43.37-19.39c0,0-6.1-8.5-8.63-5.31-2.53,3.19,6.44,11.8,14.87,16.61,8.43,4.82,24.38,7.48,37.14,8.09Z" fill="#fec87c"/><path d="M300.83,880.85s-10.12-1.29-17.45-6.28c-7.33-4.99-11.47-7.63-14.41-6.88,0,0,2.79-5.08,10.17-2.54,7.38,2.54,7.67,10.82,21.69,15.7Z" fill="#fec87c"/><path d="M310.89,870.44s-.56-7.73-8.44-11.48c-7.88-3.75-8.96-3.37-10.03-10.41,0,0,1.28,2.32,4.13,2.32s4.73.14,5.24,2.38c0,0-.61-2.53.61-4.96,0,0,.69,1.85,2.44,3.17,1.74,1.33,8.72,6.88,6.05,18.98Z" fill="#fec87c"/><path d="M327.24,885.99s21.42,3.69,43.37-15.45c0,0,9.79-6.85,11.38-3.87,1.59,2.99-4.76,9.43-10.18,10.08,0,0,2.91-.07,4.92,3.06,0,0-5.07-1.66-10.02.31-4.95,1.97-22.21,9.08-39.47,5.87Z" fill="#fec87c"/><path d="M320.31,883.59s25.52-1.53,43.37-19.39c0,0,6.1-8.5,8.63-5.31,2.53,3.19-6.44,11.8-14.87,16.61-8.43,4.82-24.38,7.48-37.14,8.09Z" fill="#fec87c"/><path d="M323.41,880.85s10.12-1.29,17.45-6.28c7.33-4.99,11.47-7.63,14.41-6.88,0,0-2.79-5.08-10.17-2.54-7.38,2.54-7.67,10.82-21.69,15.7Z" fill="#fec87c"/><path d="M313.35,870.44s.56-7.73,8.44-11.48c7.88-3.75,8.96-3.37,10.03-10.41,0,0-1.28,2.32-4.13,2.32s-4.74.14-5.24,2.38c0,0,.61-2.53-.61-4.96,0,0-.7,1.85-2.44,3.17-1.74,1.33-8.72,6.88-6.05,18.98Z" fill="#fec87c"/><path d="M312.12,844.19s3.45,1.74,2.33,4.52c0,0,2.05.77,3.72-1.53,0,0,.5,2.35-1.78,4.63-2.28,2.28-4.28,5.26-4.28,7.62,0-2.37-2-5.34-4.28-7.62-2.28-2.28-1.78-4.63-1.78-4.63,1.67,2.3,3.72,1.53,3.72,1.53-1.11-2.78,2.33-4.52,2.33-4.52Z" fill="#fec87c"/><path d="M242.03,884.36s-15.36-2.63-30.26,6.7c0,0-6.88,4.21-14.18,3.7,0,0-.65-3.58,3.03-3.25,0,0-1.06-1.83-3.68,0-2.62,1.83-6.72,5-14.77,1.83,0,0,1.4-.38,2.42-2.42,0,0-4.62-.27-8.06-4.19,0,0,1.59-1.19,2.26.59,0,0,.11-.75-1.13-2.47-1.24-1.72-8.56-16.1,2.3-20.87,0,0,6.38-2.71,8.94,2.66,0,0,1.91,3.66-1.97,6.29,0,0,1.79-1.4,1.14-4.63-.89-4.43-9.84-4.41-11.35,2.64-1.51,7.06,3.56,15.79,13.18,17.35,9.62,1.56,16.25-.68,19.88-1.93,6.82-2.36,20.63-6.07,32.25-1.99Z" fill="#fec87c"/><path d="M187.14,844.7s24.54-2.37,19.55,30.18c0,0,3.21-4.67,4.13-10.96.92-6.28-.98-11.76,4.32-13.37,0,0-4.27-2.48-6.22,2.36,0,0,1.33-5.88-4.55-10.49,0,0-2.48-2.08-2.48-4.21,0,0-2.19,2.19-.92,5.07,0,0,.53,1.25-.65,1.53-1.18.28-1.46-.78-1.46-1.95s-1.34-4.82-4.93-4.82-7.18,2.78-6.77,6.65Z" fill="#fec87c"/><path d="M143.42,865.88c0-5.87,3.05-11.01,7.65-13.96-3.5,3.04-5.72,7.51-5.72,12.51,0,14.42,21.93,17.41,28.27,28.18,0,0-7.67-9.35-21.45-6,0,0,.49-3.24,4.81-3.78,0,0-2.6-1-4.7-2.31-5.27-2.77-8.87-8.29-8.87-14.66Z" fill="#fec87c"/><path d="M86.32,824c-2.25.85-4.37,2.17-6.18,3.99-6.87,6.87-6.87,18.01,0,24.88,6.87,6.87,18.01,6.87,24.88,0,1.81-1.81,3.13-3.93,3.99-6.18-.03,5.73-2.23,11.44-6.6,15.81-8.81,8.81-23.09,8.81-31.91,0-8.81-8.81-8.81-23.09,0-31.9,4.37-4.37,10.09-6.57,15.81-6.6Z" fill="#fec87c"/><polygon points="121.36 881.32 105.83 867.29 106.58 866.54 107.32 865.79 121.36 881.32" fill="#fec87c"/><polygon points="51.69 881.32 65.72 865.79 66.47 866.54 67.21 867.29 51.69 881.32" fill="#fec87c"/><polygon points="107.46 877.82 101.4 870.65 102.28 870.06 103.16 869.48 107.46 877.82" fill="#fec87c"/><polygon points="104.13 888.99 96.4 873.09 97.38 872.69 98.35 872.28 104.13 888.99" fill="#fec87c"/><polygon points="93.88 883.43 91.02 874.51 92.06 874.3 93.09 874.09 93.88 883.43" fill="#fec87c"/><polygon points="86.53 895.75 85.47 874.85 86.53 874.85 87.58 874.85 86.53 895.75" fill="#fec87c"/><polygon points="79.18 883.43 79.96 874.09 80.99 874.3 82.03 874.5 79.18 883.43" fill="#fec87c"/><polygon points="68.92 889 74.7 872.28 75.67 872.69 76.65 873.09 68.92 889" fill="#fec87c"/><polygon points="65.59 877.82 69.89 869.48 70.77 870.07 71.65 870.65 65.59 877.82" fill="#fec87c"/><polygon points="51.69 811.65 67.22 825.69 66.47 826.44 65.73 827.18 51.69 811.65" fill="#fec87c"/><polygon points="55.19 867.42 62.36 861.37 62.95 862.24 63.53 863.12 55.19 867.42" fill="#fec87c"/><polygon points="44.01 864.1 59.92 856.37 60.32 857.34 60.73 858.31 44.01 864.1" fill="#fec87c"/><polygon points="49.58 853.84 58.5 850.99 58.71 852.02 58.92 853.05 49.58 853.84" fill="#fec87c"/><polygon points="37.26 846.49 58.16 845.43 58.16 846.49 58.16 847.54 37.26 846.49" fill="#fec87c"/><polygon points="49.58 839.14 58.92 839.92 58.71 840.95 58.5 841.99 49.58 839.14" fill="#fec87c"/><polygon points="44.01 828.88 60.73 834.66 60.32 835.63 59.92 836.61 44.01 828.88" fill="#fec87c"/><polygon points="55.19 825.55 63.53 829.85 62.94 830.73 62.36 831.61 55.19 825.55" fill="#fec87c"/><path d="M86.95,832.93c4.89,4.9,8.24,4.89,13.13,0-4.89,4.89-4.89,8.24,0,13.14-4.89-4.9-8.24-4.9-13.13,0,4.89-4.89,4.89-8.24,0-13.13Z" fill="#fec87c"/><path d="M123.47,810.81l-1.27-1.27c-1.28,1.19-2.89,2.71-4.13,3.94-2.39,2.39-6.71,2.68-8.75,4.72-2.04,2.04-1.76,7.24-1.76,7.24,0,0,5.2.28,7.25-1.76,2.04-2.04,2.33-6.36,4.72-8.75,1.23-1.23,2.76-2.85,3.94-4.12ZM128.13,812.41c.49-.5.49-1.3,0-1.79l-5.75-5.75c-.49-.49-1.29-.49-1.79,0-.49.49-.49,1.29,0,1.79l5.75,5.75c.49.49,1.29.49,1.79,0ZM125.35,806.57l1.09,1.09c.18-.17.36-.35.56-.54,1.8-1.8,5.05-2.02,6.59-3.56,1.54-1.54-.61-3.52-.61-3.52,0,0-1.98-2.15-3.52-.61-1.54,1.54-1.76,4.79-3.56,6.59-.2.2-.38.38-.55.56Z" fill="#fec87c"/><path d="M183.02,855.1s1.31-8.53-9.43-11.55c0,0,5.3-5.17,1.97-12.95,0,0,.2,17.22-14.48,14.88,0,0,3.38,1.75,9.24,2.31,5.86.56,12.19,1.22,12.7,7.32Z" fill="#fec87c"/><path d="M171.81,835.34c.02.2,0,.4-.01.59-.18,1.97-1.63,4.63-4.12,6.29-2.45,1.74-6.11,2.14-9.43.81-4.45-1.55-7.84-5.48-9.65-9.86-2.02-4.34-2.49-8.99-3.99-12.77-3.16-7.7-9.09-10.06-8.93-9.97-.16-.1,5.7,2.45,8.58,10.11,1.36,3.71,1.7,8.44,3.62,12.93,1.69,4.52,5.18,8.9,9.89,10.73,3.53,1.58,7.81,1.49,10.89-.39,3.09-1.81,5.08-4.71,5.45-7.65.02-.29.06-.58.04-.88.06-2.21-1.8-5.93-5.18-5.79-1.69-.09-2.87,1.71-2.76,2.54-.05.89.16,1.33.3,1.33.31.23.5-2.63,2.48-2.21,1.88.21,2.86,2.77,2.83,4.2Z" fill="#fec87c"/><path d="M133.18,836.07c-.93,3.94,3.46,8.5,9.09,4.29,4.29-3.16,4.38-8.41,4.16-11.76-.31-3.5-1.22-5.77-1.21-5.77-.02,0,.62,2.38.46,5.79-.03,3.22-1.5,8.17-4.59,9.51-4,1.41-1.51-4.22-2.3-5.18-.62-1.01-4.49-.97-5.62,3.12Z" fill="#fec87c"/><path d="M153.83,812.06s-.38,5.48-14-.21c0,0,8.79,5.88,8.48,18.27,0,0,5.06-8.42.48-12.29,0,0,5.77-.68,5.04-5.76Z" fill="#fec87c"/><path d="M124.11,820.47c-1.25-1.64-1.53-4.2-.44-6.17,1.14-2.07,2.9-3.73,4.78-4.44,3.93-1.38,6.88.58,6.81.36.02.25-2.6-2.07-7.04-1.07-2.15.55-4.3,2.15-5.86,4.32-1.67,2.3-1.85,5.72-.38,8.34,2.15,4.22,7.79,5.47,10.98,3.89,0,0,5.55-2.69,2.06-5.27-2.62-2.01-6.81,5.55-10.9.04Z" fill="#fec87c"/><path d="M77.91,749.99s8.53-1.31,11.55,9.43c0,0,5.17-5.3,12.95-1.97,0,0-17.22-.2-14.88,14.48,0,0-1.75-3.38-2.3-9.24-.56-5.86-1.21-12.19-7.32-12.7Z" fill="#fec87c"/><path d="M97.66,761.2c-.2-.02-.4,0-.59.02-1.97.18-4.63,1.63-6.29,4.11-1.75,2.45-2.14,6.11-.81,9.43,1.55,4.45,5.48,7.85,9.86,9.65,4.33,2.02,8.99,2.49,12.77,3.99,7.7,3.16,10.06,9.09,9.98,8.93.1.16-2.45-5.7-10.11-8.58-3.71-1.36-8.44-1.7-12.93-3.62-4.53-1.69-8.9-5.18-10.73-9.9-1.58-3.53-1.49-7.81.39-10.89,1.82-3.09,4.71-5.08,7.65-5.45.29-.03.58-.06.88-.04,2.21-.06,5.93,1.8,5.79,5.18.09,1.69-1.71,2.87-2.54,2.76-.89.05-1.33-.16-1.33-.3-.23-.31,2.63-.5,2.21-2.48-.21-1.88-2.77-2.86-4.2-2.83Z" fill="#fec87c"/><path d="M96.94,799.83c-3.94.93-8.5-3.46-4.29-9.09,3.16-4.29,8.41-4.38,11.76-4.16,3.5.31,5.77,1.22,5.77,1.2,0,.02-2.38-.61-5.79-.45-3.22.03-8.17,1.5-9.51,4.58-1.42,4,4.22,1.51,5.18,2.3,1.01.61.98,4.49-3.12,5.62Z" fill="#fec87c"/><path d="M120.95,779.18s-5.48.39.21,14.01c0,0-5.89-8.79-18.27-8.49,0,0,8.42-5.06,12.3-.48,0,0,.67-5.77,5.76-5.04Z" fill="#fec87c"/><path d="M112.53,808.9c1.64,1.25,4.2,1.53,6.17.44,2.07-1.14,3.73-2.9,4.43-4.78,1.39-3.93-.57-6.87-.36-6.81-.25-.02,2.07,2.6,1.07,7.04-.55,2.15-2.15,4.3-4.32,5.86-2.3,1.66-5.72,1.84-8.34.38-4.22-2.15-5.48-7.79-3.89-10.98,0,0,2.69-5.55,5.28-2.06,2.01,2.62-5.56,6.81-.04,10.9Z" fill="#fec87c"/><path d="M382.21,884.36s15.35-2.63,30.26,6.7c0,0,6.88,4.21,14.18,3.7,0,0,.65-3.58-3.03-3.25,0,0,1.06-1.83,3.68,0,2.62,1.83,6.72,5,14.77,1.83,0,0-1.4-.38-2.42-2.42,0,0,4.62-.27,8.06-4.19,0,0-1.59-1.19-2.26.59,0,0-.11-.75,1.13-2.47,1.24-1.72,8.56-16.1-2.3-20.87,0,0-6.38-2.71-8.94,2.66,0,0-1.91,3.66,1.97,6.29,0,0-1.79-1.4-1.14-4.63.89-4.43,9.84-4.41,11.35,2.64,1.51,7.06-3.57,15.79-13.18,17.35-9.62,1.56-16.25-.68-19.88-1.93-6.82-2.36-20.63-6.07-32.25-1.99Z" fill="#fec87c"/><path d="M437.09,844.7s-24.54-2.37-19.55,30.18c0,0-3.21-4.67-4.13-10.96-.92-6.28.98-11.76-4.32-13.37,0,0,4.27-2.48,6.22,2.36,0,0-1.32-5.88,4.55-10.49,0,0,2.48-2.08,2.48-4.21,0,0,2.19,2.19.92,5.07,0,0-.53,1.25.65,1.53,1.18.28,1.46-.78,1.46-1.95s1.34-4.82,4.93-4.82,7.18,2.78,6.77,6.65Z" fill="#fec87c"/><path d="M480.81,865.88c0-5.87-3.05-11.01-7.65-13.96,3.5,3.04,5.72,7.51,5.72,12.51,0,14.42-21.93,17.41-28.27,28.18,0,0,7.67-9.35,21.45-6,0,0-.49-3.24-4.81-3.78,0,0,2.6-1,4.7-2.31,5.27-2.77,8.86-8.29,8.86-14.66Z" fill="#fec87c"/><path d="M537.92,824c2.25.85,4.37,2.17,6.18,3.99,6.87,6.87,6.87,18.01,0,24.88-6.87,6.87-18.01,6.87-24.88,0-1.81-1.81-3.13-3.93-3.99-6.18.03,5.73,2.23,11.44,6.6,15.81,8.81,8.81,23.09,8.81,31.91,0,8.81-8.81,8.81-23.09,0-31.9-4.37-4.37-10.08-6.57-15.81-6.6Z" fill="#fec87c"/><polygon points="502.88 881.32 518.4 867.29 517.66 866.54 516.91 865.79 502.88 881.32" fill="#fec87c"/><polygon points="572.55 881.32 558.51 865.79 557.77 866.54 557.02 867.29 572.55 881.32" fill="#fec87c"/><polygon points="516.77 877.82 522.83 870.65 521.96 870.06 521.08 869.48 516.77 877.82" fill="#fec87c"/><polygon points="520.11 888.99 527.83 873.09 526.86 872.69 525.89 872.28 520.11 888.99" fill="#fec87c"/><polygon points="530.36 883.43 533.21 874.51 532.18 874.3 531.15 874.09 530.36 883.43" fill="#fec87c"/><polygon points="537.71 895.75 538.77 874.85 537.71 874.85 536.66 874.85 537.71 895.75" fill="#fec87c"/><polygon points="545.06 883.43 544.28 874.09 543.24 874.3 542.21 874.5 545.06 883.43" fill="#fec87c"/><polygon points="555.32 889 549.54 872.28 548.56 872.69 547.59 873.09 555.32 889" fill="#fec87c"/><polygon points="558.64 877.82 554.34 869.48 553.47 870.07 552.59 870.65 558.64 877.82" fill="#fec87c"/><polygon points="572.55 811.65 557.02 825.69 557.77 826.44 558.51 827.18 572.55 811.65" fill="#fec87c"/><polygon points="569.04 867.42 561.88 861.37 561.29 862.24 560.71 863.12 569.04 867.42" fill="#fec87c"/><polygon points="580.22 864.1 564.31 856.37 563.91 857.34 563.51 858.31 580.22 864.1" fill="#fec87c"/><polygon points="574.66 853.84 565.73 850.99 565.53 852.02 565.32 853.05 574.66 853.84" fill="#fec87c"/><polygon points="586.98 846.49 566.07 845.43 566.07 846.49 566.07 847.54 586.98 846.49" fill="#fec87c"/><polygon points="574.66 839.14 565.32 839.92 565.53 840.95 565.73 841.99 574.66 839.14" fill="#fec87c"/><polygon points="580.22 828.88 563.51 834.66 563.92 835.63 564.31 836.61 580.22 828.88" fill="#fec87c"/><polygon points="569.04 825.55 560.71 829.85 561.29 830.73 561.88 831.61 569.04 825.55" fill="#fec87c"/><path d="M537.29,832.93c-4.89,4.9-8.25,4.89-13.14,0,4.89,4.89,4.9,8.24,0,13.14,4.9-4.9,8.24-4.9,13.14,0-4.89-4.89-4.89-8.24,0-13.13Z" fill="#fec87c"/><path d="M500.76,810.81l1.27-1.27c1.28,1.19,2.89,2.71,4.12,3.94,2.39,2.39,6.71,2.68,8.75,4.72,2.04,2.04,1.76,7.24,1.76,7.24,0,0-5.2.28-7.25-1.76-2.04-2.04-2.33-6.36-4.72-8.75-1.23-1.23-2.76-2.85-3.95-4.12ZM496.1,812.41c-.5-.5-.5-1.3,0-1.79l5.75-5.75c.49-.49,1.29-.49,1.79,0,.49.49.49,1.29,0,1.79l-5.75,5.75c-.49.49-1.29.49-1.79,0ZM498.88,806.57l-1.09,1.09c-.17-.17-.36-.35-.56-.54-1.8-1.8-5.05-2.02-6.59-3.56s.61-3.52.61-3.52c0,0,1.98-2.15,3.52-.61,1.54,1.54,1.76,4.79,3.56,6.59.2.2.38.38.55.56Z" fill="#fec87c"/><path d="M441.22,855.1s-1.31-8.53,9.43-11.55c0,0-5.3-5.17-1.97-12.95,0,0-.2,17.22,14.48,14.88,0,0-3.38,1.75-9.24,2.31-5.86.56-12.19,1.22-12.7,7.32Z" fill="#fec87c"/><path d="M452.43,835.34c-.02.2,0,.4.01.59.18,1.97,1.63,4.63,4.11,6.29,2.45,1.74,6.11,2.14,9.43.81,4.45-1.55,7.84-5.48,9.65-9.86,2.02-4.34,2.49-8.99,3.98-12.77,3.16-7.7,9.09-10.06,8.93-9.97.15-.1-5.7,2.45-8.58,10.11-1.36,3.71-1.7,8.44-3.62,12.93-1.68,4.52-5.18,8.9-9.89,10.73-3.53,1.58-7.81,1.49-10.89-.39-3.09-1.81-5.08-4.71-5.45-7.65-.03-.29-.06-.58-.04-.88-.06-2.21,1.8-5.93,5.19-5.79,1.69-.09,2.87,1.71,2.76,2.54.05.89-.16,1.33-.3,1.33-.31.23-.5-2.63-2.49-2.21-1.88.21-2.86,2.77-2.83,4.2Z" fill="#fec87c"/><path d="M491.06,836.07c.93,3.94-3.46,8.5-9.09,4.29-4.29-3.16-4.38-8.41-4.16-11.76.31-3.5,1.22-5.77,1.2-5.77.02,0-.61,2.38-.45,5.79.03,3.22,1.5,8.17,4.58,9.51,4,1.41,1.51-4.22,2.3-5.18.61-1.01,4.5-.97,5.62,3.12Z" fill="#fec87c"/><path d="M470.41,812.06s.38,5.48,14-.21c0,0-8.78,5.88-8.48,18.27,0,0-5.06-8.42-.48-12.29,0,0-5.77-.68-5.04-5.76Z" fill="#fec87c"/><path d="M500.13,820.47c1.25-1.64,1.53-4.2.44-6.17-1.14-2.07-2.9-3.73-4.78-4.44-3.93-1.38-6.87.58-6.81.36-.02.25,2.6-2.07,7.04-1.07,2.15.55,4.3,2.15,5.86,4.32,1.67,2.3,1.85,5.72.38,8.34-2.15,4.22-7.79,5.47-10.98,3.89,0,0-5.55-2.69-2.06-5.27,2.62-2.01,6.81,5.55,10.9.04Z" fill="#fec87c"/><path d="M546.33,749.99s-8.53-1.31-11.55,9.43c0,0-5.17-5.3-12.96-1.97,0,0,17.22-.2,14.88,14.48,0,0,1.75-3.38,2.31-9.24.56-5.86,1.22-12.19,7.32-12.7Z" fill="#fec87c"/><path d="M526.57,761.2c.2-.02.4,0,.59.02,1.97.18,4.63,1.63,6.29,4.11,1.75,2.45,2.14,6.11.81,9.43-1.55,4.45-5.48,7.85-9.86,9.65-4.33,2.02-8.99,2.49-12.77,3.99-7.7,3.16-10.06,9.09-9.97,8.93-.1.16,2.45-5.7,10.11-8.58,3.71-1.36,8.44-1.7,12.93-3.62,4.52-1.69,8.9-5.18,10.73-9.9,1.58-3.53,1.49-7.81-.39-10.89-1.82-3.09-4.71-5.08-7.65-5.45-.29-.03-.58-.06-.88-.04-2.21-.06-5.93,1.8-5.79,5.18-.09,1.69,1.71,2.87,2.54,2.76.89.05,1.33-.16,1.33-.3.23-.31-2.62-.5-2.21-2.48.21-1.88,2.76-2.86,4.2-2.83Z" fill="#fec87c"/><path d="M527.3,799.83c3.94.93,8.5-3.46,4.29-9.09-3.16-4.29-8.41-4.38-11.76-4.16-3.5.31-5.77,1.22-5.77,1.2-.01.02,2.38-.61,5.78-.45,3.22.03,8.17,1.5,9.51,4.58,1.41,4-4.22,1.51-5.18,2.3-1.01.61-.97,4.49,3.12,5.62Z" fill="#fec87c"/><path d="M503.29,779.18s5.48.39-.21,14.01c0,0,5.89-8.79,18.27-8.49,0,0-8.42-5.06-12.3-.48,0,0-.67-5.77-5.76-5.04Z" fill="#fec87c"/><path d="M511.7,808.9c-1.63,1.25-4.2,1.53-6.17.44-2.07-1.14-3.73-2.9-4.44-4.78-1.39-3.93.57-6.87.36-6.81.25-.02-2.07,2.6-1.07,7.04.55,2.15,2.15,4.3,4.32,5.86,2.3,1.66,5.72,1.84,8.34.38,4.22-2.15,5.47-7.79,3.9-10.98,0,0-2.7-5.55-5.28-2.06-2.01,2.62,5.55,6.81.04,10.9Z" fill="#fec87c"/><path d="M297,48.6s-21.42-3.69-43.37,15.45c0,0-9.79,6.86-11.38,3.87-1.59-2.99,4.76-9.43,10.17-10.08,0,0-2.91.07-4.92-3.06,0,0,5.07,1.66,10.02-.31,4.95-1.97,22.21-9.08,39.47-5.86Z" fill="#fec87c"/><path d="M303.93,51s-25.51,1.53-43.37,19.39c0,0-6.1,8.5-8.63,5.31-2.53-3.19,6.44-11.8,14.87-16.61,8.43-4.82,24.38-7.48,37.14-8.09Z" fill="#fec87c"/><path d="M300.83,53.74s-10.12,1.29-17.45,6.28c-7.33,4.99-11.47,7.63-14.41,6.88,0,0,2.79,5.08,10.17,2.54,7.38-2.54,7.67-10.82,21.69-15.71Z" fill="#fec87c"/><path d="M310.89,64.14s-.56,7.73-8.44,11.48c-7.88,3.75-8.96,3.37-10.03,10.41,0,0,1.28-2.32,4.13-2.32s4.73-.14,5.24-2.38c0,0-.61,2.52.61,4.96,0,0,.69-1.84,2.44-3.17,1.74-1.32,8.72-6.88,6.05-18.98Z" fill="#fec87c"/><path d="M327.24,48.6s21.42-3.69,43.37,15.45c0,0,9.79,6.86,11.38,3.87,1.59-2.99-4.76-9.43-10.18-10.08,0,0,2.91.07,4.92-3.06,0,0-5.07,1.66-10.02-.31-4.95-1.97-22.21-9.08-39.47-5.86Z" fill="#fec87c"/><path d="M320.31,51s25.52,1.53,43.37,19.39c0,0,6.1,8.5,8.63,5.31,2.53-3.19-6.44-11.8-14.87-16.61-8.43-4.82-24.38-7.48-37.14-8.09Z" fill="#fec87c"/><path d="M323.41,53.74s10.12,1.29,17.45,6.28c7.33,4.99,11.47,7.63,14.41,6.88,0,0-2.79,5.08-10.17,2.54-7.38-2.54-7.67-10.82-21.69-15.71Z" fill="#fec87c"/><path d="M313.35,64.14s.56,7.73,8.44,11.48c7.88,3.75,8.96,3.37,10.03,10.41,0,0-1.28-2.32-4.13-2.32s-4.74-.14-5.24-2.38c0,0,.61,2.52-.61,4.96,0,0-.7-1.84-2.44-3.17-1.74-1.32-8.72-6.88-6.05-18.98Z" fill="#fec87c"/><path d="M312.12,90.4s3.45-1.74,2.33-4.53c0,0,2.05-.77,3.72,1.53,0,0,.5-2.35-1.78-4.63-2.28-2.28-4.28-5.26-4.28-7.63,0,2.37-2,5.34-4.28,7.63-2.28,2.28-1.78,4.63-1.78,4.63,1.67-2.3,3.72-1.53,3.72-1.53-1.11,2.79,2.33,4.53,2.33,4.53Z" fill="#fec87c"/><path d="M242.03,50.23s-15.36,2.63-30.26-6.7c0,0-6.88-4.21-14.18-3.7,0,0-.65,3.58,3.03,3.25,0,0-1.06,1.83-3.68,0-2.62-1.83-6.72-4.99-14.77-1.83,0,0,1.4.38,2.42,2.42,0,0-4.62.27-8.06,4.19,0,0,1.59,1.19,2.26-.59,0,0,.11.75-1.13,2.47-1.24,1.72-8.56,16.1,2.3,20.87,0,0,6.38,2.71,8.94-2.66,0,0,1.91-3.66-1.97-6.29,0,0,1.79,1.4,1.14,4.63-.89,4.43-9.84,4.41-11.35-2.65-1.51-7.06,3.56-15.79,13.18-17.35,9.62-1.56,16.25.68,19.88,1.93,6.82,2.36,20.63,6.07,32.25,1.99Z" fill="#fec87c"/><path d="M187.14,89.88s24.54,2.38,19.55-30.18c0,0,3.21,4.67,4.13,10.95.92,6.28-.98,11.76,4.32,13.37,0,0-4.27,2.48-6.22-2.36,0,0,1.33,5.88-4.55,10.49,0,0-2.48,2.08-2.48,4.21,0,0-2.19-2.19-.92-5.07,0,0,.53-1.25-.65-1.53-1.18-.28-1.46.78-1.46,1.95s-1.34,4.82-4.93,4.82-7.18-2.78-6.77-6.65Z" fill="#fec87c"/><path d="M143.42,68.7c0,5.86,3.05,11.01,7.65,13.95-3.5-3.04-5.72-7.51-5.72-12.51,0-14.42,21.93-17.41,28.27-28.19,0,0-7.67,9.34-21.45,6,0,0,.49,3.24,4.81,3.78,0,0-2.6,1-4.7,2.31-5.27,2.77-8.87,8.29-8.87,14.66Z" fill="#fec87c"/><path d="M86.32,110.59c-2.25-.85-4.37-2.17-6.18-3.99-6.87-6.87-6.87-18.01,0-24.88,6.87-6.87,18.01-6.87,24.88,0,1.81,1.81,3.13,3.93,3.99,6.18-.03-5.73-2.23-11.44-6.6-15.81-8.81-8.81-23.09-8.81-31.91,0-8.81,8.81-8.81,23.09,0,31.9,4.37,4.37,10.09,6.57,15.81,6.6Z" fill="#fec87c"/><polygon points="121.36 53.26 105.83 67.3 106.58 68.04 107.32 68.79 121.36 53.26" fill="#fec87c"/><polygon points="51.69 53.26 65.72 68.79 66.47 68.04 67.21 67.3 51.69 53.26" fill="#fec87c"/><polygon points="107.46 56.77 101.4 63.94 102.28 64.52 103.16 65.11 107.46 56.77" fill="#fec87c"/><polygon points="104.13 45.59 96.4 61.5 97.38 61.9 98.35 62.3 104.13 45.59" fill="#fec87c"/><polygon points="93.88 51.16 91.02 60.08 92.06 60.28 93.09 60.49 93.88 51.16" fill="#fec87c"/><polygon points="86.53 38.83 85.47 59.74 86.53 59.74 87.58 59.74 86.53 38.83" fill="#fec87c"/><polygon points="79.18 51.16 79.96 60.49 80.99 60.29 82.03 60.08 79.18 51.16" fill="#fec87c"/><polygon points="68.92 45.59 74.7 62.3 75.67 61.9 76.65 61.5 68.92 45.59" fill="#fec87c"/><polygon points="65.59 56.77 69.89 65.11 70.77 64.52 71.65 63.93 65.59 56.77" fill="#fec87c"/><polygon points="51.69 122.93 67.22 108.9 66.47 108.15 65.73 107.4 51.69 122.93" fill="#fec87c"/><polygon points="55.19 67.16 62.36 73.22 62.95 72.34 63.53 71.47 55.19 67.16" fill="#fec87c"/><polygon points="44.01 70.49 59.92 78.22 60.32 77.25 60.73 76.27 44.01 70.49" fill="#fec87c"/><polygon points="49.58 80.75 58.5 83.6 58.71 82.57 58.92 81.53 49.58 80.75" fill="#fec87c"/><polygon points="37.26 88.1 58.16 89.15 58.16 88.1 58.16 87.04 37.26 88.1" fill="#fec87c"/><polygon points="49.58 95.45 58.92 94.67 58.71 93.63 58.5 92.6 49.58 95.45" fill="#fec87c"/><polygon points="44.01 105.71 60.73 99.92 60.32 98.95 59.92 97.98 44.01 105.71" fill="#fec87c"/><polygon points="55.19 109.04 63.53 104.73 62.94 103.86 62.36 102.98 55.19 109.04" fill="#fec87c"/><path d="M86.95,101.66c4.89-4.89,8.24-4.89,13.13,0-4.89-4.89-4.89-8.24,0-13.14-4.89,4.9-8.24,4.9-13.13,0,4.89,4.89,4.89,8.24,0,13.13Z" fill="#fec87c"/><path d="M123.47,123.78l-1.27,1.27c-1.28-1.19-2.89-2.71-4.13-3.94-2.39-2.39-6.71-2.68-8.75-4.72-2.04-2.04-1.76-7.24-1.76-7.24,0,0,5.2-.28,7.25,1.76,2.04,2.04,2.33,6.36,4.72,8.75,1.23,1.23,2.76,2.85,3.94,4.13ZM128.13,122.17c.49.5.49,1.3,0,1.79l-5.75,5.75c-.49.49-1.29.49-1.79,0-.49-.49-.49-1.29,0-1.79l5.75-5.75c.49-.49,1.29-.49,1.79,0ZM125.35,128.01l1.09-1.09c.18.17.36.35.56.55,1.8,1.8,5.05,2.02,6.59,3.56,1.54,1.54-.61,3.52-.61,3.52,0,0-1.98,2.15-3.52.61-1.54-1.54-1.76-4.79-3.56-6.59-.2-.2-.38-.38-.55-.56Z" fill="#fec87c"/><path d="M183.02,79.48s1.31,8.53-9.43,11.55c0,0,5.3,5.17,1.97,12.95,0,0,.2-17.22-14.48-14.88,0,0,3.38-1.74,9.24-2.3,5.86-.56,12.19-1.22,12.7-7.32Z" fill="#fec87c"/><path d="M171.81,99.24c.02-.2,0-.4-.01-.59-.18-1.97-1.63-4.63-4.12-6.29-2.45-1.75-6.11-2.14-9.43-.81-4.45,1.55-7.84,5.48-9.65,9.86-2.02,4.34-2.49,8.99-3.99,12.77-3.16,7.7-9.09,10.06-8.93,9.97-.16.1,5.7-2.45,8.58-10.11,1.36-3.71,1.7-8.44,3.62-12.93,1.69-4.53,5.18-8.9,9.89-10.73,3.53-1.58,7.81-1.49,10.89.39,3.09,1.81,5.08,4.71,5.45,7.65.02.29.06.58.04.88.06,2.21-1.8,5.93-5.18,5.79-1.69.09-2.87-1.71-2.76-2.54-.05-.89.16-1.33.3-1.33.31-.23.5,2.63,2.48,2.21,1.88-.21,2.86-2.77,2.83-4.2Z" fill="#fec87c"/><path d="M133.18,98.51c-.93-3.94,3.46-8.5,9.09-4.29,4.29,3.16,4.38,8.41,4.16,11.76-.31,3.5-1.22,5.77-1.21,5.77-.02,0,.62-2.38.46-5.78-.03-3.22-1.5-8.17-4.59-9.51-4-1.41-1.51,4.22-2.3,5.18-.62,1.01-4.49.97-5.62-3.12Z" fill="#fec87c"/><path d="M153.83,122.53s-.38-5.48-14,.21c0,0,8.79-5.88,8.48-18.27,0,0,5.06,8.42.48,12.29,0,0,5.77.67,5.04,5.76Z" fill="#fec87c"/><path d="M124.11,114.11c-1.25,1.64-1.53,4.2-.44,6.17,1.14,2.07,2.9,3.73,4.78,4.44,3.93,1.38,6.88-.58,6.81-.36.02-.24-2.6,2.07-7.04,1.07-2.15-.55-4.3-2.15-5.86-4.32-1.67-2.3-1.85-5.72-.38-8.34,2.15-4.22,7.79-5.47,10.98-3.89,0,0,5.55,2.69,2.06,5.27-2.62,2.01-6.81-5.55-10.9-.04Z" fill="#fec87c"/><path d="M77.91,184.6s8.53,1.31,11.55-9.43c0,0,5.17,5.3,12.95,1.97,0,0-17.22.2-14.88-14.48,0,0-1.75,3.38-2.3,9.24-.56,5.86-1.21,12.19-7.32,12.7Z" fill="#fec87c"/><path d="M97.66,173.39c-.2.02-.4,0-.59-.02-1.97-.18-4.63-1.63-6.29-4.11-1.75-2.45-2.14-6.11-.81-9.43,1.55-4.45,5.48-7.84,9.86-9.65,4.33-2.02,8.99-2.49,12.77-3.98,7.7-3.17,10.06-9.09,9.98-8.93.1-.15-2.45,5.7-10.11,8.58-3.71,1.36-8.44,1.7-12.93,3.62-4.53,1.69-8.9,5.18-10.73,9.89-1.58,3.53-1.49,7.81.39,10.89,1.82,3.09,4.71,5.08,7.65,5.45.29.03.58.06.88.04,2.21.06,5.93-1.8,5.79-5.18.09-1.69-1.71-2.87-2.54-2.76-.89-.05-1.33.16-1.33.3-.23.31,2.63.5,2.21,2.48-.21,1.88-2.77,2.86-4.2,2.83Z" fill="#fec87c"/><path d="M96.94,134.76c-3.94-.93-8.5,3.46-4.29,9.09,3.16,4.29,8.41,4.38,11.76,4.16,3.5-.31,5.77-1.22,5.77-1.2,0-.02-2.38.61-5.79.45-3.22-.03-8.17-1.5-9.51-4.58-1.42-4,4.22-1.51,5.18-2.3,1.01-.61.98-4.49-3.12-5.62Z" fill="#fec87c"/><path d="M120.95,155.41s-5.48-.38.21-14c0,0-5.89,8.79-18.27,8.48,0,0,8.42,5.06,12.3.48,0,0,.67,5.77,5.76,5.04Z" fill="#fec87c"/><path d="M112.53,125.68c1.64-1.25,4.2-1.53,6.17-.44,2.07,1.14,3.73,2.9,4.43,4.78,1.39,3.93-.57,6.87-.36,6.81-.25.01,2.07-2.6,1.07-7.04-.55-2.14-2.15-4.3-4.32-5.86-2.3-1.66-5.72-1.84-8.34-.38-4.22,2.15-5.48,7.79-3.89,10.98,0,0,2.69,5.55,5.28,2.06,2.01-2.62-5.56-6.81-.04-10.9Z" fill="#fec87c"/><path d="M382.21,50.23s15.35,2.63,30.26-6.7c0,0,6.88-4.21,14.18-3.7,0,0,.65,3.58-3.03,3.25,0,0,1.06,1.83,3.68,0,2.62-1.83,6.72-4.99,14.77-1.83,0,0-1.4.38-2.42,2.42,0,0,4.62.27,8.06,4.19,0,0-1.59,1.19-2.26-.59,0,0-.11.75,1.13,2.47,1.24,1.72,8.56,16.1-2.3,20.87,0,0-6.38,2.71-8.94-2.66,0,0-1.91-3.66,1.97-6.29,0,0-1.79,1.4-1.14,4.63.89,4.43,9.84,4.41,11.35-2.65,1.51-7.06-3.57-15.79-13.18-17.35-9.62-1.56-16.25.68-19.88,1.93-6.82,2.36-20.63,6.07-32.25,1.99Z" fill="#fec87c"/><path d="M437.09,89.88s-24.54,2.38-19.55-30.18c0,0-3.21,4.67-4.13,10.95-.92,6.28.98,11.76-4.32,13.37,0,0,4.27,2.48,6.22-2.36,0,0-1.32,5.88,4.55,10.49,0,0,2.48,2.08,2.48,4.21,0,0,2.19-2.19.92-5.07,0,0-.53-1.25.65-1.53,1.18-.28,1.46.78,1.46,1.95s1.34,4.82,4.93,4.82,7.18-2.78,6.77-6.65Z" fill="#fec87c"/><path d="M480.81,68.7c0,5.86-3.05,11.01-7.65,13.95,3.5-3.04,5.72-7.51,5.72-12.51,0-14.42-21.93-17.41-28.27-28.19,0,0,7.67,9.34,21.45,6,0,0-.49,3.24-4.81,3.78,0,0,2.6,1,4.7,2.31,5.27,2.77,8.86,8.29,8.86,14.66Z" fill="#fec87c"/><path d="M537.92,110.59c2.25-.85,4.37-2.17,6.18-3.99,6.87-6.87,6.87-18.01,0-24.88s-18.01-6.87-24.88,0c-1.81,1.81-3.13,3.93-3.99,6.18.03-5.73,2.23-11.44,6.6-15.81,8.81-8.81,23.09-8.81,31.91,0,8.81,8.81,8.81,23.09,0,31.9-4.37,4.37-10.08,6.57-15.81,6.6Z" fill="#fec87c"/><polygon points="502.88 53.26 518.4 67.3 517.66 68.04 516.91 68.79 502.88 53.26" fill="#fec87c"/><polygon points="572.55 53.26 558.51 68.79 557.77 68.04 557.02 67.3 572.55 53.26" fill="#fec87c"/><polygon points="516.77 56.77 522.83 63.94 521.96 64.52 521.08 65.11 516.77 56.77" fill="#fec87c"/><polygon points="520.11 45.59 527.83 61.5 526.86 61.9 525.89 62.3 520.11 45.59" fill="#fec87c"/><polygon points="530.36 51.16 533.21 60.08 532.18 60.28 531.15 60.49 530.36 51.16" fill="#fec87c"/><polygon points="537.71 38.83 538.77 59.74 537.71 59.74 536.66 59.74 537.71 38.83" fill="#fec87c"/><polygon points="545.06 51.16 544.28 60.49 543.24 60.29 542.21 60.08 545.06 51.16" fill="#fec87c"/><polygon points="555.32 45.59 549.54 62.3 548.56 61.9 547.59 61.5 555.32 45.59" fill="#fec87c"/><polygon points="558.64 56.77 554.34 65.11 553.47 64.52 552.59 63.93 558.64 56.77" fill="#fec87c"/><polygon points="572.55 122.93 557.02 108.9 557.77 108.15 558.51 107.4 572.55 122.93" fill="#fec87c"/><polygon points="569.04 67.16 561.88 73.22 561.29 72.34 560.71 71.47 569.04 67.16" fill="#fec87c"/><polygon points="580.22 70.49 564.31 78.22 563.91 77.25 563.51 76.27 580.22 70.49" fill="#fec87c"/><polygon points="574.66 80.75 565.73 83.6 565.53 82.57 565.32 81.53 574.66 80.75" fill="#fec87c"/><polygon points="586.98 88.1 566.07 89.15 566.07 88.1 566.07 87.04 586.98 88.1" fill="#fec87c"/><polygon points="574.66 95.45 565.32 94.67 565.53 93.63 565.73 92.6 574.66 95.45" fill="#fec87c"/><polygon points="580.22 105.71 563.51 99.92 563.92 98.95 564.31 97.98 580.22 105.71" fill="#fec87c"/><polygon points="569.04 109.04 560.71 104.73 561.29 103.86 561.88 102.98 569.04 109.04" fill="#fec87c"/><path d="M537.29,101.66c-4.89-4.89-8.25-4.89-13.14,0,4.89-4.89,4.9-8.24,0-13.14,4.9,4.9,8.24,4.9,13.14,0-4.89,4.89-4.89,8.24,0,13.13Z" fill="#fec87c"/><path d="M500.76,123.78l1.27,1.27c1.28-1.19,2.89-2.71,4.12-3.94,2.39-2.39,6.71-2.68,8.75-4.72s1.76-7.24,1.76-7.24c0,0-5.2-.28-7.25,1.76-2.04,2.04-2.33,6.36-4.72,8.75-1.23,1.23-2.76,2.85-3.95,4.13ZM496.1,122.17c-.5.5-.5,1.3,0,1.79l5.75,5.75c.49.49,1.29.49,1.79,0,.49-.49.49-1.29,0-1.79l-5.75-5.75c-.49-.49-1.29-.49-1.79,0ZM498.88,128.01l-1.09-1.09c-.17.17-.36.35-.56.55-1.8,1.8-5.05,2.02-6.59,3.56-1.54,1.54.61,3.52.61,3.52,0,0,1.98,2.15,3.52.61,1.54-1.54,1.76-4.79,3.56-6.59.2-.2.38-.38.55-.56Z" fill="#fec87c"/><path d="M441.22,79.48s-1.31,8.53,9.43,11.55c0,0-5.3,5.17-1.97,12.95,0,0-.2-17.22,14.48-14.88,0,0-3.38-1.74-9.24-2.3-5.86-.56-12.19-1.22-12.7-7.32Z" fill="#fec87c"/><path d="M452.43,99.24c-.02-.2,0-.4.01-.59.18-1.97,1.63-4.63,4.11-6.29,2.45-1.75,6.11-2.14,9.43-.81,4.45,1.55,7.84,5.48,9.65,9.86,2.02,4.34,2.49,8.99,3.98,12.77,3.16,7.7,9.09,10.06,8.93,9.97.15.1-5.7-2.45-8.58-10.11-1.36-3.71-1.7-8.44-3.62-12.93-1.68-4.53-5.18-8.9-9.89-10.73-3.53-1.58-7.81-1.49-10.89.39-3.09,1.81-5.08,4.71-5.45,7.65-.03.29-.06.58-.04.88-.06,2.21,1.8,5.93,5.19,5.79,1.69.09,2.87-1.71,2.76-2.54.05-.89-.16-1.33-.3-1.33-.31-.23-.5,2.63-2.49,2.21-1.88-.21-2.86-2.77-2.83-4.2Z" fill="#fec87c"/><path d="M491.06,98.51c.93-3.94-3.46-8.5-9.09-4.29-4.29,3.16-4.38,8.41-4.16,11.76.31,3.5,1.22,5.77,1.2,5.77.02,0-.61-2.38-.45-5.78.03-3.22,1.5-8.17,4.58-9.51,4-1.41,1.51,4.22,2.3,5.18.61,1.01,4.5.97,5.62-3.12Z" fill="#fec87c"/><path d="M470.41,122.53s.38-5.48,14,.21c0,0-8.78-5.88-8.48-18.27,0,0-5.06,8.42-.48,12.29,0,0-5.77.67-5.04,5.76Z" fill="#fec87c"/><path d="M500.13,114.11c1.25,1.64,1.53,4.2.44,6.17-1.14,2.07-2.9,3.73-4.78,4.44-3.93,1.38-6.87-.58-6.81-.36-.02-.24,2.6,2.07,7.04,1.07,2.15-.55,4.3-2.15,5.86-4.32,1.67-2.3,1.85-5.72.38-8.34-2.15-4.22-7.79-5.47-10.98-3.89,0,0-5.55,2.69-2.06,5.27,2.62,2.01,6.81-5.55,10.9-.04Z" fill="#fec87c"/><path d="M546.33,184.6s-8.53,1.31-11.55-9.43c0,0-5.17,5.3-12.96,1.97,0,0,17.22.2,14.88-14.48,0,0,1.75,3.38,2.31,9.24.56,5.86,1.22,12.19,7.32,12.7Z" fill="#fec87c"/><path d="M526.57,173.39c.2.02.4,0,.59-.02,1.97-.18,4.63-1.63,6.29-4.11,1.75-2.45,2.14-6.11.81-9.43-1.55-4.45-5.48-7.84-9.86-9.65-4.33-2.02-8.99-2.49-12.77-3.98-7.7-3.17-10.06-9.09-9.97-8.93-.1-.15,2.45,5.7,10.11,8.58,3.71,1.36,8.44,1.7,12.93,3.62,4.52,1.69,8.9,5.18,10.73,9.89,1.58,3.53,1.49,7.81-.39,10.89-1.82,3.09-4.71,5.08-7.65,5.45-.29.03-.58.06-.88.04-2.21.06-5.93-1.8-5.79-5.18-.09-1.69,1.71-2.87,2.54-2.76.89-.05,1.33.16,1.33.3.23.31-2.62.5-2.21,2.48.21,1.88,2.76,2.86,4.2,2.83Z" fill="#fec87c"/><path d="M527.3,134.76c3.94-.93,8.5,3.46,4.29,9.09-3.16,4.29-8.41,4.38-11.76,4.16-3.5-.31-5.77-1.22-5.77-1.2-.01-.02,2.38.61,5.78.45,3.22-.03,8.17-1.5,9.51-4.58,1.41-4-4.22-1.51-5.18-2.3-1.01-.61-.97-4.49,3.12-5.62Z" fill="#fec87c"/><path d="M503.29,155.41s5.48-.38-.21-14c0,0,5.89,8.79,18.27,8.48,0,0-8.42,5.06-12.3.48,0,0-.67,5.77-5.76,5.04Z" fill="#fec87c"/><path d="M511.7,125.68c-1.63-1.25-4.2-1.53-6.17-.44-2.07,1.14-3.73,2.9-4.44,4.78-1.39,3.93.57,6.87.36,6.81.25.01-2.07-2.6-1.07-7.04.55-2.14,2.15-4.3,4.32-5.86,2.3-1.66,5.72-1.84,8.34-.38,4.22,2.15,5.47,7.79,3.9,10.98,0,0-2.7,5.55-5.28,2.06-2.01-2.62,5.55-6.81.04-10.9Z" fill="#fec87c"/><path d="M555.43,472.64v-1.58c1.44,0,2.96.2,4.49.66,5.94,1.76,9.78,6.46,8.58,10.49-1.2,4.03-6.98,5.87-12.91,4.11-.03-.01-.06-.02-.09-.03,3.45-.19,6.23-1.78,6.99-4.34,1.04-3.5-2.09-7.54-7.07-9.31Z" fill="#fec87c"/><path d="M553.08,472.01c-1.77,1.05-3.12,2.72-3.73,4.73,1.04.31,1.81,1.28,1.81,2.43,0,1.4-1.14,2.54-2.54,2.54s-2.54-1.14-2.54-2.54c0-4.15,3.04-7.59,7.01-8.23v1.07Z" fill="#fec87c"/><path d="M555.32,467.29v-1.63s9.5-4.06,15.6-4.06,13.09,4.2,14.58,5.69c-1.49,1.49-8.48,5.7-14.58,5.7s-15.6-4.07-15.6-4.07v-1.63Z" fill="#fec87c"/><path d="M553.08,465.82v2.96s-3.32-.65-7.38,3.42c0,0-3.92-.95-3.92-4.9s3.92-4.9,3.92-4.9c4.07,4.06,7.38,3.42,7.38,3.42Z" fill="#fec87c"/><path d="M568.51,452.38c1.2,4.03-2.65,8.73-8.58,10.49-1.54.45-3.06.66-4.49.66v-1.58c4.97-1.77,8.11-5.81,7.07-9.31-.76-2.56-3.55-4.15-6.99-4.34.03,0,.06-.02.09-.03,5.93-1.76,11.71.08,12.91,4.11Z" fill="#fec87c"/><path d="M551.16,455.43c0,1.15-.77,2.11-1.81,2.43.61,2.01,1.96,3.68,3.73,4.73v1.08c-3.97-.64-7.01-4.08-7.01-8.23,0-1.4,1.14-2.54,2.54-2.54s2.54,1.14,2.54,2.54Z" fill="#fec87c"/><path d="M530.02,426.03c2.46-7.9,6.91-14.62,10.82-20.89,3.87-6.32,6.87-12.71,8.27-18.95,3.12-12.64-1.85-23.42-6.95-28.06,5.31,4.38,10.7,15.28,7.69,28.22-1.34,6.37-4.32,12.9-8.18,19.29-3.91,6.35-8.24,12.96-10.65,20.7-1.17,3.83-1.81,7.82-1.15,11.57.45,3.85,3.37,6.68,6.72,7.98,6.87,2.84,14.49-.48,17.84-5.8,6.71-11.02,4.91-22.85,2.31-29.02,2.87,6.08,5.08,17.95-1.68,29.45-3.39,5.59-11.48,9.27-18.83,6.28-3.56-1.29-6.9-4.54-7.38-8.69-.72-4.01-.04-8.14,1.16-12.07Z" fill="#fec87c"/><path d="M543.6,447.29s6.73.39,15.54-3.5c8.81-3.88,14.22-4.74,16.05.22,0,0,1.64-9.03-9.63-9.4,0,0,3.14-2.91,3.14-7.76s-3.88-10.37-3.88-16.87c0,0-.79,38.54-21.21,37.3Z" fill="#fec87c"/><path d="M570.53,408.03c.03-.92.42-2.25-.78-2.92-4.15-2.2-4.93,5.38-4.94,5.37.02,0-.84-4.17,1.59-6.34,1.11-.87,2.6-1,3.95-.68,2.42.57,3.47,3.29,3.42,4.57v.21c.03,1.12-.54,2.98-1.44,2.71-2.14-.55-1.8-2.92-1.8-2.92Z" fill="#fec87c"/><path d="M574.47,399.22c1.61-.28,4.24-.67,4.79-3.22.29-1.56.03-3.59-1.14-4.8-1.16-1.26-2.97-1.77-4.5-1.87-3.12-.21-5.31.48-5.29.45,0,.04,2.08-.86,5.31-.97,1.59-.04,3.6.23,5.23,1.62,1.64,1.42,2.24,3.7,2.13,5.82-.19,3.73-3.89,5.8-5.85,6.14,0,0-4.32.97-4.94-.69-.67-2.06,4.27-2.48,4.27-2.48Z" fill="#fec87c"/><path d="M540.65,410.41s9.56-1.59,13.95,3.54c4.39,5.13,4.96,14.9,3.03,20.39,0,0,3.54-6.26,2.79-16.26-.76-10-3.43-23.72,8.54-28.49,0,0-7.61-.29-11.8,9.94,0,0-2.44-3.95-8.08-3.02,0,0-.87,5.52,2.5,8.9,0,0-7.85-1.98-10.93,5Z" fill="#fec87c"/><path d="M529.73,465.35s6.68-2.84,6.68-7.23-5.17-10.29-7.01-14.3c-1.84-4.01-3.51-12.12,2.2-20.72,0,0-4.37,10.76,1.36,18.27,0,0,3.95,5.06,7.29,1.72,0,0,1.89-1.83,0-6.17-1.89-4.34-3.17-12.19,4.95-13.58,0,0-3,3.73-3,6.45s5.62,8.62,3.23,14.36c0,0-2.23,4.45-7.74,3.78,0,0,3.73,4,3.73,8.9s-3.12,8.96-11.69,8.51Z" fill="#fec87c"/><path d="M537.24,374.36s-.36-2.19-2.47-3.15c-2.11-.96-3.59-4.43-1.64-7.1,1.96-2.67,8.37-3.31,12.36,2.99,3.99,6.3,2.38,10.56,2.38,10.56,0,0,.74-6.17-4.34-10.8,0,0-3.19-2.95-6.18-.32,0,0-1.39,1.28-.4,2.79,1,1.51,1.56,2.95.28,5.02Z" fill="#fec87c"/><path d="M577.37,330.77s.17-5.3-2.65-12.99c-2.81-7.69-5.79-16.05,1.57-20.35,0,0-11.5,3.48-8.85,18.78,0,0-9.68-3.56-17.46,5.3,0,0,21.51-10.59,27.39,9.27ZM548.58,383.73s0,0,0-.06c0,.06,0,.08,0,.06ZM556.13,366.87c1.64-1.67,3.62-3.23,5.7-4.85,1.01-.58,2.21-1.2,3.6-1.78,4.06-1.89,11.17-3.02,14.7.05,4.18,4.18-4.4,4.42-5.12,6-.9,1.38,1.47,6.23,7.29,5.19,5.51-1.2,8.6-9.45-.06-14-6.14-3.28-12.38-.8-16.49,1.4,1.54-1.31,3.07-2.72,4.46-4.31,4.68-4.84,8.08-11.85,7.55-18.88-.13-5.38-2.82-10.71-7.03-13.44-4.13-2.79-8.96-3.56-12.89-2.26-.38.14-.77.28-1.13.49-2.81,1.25-6.37,5.82-4.16,9.99.9,2.18,3.87,2.58,4.85,1.95,1.15-.46,1.58-1,1.49-1.17.1-.53-3.6.95-4.27-1.79-.87-2.49,1.76-5.26,3.58-6.08.24-.14.5-.23.76-.34,2.59-.95,6.8-.73,10.37,1.4,3.66,2.03,6.36,6.39,6.68,11.37.72,6.52-2.17,13.14-6.59,18.05-4.24,5.14-9.8,8.52-13.66,12.67-7.28,8.05-7.23,16.33-7.18,17.15-.03-.82.17-9.09,7.56-16.79ZM565.74,356.04s-13.62-1.3-15.74,6.78c0,0-4.31-6.84-10.27-2.87,0,0,7.12-2.8,8.14,17.72,0,0,2.12-14.58,17.86-21.62ZM571.12,394.12c4.02-5.23,2.2-13.07-1.7-16.13,0,0-6.72-5.36-7.87.58-.96,4.5,11.07,5.23,6.6,13.68-1.31,2.56-4.36,4.44-7.49,4.26-3.28-.19-6.42-1.4-8.44-3.34-3.71-3.71-3.5-8.05-3.59-8.7.05.64-.72,4.9,2.84,9.41,1.98,2.37,5.28,4.12,8.95,4.77,3.89.72,8.3-1.11,10.71-4.52Z" fill="#fec87c"/><path d="M530.02,508.56c2.46,7.9,6.91,14.62,10.82,20.89,3.87,6.31,6.87,12.7,8.27,18.95,3.12,12.64-1.85,23.42-6.95,28.06,5.31-4.38,10.7-15.28,7.69-28.22-1.34-6.37-4.32-12.9-8.18-19.29-3.91-6.35-8.24-12.96-10.65-20.69-1.17-3.83-1.81-7.82-1.15-11.57.45-3.86,3.37-6.68,6.72-7.98,6.87-2.84,14.49.48,17.84,5.8,6.71,11.02,4.91,22.84,2.31,29.02,2.87-6.08,5.08-17.95-1.68-29.45-3.39-5.59-11.48-9.27-18.83-6.27-3.56,1.29-6.9,4.54-7.38,8.69-.72,4.01-.04,8.15,1.16,12.07Z" fill="#fec87c"/><path d="M543.6,487.3s6.73-.38,15.54,3.5c8.81,3.88,14.22,4.74,16.05-.22,0,0,1.64,9.03-9.63,9.4,0,0,3.14,2.91,3.14,7.76s-3.88,10.37-3.88,16.87c0,0-.79-38.54-21.21-37.31Z" fill="#fec87c"/><path d="M570.53,526.56c.03.91.42,2.25-.78,2.91-4.15,2.2-4.93-5.38-4.94-5.37.02,0-.84,4.17,1.59,6.34,1.11.87,2.6,1,3.95.67,2.42-.56,3.47-3.29,3.42-4.56v-.21c.03-1.12-.54-2.98-1.44-2.71-2.14.55-1.8,2.92-1.8,2.92Z" fill="#fec87c"/><path d="M574.47,535.37c1.61.28,4.24.66,4.79,3.22.29,1.56.03,3.59-1.14,4.8-1.16,1.26-2.97,1.77-4.5,1.87-3.12.21-5.31-.48-5.29-.45,0-.03,2.08.86,5.31.97,1.59.04,3.6-.23,5.23-1.62,1.64-1.42,2.24-3.7,2.13-5.82-.19-3.73-3.89-5.8-5.85-6.14,0,0-4.32-.97-4.94.7-.67,2.05,4.27,2.48,4.27,2.48Z" fill="#fec87c"/><path d="M540.65,524.18s9.56,1.59,13.95-3.54c4.39-5.13,4.96-14.9,3.03-20.39,0,0,3.54,6.26,2.79,16.26-.76,10-3.43,23.72,8.54,28.49,0,0-7.61.29-11.8-9.94,0,0-2.44,3.95-8.08,3.02,0,0-.87-5.52,2.5-8.9,0,0-7.85,1.98-10.93-5Z" fill="#fec87c"/><path d="M529.73,469.24s6.68,2.84,6.68,7.23-5.17,10.29-7.01,14.3c-1.84,4-3.51,12.12,2.2,20.72,0,0-4.37-10.76,1.36-18.28,0,0,3.95-5.06,7.29-1.72,0,0,1.89,1.84,0,6.17-1.89,4.34-3.17,12.19,4.95,13.58,0,0-3-3.73-3-6.45s5.62-8.62,3.23-14.36c0,0-2.23-4.45-7.74-3.78,0,0,3.73-4,3.73-8.9s-3.12-8.96-11.69-8.51Z" fill="#fec87c"/><path d="M537.24,560.23s-.36,2.19-2.47,3.15c-2.11.96-3.59,4.43-1.64,7.1,1.96,2.67,8.37,3.31,12.36-2.99,3.99-6.3,2.38-10.57,2.38-10.57,0,0,.74,6.17-4.34,10.81,0,0-3.19,2.95-6.18.32,0,0-1.39-1.28-.4-2.79,1-1.52,1.56-2.95.28-5.03Z" fill="#fec87c"/><path d="M577.37,603.82s.17,5.29-2.65,12.99c-2.81,7.7-5.79,16.05,1.57,20.35,0,0-11.5-3.47-8.85-18.78,0,0-9.68,3.56-17.46-5.3,0,0,21.51,10.59,27.39-9.27ZM548.58,550.87s0,0,0,.06c0-.06,0-.08,0-.06ZM556.13,567.72c1.64,1.67,3.62,3.22,5.7,4.85,1.01.58,2.21,1.2,3.6,1.78,4.06,1.89,11.17,3.02,14.7-.05,4.18-4.18-4.4-4.42-5.12-6-.9-1.38,1.47-6.23,7.29-5.19,5.51,1.2,8.6,9.45-.06,14-6.14,3.28-12.38.81-16.49-1.4,1.54,1.31,3.07,2.72,4.46,4.31,4.68,4.84,8.08,11.85,7.55,18.87-.13,5.38-2.82,10.71-7.03,13.45-4.13,2.79-8.96,3.56-12.89,2.25-.38-.14-.77-.27-1.13-.48-2.81-1.26-6.37-5.83-4.16-9.99.9-2.18,3.87-2.58,4.85-1.95,1.15.47,1.58,1,1.49,1.17.1.53-3.6-.95-4.27,1.79-.87,2.49,1.76,5.26,3.58,6.08.24.14.5.23.76.34,2.59.96,6.8.73,10.37-1.39,3.66-2.03,6.36-6.39,6.68-11.37.72-6.51-2.17-13.14-6.59-18.05-4.24-5.14-9.8-8.52-13.66-12.67-7.28-8.05-7.23-16.33-7.18-17.15-.03.82.17,9.09,7.56,16.79ZM565.74,578.55s-13.62,1.3-15.74-6.77c0,0-4.31,6.84-10.27,2.87,0,0,7.12,2.8,8.14-17.72,0,0,2.12,14.58,17.86,21.62ZM571.12,540.47c4.02,5.23,2.2,13.07-1.7,16.13,0,0-6.72,5.36-7.87-.58-.96-4.5,11.07-5.22,6.6-13.68-1.31-2.55-4.36-4.44-7.49-4.26-3.28.19-6.42,1.4-8.44,3.34-3.71,3.71-3.5,8.05-3.59,8.7.05-.64-.72-4.9,2.84-9.42,1.98-2.37,5.28-4.12,8.95-4.77,3.89-.72,8.3,1.12,10.71,4.52Z" fill="#fec87c"/><path d="M534.79,682.21l-1.22,1.22c1.13,1.22,2.59,2.77,3.77,3.95,2.28,2.28,2.56,6.41,4.51,8.36,1.95,1.95,6.93,1.69,6.93,1.69,0,0,.27-4.97-1.69-6.93-1.95-1.95-6.08-2.23-8.36-4.51-1.18-1.18-2.73-2.63-3.94-3.77ZM536.32,677.75c-.47-.47-1.24-.47-1.71,0l-5.49,5.5c-.47.47-.47,1.24,0,1.71.47.47,1.24.47,1.71,0l5.5-5.5c.47-.47.47-1.24,0-1.71ZM530.74,680.41l1.04-1.04c-.16-.17-.33-.34-.52-.53-1.72-1.72-1.93-4.83-3.4-6.3-1.47-1.47-3.36.58-3.36.58,0,0-2.06,1.89-.58,3.37,1.47,1.47,4.58,1.68,6.3,3.4.19.19.37.36.53.52Z" fill="#fec87c"/><path d="M577.13,625.29s-8.15-1.25-11.04,9.01c0,0-4.94-5.07-12.38-1.89,0,0,16.46-.19,14.22,13.84,0,0,1.67-3.23,2.2-8.83.54-5.6,1.16-11.66,7-12.14Z" fill="#fec87c"/><path d="M558.24,636c.19-.02.38,0,.57.01,1.89.17,4.43,1.56,6.01,3.93,1.67,2.34,2.05,5.84.78,9.02-1.48,4.25-5.24,7.5-9.43,9.23-4.14,1.93-8.59,2.38-12.21,3.81-7.36,3.03-9.62,8.69-9.53,8.54-.09.15,2.34-5.45,9.67-8.2,3.55-1.3,8.06-1.62,12.36-3.46,4.33-1.61,8.51-4.95,10.26-9.46,1.51-3.37,1.42-7.47-.38-10.41-1.73-2.95-4.5-4.85-7.31-5.21-.28-.02-.56-.06-.85-.03-2.11-.06-5.67,1.72-5.53,4.96-.09,1.62,1.64,2.75,2.42,2.64.85.05,1.27-.15,1.27-.28.22-.3-2.51-.48-2.11-2.37.2-1.8,2.65-2.74,4.02-2.7Z" fill="#fec87c"/><path d="M558.94,672.93c3.77.89,8.12-3.3,4.1-8.69-3.02-4.1-8.04-4.18-11.24-3.98-3.34.29-5.52,1.17-5.51,1.15-.01.02,2.28-.59,5.53-.43,3.07.03,7.81,1.44,9.09,4.38,1.35,3.82-4.03,1.44-4.95,2.2-.96.59-.93,4.29,2.98,5.37Z" fill="#fec87c"/><path d="M535.98,653.19s5.24.36-.2,13.39c0,0,5.62-8.4,17.46-8.11,0,0-8.05-4.83-11.75-.46,0,0-.64-5.51-5.51-4.81Z" fill="#fec87c"/><path d="M544.03,681.6c-1.56,1.2-4.01,1.46-5.9.42-1.98-1.09-3.56-2.77-4.24-4.57-1.32-3.75.55-6.57.34-6.51.23-.02-1.98,2.48-1.02,6.73.53,2.05,2.05,4.11,4.13,5.6,2.19,1.59,5.47,1.76,7.97.37,4.04-2.05,5.23-7.45,3.72-10.49,0,0-2.58-5.31-5.04-1.97-1.92,2.5,5.31,6.51.04,10.42Z" fill="#fec87c"/><path d="M476.65,725.76s-1.25-8.15,9.02-11.04c0,0-5.07-4.94-1.89-12.38,0,0-.19,16.46,13.84,14.22,0,0-3.23,1.67-8.83,2.2-5.6.53-11.65,1.16-12.14,7Z" fill="#fec87c"/><path d="M487.37,706.88c-.02.19,0,.38.01.57.17,1.89,1.56,4.43,3.93,6.01,2.34,1.67,5.84,2.05,9.02.78,4.25-1.48,7.5-5.24,9.22-9.43,1.93-4.14,2.38-8.59,3.81-12.21,3.02-7.36,8.69-9.62,8.54-9.54.15-.09-5.45,2.34-8.21,9.67-1.3,3.55-1.62,8.06-3.46,12.36-1.61,4.33-4.95,8.51-9.46,10.26-3.37,1.51-7.47,1.42-10.41-.38-2.95-1.73-4.85-4.5-5.21-7.31-.02-.28-.06-.56-.03-.84-.06-2.11,1.72-5.67,4.96-5.54,1.62-.09,2.74,1.64,2.64,2.43.05.85-.15,1.27-.28,1.27-.3.22-.48-2.51-2.37-2.12-1.8.2-2.74,2.65-2.7,4.02Z" fill="#fec87c"/><path d="M524.29,707.57c.89,3.77-3.31,8.12-8.69,4.1-4.1-3.02-4.19-8.04-3.98-11.24.29-3.34,1.17-5.52,1.15-5.52.02,0-.59,2.28-.44,5.53.03,3.07,1.44,7.81,4.38,9.09,3.82,1.35,1.44-4.03,2.2-4.95.59-.96,4.29-.93,5.37,2.98Z" fill="#fec87c"/><path d="M504.55,684.62s.37,5.24,13.39-.2c0,0-8.4,5.63-8.11,17.46,0,0-4.84-8.05-.46-11.75,0,0-5.51-.64-4.81-5.51Z" fill="#fec87c"/><path d="M532.97,692.66c1.2-1.57,1.46-4.01.42-5.9-1.09-1.98-2.77-3.56-4.57-4.24-3.76-1.33-6.57.55-6.51.34-.02.23,2.49-1.98,6.73-1.02,2.05.53,4.12,2.05,5.6,4.13,1.59,2.19,1.77,5.47.37,7.97-2.05,4.04-7.44,5.23-10.5,3.72,0,0-5.31-2.58-1.97-5.04,2.5-1.92,6.51,5.31,10.42.04Z" fill="#fec87c"/><path d="M534.79,252.38l-1.22-1.22c1.13-1.22,2.59-2.76,3.77-3.94,2.28-2.29,2.56-6.41,4.51-8.36,1.95-1.96,6.93-1.69,6.93-1.69,0,0,.27,4.97-1.69,6.93-1.95,1.95-6.08,2.23-8.36,4.51-1.18,1.18-2.73,2.64-3.94,3.77ZM536.32,256.83c-.47.47-1.24.47-1.71,0l-5.49-5.5c-.47-.47-.47-1.24,0-1.71.47-.47,1.24-.47,1.71,0l5.5,5.5c.47.47.47,1.24,0,1.71ZM530.74,254.17l1.04,1.04c-.16.17-.33.34-.52.53-1.72,1.72-1.93,4.83-3.4,6.3-1.47,1.47-3.36-.58-3.36-.58,0,0-2.06-1.89-.58-3.36,1.47-1.47,4.58-1.68,6.3-3.4.19-.19.37-.36.53-.52Z" fill="#fec87c"/><path d="M577.13,309.3s-8.15,1.25-11.04-9.01c0,0-4.94,5.07-12.38,1.89,0,0,16.46.19,14.22-13.84,0,0,1.67,3.23,2.2,8.83.54,5.6,1.16,11.66,7,12.14Z" fill="#fec87c"/><path d="M558.24,298.58c.19.02.38,0,.57-.01,1.89-.18,4.43-1.56,6.01-3.93,1.67-2.34,2.05-5.84.78-9.02-1.48-4.25-5.24-7.5-9.43-9.23-4.14-1.93-8.59-2.38-12.21-3.81-7.36-3.02-9.62-8.69-9.53-8.54-.09-.15,2.34,5.45,9.67,8.21,3.55,1.3,8.06,1.62,12.36,3.46,4.33,1.61,8.51,4.95,10.26,9.46,1.51,3.37,1.42,7.46-.38,10.41-1.73,2.95-4.5,4.86-7.31,5.21-.28.02-.56.06-.85.03-2.11.05-5.67-1.72-5.53-4.96-.09-1.62,1.64-2.75,2.42-2.64.85-.05,1.27.15,1.27.28.22.3-2.51.48-2.11,2.38.2,1.8,2.65,2.73,4.02,2.7Z" fill="#fec87c"/><path d="M558.94,261.66c3.77-.89,8.12,3.3,4.1,8.69-3.02,4.1-8.04,4.19-11.24,3.98-3.34-.3-5.52-1.17-5.51-1.15-.01-.02,2.28.59,5.53.43,3.07-.03,7.81-1.43,9.09-4.38,1.35-3.83-4.03-1.44-4.95-2.2-.96-.59-.93-4.29,2.98-5.37Z" fill="#fec87c"/><path d="M535.98,281.4s5.24-.37-.2-13.39c0,0,5.62,8.4,17.46,8.11,0,0-8.05,4.83-11.75.46,0,0-.64,5.51-5.51,4.82Z" fill="#fec87c"/><path d="M544.03,252.98c-1.56-1.2-4.01-1.46-5.9-.42-1.98,1.09-3.56,2.77-4.24,4.56-1.32,3.76.55,6.57.34,6.51.23.02-1.98-2.49-1.02-6.73.53-2.05,2.05-4.11,4.13-5.6,2.19-1.59,5.47-1.76,7.97-.37,4.04,2.05,5.23,7.45,3.72,10.49,0,0-2.58,5.31-5.04,1.97-1.92-2.5,5.31-6.51.04-10.42Z" fill="#fec87c"/><path d="M476.65,208.82s-1.25,8.15,9.02,11.04c0,0-5.07,4.95-1.89,12.38,0,0-.19-16.46,13.84-14.22,0,0-3.23-1.67-8.83-2.2-5.6-.54-11.65-1.16-12.14-7Z" fill="#fec87c"/><path d="M487.37,227.71c-.02-.19,0-.38.01-.57.17-1.88,1.56-4.43,3.93-6.01,2.34-1.67,5.84-2.05,9.02-.78,4.25,1.48,7.5,5.24,9.22,9.43,1.93,4.15,2.38,8.59,3.81,12.21,3.02,7.36,8.69,9.62,8.54,9.54.15.09-5.45-2.34-8.21-9.67-1.3-3.55-1.62-8.06-3.46-12.36-1.61-4.33-4.95-8.51-9.46-10.26-3.37-1.51-7.47-1.42-10.41.38-2.95,1.73-4.85,4.5-5.21,7.31-.02.28-.06.56-.03.84-.06,2.11,1.72,5.67,4.96,5.54,1.62.08,2.74-1.64,2.64-2.43.05-.85-.15-1.27-.28-1.27-.3-.22-.48,2.51-2.37,2.12-1.8-.2-2.74-2.65-2.7-4.02Z" fill="#fec87c"/><path d="M524.29,227.01c.89-3.77-3.31-8.12-8.69-4.1-4.1,3.02-4.19,8.04-3.98,11.24.29,3.35,1.17,5.52,1.15,5.52.02,0-.59-2.28-.44-5.53.03-3.07,1.44-7.81,4.38-9.09,3.82-1.35,1.44,4.03,2.2,4.95.59.96,4.29.93,5.37-2.98Z" fill="#fec87c"/><path d="M504.55,249.96s.37-5.24,13.39.2c0,0-8.4-5.63-8.11-17.46,0,0-4.84,8.05-.46,11.75,0,0-5.51.64-4.81,5.51Z" fill="#fec87c"/><path d="M532.97,241.92c1.2,1.56,1.46,4.01.42,5.9-1.09,1.98-2.77,3.56-4.57,4.24-3.76,1.33-6.57-.55-6.51-.34-.02-.23,2.49,1.98,6.73,1.02,2.05-.53,4.12-2.05,5.6-4.13,1.59-2.2,1.77-5.47.37-7.97-2.05-4.04-7.44-5.23-10.5-3.72,0,0-5.31,2.57-1.97,5.04,2.5,1.92,6.51-5.31,10.42-.04Z" fill="#fec87c"/><path d="M68.8,472.64v-1.58c-1.44,0-2.96.2-4.49.66-5.94,1.76-9.78,6.46-8.58,10.49,1.2,4.03,6.98,5.87,12.91,4.11.03-.01.06-.02.09-.03-3.45-.19-6.23-1.78-6.99-4.34-1.04-3.5,2.09-7.54,7.07-9.31Z" fill="#fec87c"/><path d="M71.16,472.01c1.77,1.05,3.12,2.72,3.73,4.73-1.05.31-1.81,1.28-1.81,2.43,0,1.4,1.14,2.54,2.54,2.54s2.54-1.14,2.54-2.54c0-4.15-3.03-7.59-7-8.23v1.07Z" fill="#fec87c"/><path d="M68.91,467.29v-1.63s-9.5-4.06-15.6-4.06-13.09,4.2-14.58,5.69c1.49,1.49,8.48,5.7,14.58,5.7s15.6-4.07,15.6-4.07v-1.63Z" fill="#fec87c"/><path d="M71.16,465.82v2.96s3.32-.65,7.38,3.42c0,0,3.92-.95,3.92-4.9s-3.92-4.9-3.92-4.9c-4.06,4.06-7.38,3.42-7.38,3.42Z" fill="#fec87c"/><path d="M55.73,452.38c-1.2,4.03,2.65,8.73,8.58,10.49,1.54.45,3.06.66,4.49.66v-1.58c-4.97-1.77-8.1-5.81-7.07-9.31.76-2.56,3.55-4.15,6.99-4.34-.03,0-.06-.02-.09-.03-5.93-1.76-11.72.08-12.91,4.11Z" fill="#fec87c"/><path d="M73.08,455.43c0,1.15.77,2.11,1.81,2.43-.61,2.01-1.96,3.68-3.73,4.73v1.08c3.97-.64,7-4.08,7-8.23,0-1.4-1.14-2.54-2.54-2.54s-2.54,1.14-2.54,2.54Z" fill="#fec87c"/><path d="M94.22,426.03c-2.46-7.9-6.91-14.62-10.81-20.89-3.87-6.32-6.87-12.71-8.27-18.95-3.12-12.64,1.85-23.42,6.95-28.06-5.31,4.38-10.7,15.28-7.69,28.22,1.34,6.37,4.32,12.9,8.18,19.29,3.91,6.35,8.24,12.96,10.65,20.7,1.17,3.83,1.81,7.82,1.15,11.57-.45,3.85-3.37,6.68-6.72,7.98-6.87,2.84-14.49-.48-17.85-5.8-6.71-11.02-4.91-22.85-2.31-29.02-2.87,6.08-5.08,17.95,1.68,29.45,3.39,5.59,11.48,9.27,18.83,6.28,3.56-1.29,6.9-4.54,7.38-8.69.72-4.01.04-8.14-1.16-12.07Z" fill="#fec87c"/><path d="M80.63,447.29s-6.73.39-15.54-3.5c-8.81-3.88-14.22-4.74-16.05.22,0,0-1.64-9.03,9.63-9.4,0,0-3.14-2.91-3.14-7.76s3.88-10.37,3.88-16.87c0,0,.79,38.54,21.21,37.3Z" fill="#fec87c"/><path d="M53.7,408.03c-.03-.92-.42-2.25.78-2.92,4.15-2.2,4.93,5.38,4.94,5.37-.02,0,.84-4.17-1.59-6.34-1.11-.87-2.59-1-3.95-.68-2.43.57-3.47,3.29-3.42,4.57v.21c-.03,1.12.54,2.98,1.44,2.71,2.14-.55,1.8-2.92,1.8-2.92Z" fill="#fec87c"/><path d="M49.77,399.22c-1.61-.28-4.24-.67-4.79-3.22-.3-1.56-.03-3.59,1.14-4.8,1.16-1.26,2.96-1.77,4.5-1.87,3.12-.21,5.31.48,5.29.45,0,.04-2.08-.86-5.31-.97-1.58-.04-3.6.23-5.23,1.62-1.63,1.42-2.24,3.7-2.13,5.82.19,3.73,3.89,5.8,5.85,6.14,0,0,4.32.97,4.95-.69.67-2.06-4.27-2.48-4.27-2.48Z" fill="#fec87c"/><path d="M83.59,410.41s-9.56-1.59-13.95,3.54c-4.39,5.13-4.95,14.9-3.03,20.39,0,0-3.54-6.26-2.79-16.26.76-10,3.43-23.72-8.54-28.49,0,0,7.62-.29,11.8,9.94,0,0,2.44-3.95,8.08-3.02,0,0,.87,5.52-2.5,8.9,0,0,7.85-1.98,10.93,5Z" fill="#fec87c"/><path d="M94.5,465.35s-6.68-2.84-6.68-7.23,5.17-10.29,7.01-14.3c1.84-4.01,3.5-12.12-2.2-20.72,0,0,4.37,10.76-1.36,18.27,0,0-3.95,5.06-7.29,1.72,0,0-1.89-1.83,0-6.17,1.89-4.34,3.17-12.19-4.95-13.58,0,0,3,3.73,3,6.45s-5.62,8.62-3.23,14.36c0,0,2.22,4.45,7.73,3.78,0,0-3.73,4-3.73,8.9s3.12,8.96,11.69,8.51Z" fill="#fec87c"/><path d="M87,374.36s.36-2.19,2.47-3.15c2.11-.96,3.59-4.43,1.64-7.1s-8.38-3.31-12.36,2.99c-3.99,6.3-2.38,10.56-2.38,10.56,0,0-.74-6.17,4.34-10.8,0,0,3.19-2.95,6.18-.32,0,0,1.39,1.28.4,2.79-1,1.51-1.56,2.95-.28,5.02Z" fill="#fec87c"/><path d="M46.86,330.77s-.16-5.3,2.65-12.99c2.81-7.69,5.79-16.05-1.57-20.35,0,0,11.5,3.48,8.85,18.78,0,0,9.68-3.56,17.46,5.3,0,0-21.51-10.59-27.39,9.27ZM75.66,383.73s0,0,0-.06c0,.06,0,.08,0,.06ZM68.1,366.87c-1.64-1.67-3.62-3.23-5.7-4.85-1.01-.58-2.21-1.2-3.6-1.78-4.06-1.89-11.17-3.02-14.7.05-4.18,4.18,4.4,4.42,5.12,6,.89,1.38-1.47,6.23-7.3,5.19-5.51-1.2-8.6-9.45.06-14,6.14-3.28,12.37-.8,16.49,1.4-1.55-1.31-3.07-2.72-4.46-4.31-4.68-4.84-8.08-11.85-7.55-18.88.13-5.38,2.82-10.71,7.03-13.44,4.13-2.79,8.96-3.56,12.89-2.26.38.14.77.28,1.13.49,2.81,1.25,6.37,5.82,4.16,9.99-.9,2.18-3.88,2.58-4.85,1.95-1.15-.46-1.58-1-1.49-1.17-.1-.53,3.6.95,4.27-1.79.87-2.49-1.76-5.26-3.58-6.08-.24-.14-.5-.23-.75-.34-2.59-.95-6.8-.73-10.37,1.4-3.66,2.03-6.36,6.39-6.68,11.37-.72,6.52,2.17,13.14,6.59,18.05,4.23,5.14,9.8,8.52,13.66,12.67,7.28,8.05,7.23,16.33,7.18,17.15.03-.82-.17-9.09-7.56-16.79ZM58.5,356.04s13.62-1.3,15.74,6.78c0,0,4.31-6.84,10.26-2.87,0,0-7.12-2.8-8.14,17.72,0,0-2.12-14.58-17.86-21.62ZM53.12,394.12c-4.02-5.23-2.2-13.07,1.7-16.13,0,0,6.72-5.36,7.87.58.95,4.5-11.07,5.23-6.6,13.68,1.31,2.56,4.36,4.44,7.49,4.26,3.28-.19,6.43-1.4,8.44-3.34,3.71-3.71,3.5-8.05,3.59-8.7-.05.64.72,4.9-2.84,9.41-1.98,2.37-5.28,4.12-8.95,4.77-3.89.72-8.3-1.11-10.71-4.52Z" fill="#fec87c"/><path d="M94.22,508.56c-2.46,7.9-6.91,14.62-10.81,20.89-3.87,6.31-6.87,12.7-8.27,18.95-3.12,12.64,1.85,23.42,6.95,28.06-5.31-4.38-10.7-15.28-7.69-28.22,1.34-6.37,4.32-12.9,8.18-19.29,3.91-6.35,8.24-12.96,10.65-20.69,1.17-3.83,1.81-7.82,1.15-11.57-.45-3.86-3.37-6.68-6.72-7.98-6.87-2.84-14.49.48-17.85,5.8-6.71,11.02-4.91,22.84-2.31,29.02-2.87-6.08-5.08-17.95,1.68-29.45,3.39-5.59,11.48-9.27,18.83-6.27,3.56,1.29,6.9,4.54,7.38,8.69.72,4.01.04,8.15-1.16,12.07Z" fill="#fec87c"/><path d="M80.63,487.3s-6.73-.38-15.54,3.5c-8.81,3.88-14.22,4.74-16.05-.22,0,0-1.64,9.03,9.63,9.4,0,0-3.14,2.91-3.14,7.76s3.88,10.37,3.88,16.87c0,0,.79-38.54,21.21-37.31Z" fill="#fec87c"/><path d="M53.7,526.56c-.03.91-.42,2.25.78,2.91,4.15,2.2,4.93-5.38,4.94-5.37-.02,0,.84,4.17-1.59,6.34-1.11.87-2.59,1-3.95.67-2.43-.56-3.47-3.29-3.42-4.56v-.21c-.03-1.12.54-2.98,1.44-2.71,2.14.55,1.8,2.92,1.8,2.92Z" fill="#fec87c"/><path d="M49.77,535.37c-1.61.28-4.24.66-4.79,3.22-.3,1.56-.03,3.59,1.14,4.8,1.16,1.26,2.96,1.77,4.5,1.87,3.12.21,5.31-.48,5.29-.45,0-.03-2.08.86-5.31.97-1.58.04-3.6-.23-5.23-1.62-1.63-1.42-2.24-3.7-2.13-5.82.19-3.73,3.89-5.8,5.85-6.14,0,0,4.32-.97,4.95.7.67,2.05-4.27,2.48-4.27,2.48Z" fill="#fec87c"/><path d="M83.59,524.18s-9.56,1.59-13.95-3.54c-4.39-5.13-4.95-14.9-3.03-20.39,0,0-3.54,6.26-2.79,16.26.76,10,3.43,23.72-8.54,28.49,0,0,7.62.29,11.8-9.94,0,0,2.44,3.95,8.08,3.02,0,0,.87-5.52-2.5-8.9,0,0,7.85,1.98,10.93-5Z" fill="#fec87c"/><path d="M94.5,469.24s-6.68,2.84-6.68,7.23,5.17,10.29,7.01,14.3c1.84,4,3.5,12.12-2.2,20.72,0,0,4.37-10.76-1.36-18.28,0,0-3.95-5.06-7.29-1.72,0,0-1.89,1.84,0,6.17,1.89,4.34,3.17,12.19-4.95,13.58,0,0,3-3.73,3-6.45s-5.62-8.62-3.23-14.36c0,0,2.22-4.45,7.73-3.78,0,0-3.73-4-3.73-8.9s3.12-8.96,11.69-8.51Z" fill="#fec87c"/><path d="M87,560.23s.36,2.19,2.47,3.15c2.11.96,3.59,4.43,1.64,7.1-1.95,2.67-8.38,3.31-12.36-2.99-3.99-6.3-2.38-10.57-2.38-10.57,0,0-.74,6.17,4.34,10.81,0,0,3.19,2.95,6.18.32,0,0,1.39-1.28.4-2.79-1-1.52-1.56-2.95-.28-5.03Z" fill="#fec87c"/><path d="M46.86,603.82s-.16,5.29,2.65,12.99c2.81,7.7,5.79,16.05-1.57,20.35,0,0,11.5-3.47,8.85-18.78,0,0,9.68,3.56,17.46-5.3,0,0-21.51,10.59-27.39-9.27ZM75.66,550.87s0,0,0,.06c0-.06,0-.08,0-.06ZM68.1,567.72c-1.64,1.67-3.62,3.22-5.7,4.85-1.01.58-2.21,1.2-3.6,1.78-4.06,1.89-11.17,3.02-14.7-.05-4.18-4.18,4.4-4.42,5.12-6,.89-1.38-1.47-6.23-7.3-5.19-5.51,1.2-8.6,9.45.06,14,6.14,3.28,12.37.81,16.49-1.4-1.55,1.31-3.07,2.72-4.46,4.31-4.68,4.84-8.08,11.85-7.55,18.87.13,5.38,2.82,10.71,7.03,13.45,4.13,2.79,8.96,3.56,12.89,2.25.38-.14.77-.27,1.13-.48,2.81-1.26,6.37-5.83,4.16-9.99-.9-2.18-3.88-2.58-4.85-1.95-1.15.47-1.58,1-1.49,1.17-.1.53,3.6-.95,4.27,1.79.87,2.49-1.76,5.26-3.58,6.08-.24.14-.5.23-.75.34-2.59.96-6.8.73-10.37-1.39-3.66-2.03-6.36-6.39-6.68-11.37-.72-6.51,2.17-13.14,6.59-18.05,4.23-5.14,9.8-8.52,13.66-12.67,7.28-8.05,7.23-16.33,7.18-17.15.03.82-.17,9.09-7.56,16.79ZM58.5,578.55s13.62,1.3,15.74-6.77c0,0,4.31,6.84,10.26,2.87,0,0-7.12,2.8-8.14-17.72,0,0-2.12,14.58-17.86,21.62ZM53.12,540.47c-4.02,5.23-2.2,13.07,1.7,16.13,0,0,6.72,5.36,7.87-.58.95-4.5-11.07-5.22-6.6-13.68,1.31-2.55,4.36-4.44,7.49-4.26,3.28.19,6.43,1.4,8.44,3.34,3.71,3.71,3.5,8.05,3.59,8.7-.05-.64.72-4.9-2.84-9.42-1.98-2.37-5.28-4.12-8.95-4.77-3.89-.72-8.3,1.12-10.71,4.52Z" fill="#fec87c"/><path d="M89.45,682.21l1.22,1.22c-1.13,1.22-2.59,2.77-3.77,3.95-2.28,2.28-2.56,6.41-4.51,8.36-1.95,1.95-6.93,1.69-6.93,1.69,0,0-.27-4.97,1.69-6.93,1.95-1.95,6.08-2.23,8.36-4.51,1.18-1.18,2.72-2.63,3.94-3.77ZM87.91,677.75c.47-.47,1.24-.47,1.71,0l5.5,5.5c.47.47.47,1.24,0,1.71-.47.47-1.24.47-1.71,0l-5.5-5.5c-.47-.47-.47-1.24,0-1.71ZM93.5,680.41l-1.04-1.04c.16-.17.34-.34.52-.53,1.72-1.72,1.93-4.83,3.4-6.3,1.47-1.47,3.37.58,3.37.58,0,0,2.05,1.89.58,3.37-1.47,1.47-4.58,1.68-6.3,3.4-.19.19-.37.36-.53.52Z" fill="#fec87c"/><path d="M47.11,625.29s8.15-1.25,11.04,9.01c0,0,4.95-5.07,12.38-1.89,0,0-16.46-.19-14.22,13.84,0,0-1.67-3.23-2.2-8.83-.53-5.6-1.16-11.66-7-12.14Z" fill="#fec87c"/><path d="M65.99,636c-.19-.02-.38,0-.57.01-1.88.17-4.43,1.56-6.01,3.93-1.67,2.34-2.05,5.84-.78,9.02,1.48,4.25,5.24,7.5,9.42,9.23,4.14,1.93,8.59,2.38,12.21,3.81,7.36,3.03,9.62,8.69,9.53,8.54.09.15-2.34-5.45-9.67-8.2-3.55-1.3-8.07-1.62-12.37-3.46-4.33-1.61-8.51-4.95-10.25-9.46-1.51-3.37-1.42-7.47.37-10.41,1.74-2.95,4.5-4.85,7.31-5.21.28-.02.56-.06.85-.03,2.11-.06,5.67,1.72,5.53,4.96.09,1.62-1.63,2.75-2.43,2.64-.85.05-1.27-.15-1.27-.28-.22-.3,2.51-.48,2.11-2.37-.2-1.8-2.64-2.74-4.02-2.7Z" fill="#fec87c"/><path d="M65.3,672.93c-3.77.89-8.12-3.3-4.1-8.69,3.02-4.1,8.04-4.18,11.24-3.98,3.35.29,5.52,1.17,5.52,1.15,0,.02-2.28-.59-5.53-.43-3.07.03-7.81,1.44-9.09,4.38-1.35,3.82,4.03,1.44,4.95,2.2.96.59.93,4.29-2.98,5.37Z" fill="#fec87c"/><path d="M88.25,653.19s-5.24.36.2,13.39c0,0-5.62-8.4-17.46-8.11,0,0,8.05-4.83,11.75-.46,0,0,.64-5.51,5.51-4.81Z" fill="#fec87c"/><path d="M80.21,681.6c1.56,1.2,4.01,1.46,5.9.42,1.98-1.09,3.56-2.77,4.24-4.57,1.32-3.75-.55-6.57-.34-6.51-.23-.02,1.98,2.48,1.03,6.73-.53,2.05-2.05,4.11-4.13,5.6-2.2,1.59-5.47,1.76-7.97.37-4.04-2.05-5.23-7.45-3.72-10.49,0,0,2.58-5.31,5.04-1.97,1.92,2.5-5.31,6.51-.04,10.42Z" fill="#fec87c"/><path d="M147.59,725.76s1.25-8.15-9.01-11.04c0,0,5.07-4.94,1.88-12.38,0,0,.2,16.46-13.84,14.22,0,0,3.23,1.67,8.83,2.2,5.6.53,11.66,1.16,12.14,7Z" fill="#fec87c"/><path d="M136.87,706.88c.02.19,0,.38-.01.57-.18,1.89-1.56,4.43-3.93,6.01-2.34,1.67-5.84,2.05-9.02.78-4.25-1.48-7.5-5.24-9.23-9.43-1.94-4.14-2.38-8.59-3.81-12.21-3.02-7.36-8.69-9.62-8.54-9.54-.15-.09,5.45,2.34,8.2,9.67,1.3,3.55,1.62,8.06,3.46,12.36,1.61,4.33,4.95,8.51,9.46,10.26,3.37,1.51,7.47,1.42,10.41-.38,2.95-1.73,4.86-4.5,5.21-7.31.02-.28.06-.56.03-.84.06-2.11-1.72-5.67-4.96-5.54-1.62-.09-2.74,1.64-2.64,2.43-.05.85.15,1.27.28,1.27.3.22.48-2.51,2.38-2.12,1.8.2,2.74,2.65,2.7,4.02Z" fill="#fec87c"/><path d="M99.94,707.57c-.88,3.77,3.31,8.12,8.69,4.1,4.1-3.02,4.19-8.04,3.98-11.24-.29-3.34-1.17-5.52-1.15-5.52-.02,0,.58,2.28.43,5.53-.03,3.07-1.44,7.81-4.38,9.09-3.82,1.35-1.44-4.03-2.2-4.95-.59-.96-4.29-.93-5.37,2.98Z" fill="#fec87c"/><path d="M119.69,684.62s-.37,5.24-13.39-.2c0,0,8.4,5.63,8.11,17.46,0,0,4.83-8.05.46-11.75,0,0,5.51-.64,4.82-5.51Z" fill="#fec87c"/><path d="M91.27,692.66c-1.2-1.57-1.46-4.01-.42-5.9,1.09-1.98,2.77-3.56,4.57-4.24,3.75-1.33,6.57.55,6.51.34.02.23-2.48-1.98-6.73-1.02-2.05.53-4.11,2.05-5.6,4.13-1.59,2.19-1.76,5.47-.37,7.97,2.05,4.04,7.45,5.23,10.5,3.72,0,0,5.3-2.58,1.97-5.04-2.5-1.92-6.51,5.31-10.42.04Z" fill="#fec87c"/><path d="M89.45,252.38l1.22-1.22c-1.13-1.22-2.59-2.76-3.77-3.94-2.28-2.29-2.56-6.41-4.51-8.36-1.95-1.96-6.93-1.69-6.93-1.69,0,0-.27,4.97,1.69,6.93,1.95,1.95,6.08,2.23,8.36,4.51,1.18,1.18,2.72,2.64,3.94,3.77ZM87.91,256.83c.47.47,1.24.47,1.71,0l5.5-5.5c.47-.47.47-1.24,0-1.71-.47-.47-1.24-.47-1.71,0l-5.5,5.5c-.47.47-.47,1.24,0,1.71ZM93.5,254.17l-1.04,1.04c.16.17.34.34.52.53,1.72,1.72,1.93,4.83,3.4,6.3,1.47,1.47,3.37-.58,3.37-.58,0,0,2.05-1.89.58-3.36-1.47-1.47-4.58-1.68-6.3-3.4-.19-.19-.37-.36-.53-.52Z" fill="#fec87c"/><path d="M47.11,309.3s8.15,1.25,11.04-9.01c0,0,4.95,5.07,12.38,1.89,0,0-16.46.19-14.22-13.84,0,0-1.67,3.23-2.2,8.83-.53,5.6-1.16,11.66-7,12.14Z" fill="#fec87c"/><path d="M65.99,298.58c-.19.02-.38,0-.57-.01-1.88-.18-4.43-1.56-6.01-3.93-1.67-2.34-2.05-5.84-.78-9.02,1.48-4.25,5.24-7.5,9.42-9.23,4.14-1.93,8.59-2.38,12.21-3.81,7.36-3.02,9.62-8.69,9.53-8.54.09-.15-2.34,5.45-9.67,8.21-3.55,1.3-8.07,1.62-12.37,3.46-4.33,1.61-8.51,4.95-10.25,9.46-1.51,3.37-1.42,7.46.37,10.41,1.74,2.95,4.5,4.86,7.31,5.21.28.02.56.06.85.03,2.11.05,5.67-1.72,5.53-4.96.09-1.62-1.63-2.75-2.43-2.64-.85-.05-1.27.15-1.27.28-.22.3,2.51.48,2.11,2.38-.2,1.8-2.64,2.73-4.02,2.7Z" fill="#fec87c"/><path d="M65.3,261.66c-3.77-.89-8.12,3.3-4.1,8.69,3.02,4.1,8.04,4.19,11.24,3.98,3.35-.3,5.52-1.17,5.52-1.15,0-.02-2.28.59-5.53.43-3.07-.03-7.81-1.43-9.09-4.38-1.35-3.83,4.03-1.44,4.95-2.2.96-.59.93-4.29-2.98-5.37Z" fill="#fec87c"/><path d="M88.25,281.4s-5.24-.37.2-13.39c0,0-5.62,8.4-17.46,8.11,0,0,8.05,4.83,11.75.46,0,0,.64,5.51,5.51,4.82Z" fill="#fec87c"/><path d="M80.21,252.98c1.56-1.2,4.01-1.46,5.9-.42,1.98,1.09,3.56,2.77,4.24,4.56,1.32,3.76-.55,6.57-.34,6.51-.23.02,1.98-2.49,1.03-6.73-.53-2.05-2.05-4.11-4.13-5.6-2.2-1.59-5.47-1.76-7.97-.37-4.04,2.05-5.23,7.45-3.72,10.49,0,0,2.58,5.31,5.04,1.97,1.92-2.5-5.31-6.51-.04-10.42Z" fill="#fec87c"/><path d="M147.59,208.82s1.25,8.15-9.01,11.04c0,0,5.07,4.95,1.88,12.38,0,0,.2-16.46-13.84-14.22,0,0,3.23-1.67,8.83-2.2,5.6-.54,11.66-1.16,12.14-7Z" fill="#fec87c"/><path d="M136.87,227.71c.02-.19,0-.38-.01-.57-.18-1.88-1.56-4.43-3.93-6.01-2.34-1.67-5.84-2.05-9.02-.78-4.25,1.48-7.5,5.24-9.23,9.43-1.94,4.15-2.38,8.59-3.81,12.21-3.02,7.36-8.69,9.62-8.54,9.54-.15.09,5.45-2.34,8.2-9.67,1.3-3.55,1.62-8.06,3.46-12.36,1.61-4.33,4.95-8.51,9.46-10.26,3.37-1.51,7.47-1.42,10.41.38,2.95,1.73,4.86,4.5,5.21,7.31.02.28.06.56.03.84.06,2.11-1.72,5.67-4.96,5.54-1.62.08-2.74-1.64-2.64-2.43-.05-.85.15-1.27.28-1.27.3-.22.48,2.51,2.38,2.12,1.8-.2,2.74-2.65,2.7-4.02Z" fill="#fec87c"/><path d="M99.94,227.01c-.88-3.77,3.31-8.12,8.69-4.1,4.1,3.02,4.19,8.04,3.98,11.24-.29,3.35-1.17,5.52-1.15,5.52-.02,0,.58-2.28.43-5.53-.03-3.07-1.44-7.81-4.38-9.09-3.82-1.35-1.44,4.03-2.2,4.95-.59.96-4.29.93-5.37-2.98Z" fill="#fec87c"/><path d="M119.69,249.96s-.37-5.24-13.39.2c0,0,8.4-5.63,8.11-17.46,0,0,4.83,8.05.46,11.75,0,0,5.51.64,4.82,5.51Z" fill="#fec87c"/><path d="M91.27,241.92c-1.2,1.56-1.46,4.01-.42,5.9,1.09,1.98,2.77,3.56,4.57,4.24,3.75,1.33,6.57-.55,6.51-.34.02-.23-2.48,1.98-6.73,1.02-2.05-.53-4.11-2.05-5.6-4.13-1.59-2.2-1.76-5.47-.37-7.97,2.05-4.04,7.45-5.23,10.5-3.72,0,0,5.3,2.57,1.97,5.04-2.5,1.92-6.51-5.31-10.42-.04Z" fill="#fec87c"/><polygon points="210.7 796.96 185.77 796.96 146.18 757.36 124.05 757.36 31.62 664.92 31.62 664.92 32.55 663.99 124.6 756.03 146.73 756.03 186.32 795.63 211.24 795.63 270.54 854.93 269.6 855.86 210.7 796.96 210.7 796.96" fill="#fec87c"/><path d="M67.25,794.36v-59.59l-35.63-35.63.93-.94,36.02,36.02v59.59l27.72,27.71-.94.94-28.1-28.11h0ZM31.62,699.14h0,0Z" fill="#fec87c"/><polygon points="47.28 804.96 47.28 749.72 31.62 734.06 31.62 734.06 32.55 733.13 48.6 749.17 48.6 804.96 47.28 804.96 47.28 804.96" fill="#fec87c"/><polygon points="186.07 819.38 149.07 782.38 150.01 781.45 186.62 818.06 205.52 818.06 205.52 819.38 186.07 819.38 186.07 819.38" fill="#fec87c"/><polygon points="353.69 854.93 412.99 795.63 437.91 795.63 477.51 756.03 499.64 756.03 591.68 663.99 592.62 664.92 500.18 757.36 478.06 757.36 438.46 796.96 413.54 796.96 354.63 855.86 353.69 854.93 353.69 854.93" fill="#fec87c"/><polygon points="527.94 821.53 555.66 793.82 555.66 734.23 591.68 698.21 592.62 699.14 556.98 734.78 556.98 794.37 528.88 822.47 527.94 821.53 527.94 821.53" fill="#fec87c"/><polygon points="575.64 804.96 575.64 749.17 591.68 733.13 592.62 734.06 576.96 749.72 576.96 804.96 575.64 804.96 575.64 804.96" fill="#fec87c"/><polygon points="418.72 819.38 418.72 818.06 437.62 818.06 474.23 781.45 475.16 782.38 438.16 819.38 418.72 819.38 418.72 819.38" fill="#fec87c"/><polygon points="31.62 269.66 124.05 177.23 146.18 177.23 185.77 137.63 210.7 137.63 269.61 78.72 270.54 79.66 211.25 138.95 186.32 138.95 146.73 178.55 124.6 178.55 32.55 270.59 31.62 269.66 31.62 269.66" fill="#fec87c"/><polygon points="31.62 235.44 67.25 199.81 67.25 140.22 95.36 112.12 96.29 113.05 68.58 140.77 68.58 200.36 32.55 236.38 31.62 235.44 31.62 235.44" fill="#fec87c"/><polygon points="31.62 200.52 47.27 184.87 47.28 129.63 48.6 129.63 48.6 185.42 32.55 201.46 31.62 200.52 31.62 200.52" fill="#fec87c"/><polygon points="149.07 152.2 186.07 115.21 205.52 115.21 205.52 116.53 186.62 116.53 150.01 153.14 149.07 152.2 149.07 152.2" fill="#fec87c"/><polygon points="499.63 178.55 477.51 178.55 437.91 138.95 412.99 138.95 353.7 79.66 354.63 78.72 413.54 137.63 438.46 137.63 478.06 177.23 500.18 177.23 592.62 269.66 591.68 270.59 499.63 178.55 499.63 178.55" fill="#fec87c"/><polygon points="555.66 200.36 555.66 140.77 527.94 113.05 528.88 112.12 556.98 140.22 556.98 199.81 592.62 235.44 591.68 236.38 555.66 200.36 555.66 200.36" fill="#fec87c"/><polygon points="575.64 185.42 575.64 129.63 576.96 129.63 576.96 184.87 592.62 200.53 591.68 201.46 575.64 185.42 575.64 185.42" fill="#fec87c"/><polygon points="437.62 116.53 418.72 116.53 418.72 115.21 438.16 115.21 475.16 152.2 475.16 152.2 474.22 153.14 437.62 116.53 437.62 116.53" fill="#fec87c"/><path d="M300.83,815.64l1.95-.39,1.95-.39-5.02-15.04,1.12,15.82ZM283.87,823.51l1.65-1.11,1.66-1.1-10.38-11.96,7.07,14.17ZM310.13,814.33h3.97l-1.99-35.28-1.98,35.28ZM276.87,829.76l1.41-1.41,1.4-1.41-26.35-23.54,23.54,26.36ZM291.96,818.73l1.83-.76,1.84-.76-13.24-26.77,9.56,28.29ZM271.22,837.26l1.1-1.66,1.1-1.66-14.17-7.07,11.96,10.38ZM345.96,828.35l1.42,1.41,23.54-26.36-26.36,23.54,1.4,1.41ZM337.05,821.29l1.65,1.1,1.66,1.1,7.08-14.16-10.38,11.96ZM351.92,835.6l1.1,1.66,11.95-10.39-14.16,7.08,1.11,1.66ZM321.45,815.25l1.95.39,1.12-15.82-5.02,15.04,1.95.39ZM328.59,817.21l1.84.76,1.84.76,9.57-28.29-13.24,26.77ZM332.27,115.85l-1.84.76-1.84.76,13.24,26.77-9.57-28.29ZM287.18,113.29l-1.66-1.1-1.65-1.11-7.07,14.17,10.38-11.96ZM340.36,111.08l-1.66,1.11-1.65,1.1,10.38,11.96-7.08-14.17ZM353.02,97.33l-1.1,1.66-1.11,1.66,14.16,7.07-11.95-10.39ZM347.37,104.83l-1.42,1.41-1.4,1.4,26.36,23.54-23.54-26.36ZM321.45,119.33l-1.95.39,5.02,15.04-1.12-15.82-1.95.39ZM300.83,118.95l-1.12,15.82,5.02-15.04-1.95-.39-1.95-.39ZM310.13,120.26l1.98,35.28,1.99-35.28h-3.97ZM272.33,98.98l-1.1-1.66-11.96,10.38,14.17-7.07-1.1-1.66ZM278.28,106.23l-1.41-1.41-23.54,26.36,26.35-23.54-1.4-1.41ZM291.96,115.85l-9.56,28.29,13.24-26.77-1.84-.76-1.83-.76Z" fill="#fec87c"/><path d="M356.67,408.15h0s0,0,0,0c-.3-.23-.61-.45-.91-.67-.13-.09-.25-.19-.38-.28-.29-.21-.59-.42-.88-.62-.13-.1-.27-.19-.41-.29-.3-.2-.6-.41-.9-.61-.12-.08-.24-.16-.36-.24-1.02-.67-2.05-1.32-3.11-1.94-.14-.08-.28-.17-.42-.25-.29-.17-.59-.34-.89-.51-.17-.1-.34-.19-.52-.29-.29-.16-.58-.32-.88-.48-.18-.1-.36-.19-.54-.28-.3-.16-.59-.31-.89-.46-.16-.08-.32-.16-.48-.24-.57-.29-1.15-.57-1.73-.84-.19-.09-.37-.17-.55-.26-.28-.13-.56-.25-.84-.38-.22-.1-.44-.2-.66-.29-.27-.12-.55-.23-.83-.35-.23-.1-.47-.19-.7-.29-.27-.11-.54-.22-.81-.32-.26-.1-.51-.2-.77-.29-.26-.09-.51-.19-.77-.29-.48-.17-.96-.34-1.44-.51-.23-.08-.47-.15-.71-.23-.29-.1-.59-.19-.88-.29-.25-.08-.5-.15-.75-.23-.29-.09-.58-.17-.87-.26-.25-.07-.49-.14-.74-.21-.31-.08-.62-.17-.94-.25-.23-.06-.45-.12-.68-.18-.43-.11-.86-.21-1.28-.31-.2-.05-.4-.09-.6-.14-.44-.1-.89-.2-1.34-.29-.21-.04-.42-.08-.63-.13-.35-.07-.7-.14-1.05-.2-.22-.04-.45-.08-.68-.12-.35-.06-.7-.12-1.05-.18-.22-.03-.43-.07-.65-.1-.41-.06-.81-.12-1.22-.17-.16-.02-.32-.04-.48-.06-.56-.07-1.12-.14-1.69-.19-.15-.02-.3-.03-.45-.04-.43-.04-.85-.08-1.28-.11-.21-.02-.41-.03-.62-.05-.38-.03-.76-.05-1.15-.07-.21-.01-.43-.02-.64-.03-.4-.02-.8-.03-1.2-.05-.19,0-.37-.01-.56-.02-.58-.01-1.17-.02-1.76-.02-40.9,0-74.05,33.15-74.05,74.05s33.15,74.05,74.05,74.05c.59,0,1.17,0,1.76-.02.19,0,.37-.01.56-.02.4-.01.8-.03,1.2-.04.21,0,.42-.02.63-.03.38-.02.77-.04,1.15-.07.21-.01.41-.03.62-.05.43-.03.86-.07,1.29-.11.15-.01.29-.03.44-.04.57-.06,1.13-.12,1.7-.19.16-.02.31-.04.46-.06.41-.05.83-.11,1.24-.17.21-.03.42-.07.64-.1.36-.06.71-.11,1.07-.18.22-.04.44-.08.66-.12.36-.06.71-.13,1.07-.2.2-.04.41-.08.61-.12.47-.1.94-.2,1.4-.31.16-.04.32-.07.48-.11.45-.11.9-.22,1.35-.33.22-.06.44-.12.66-.17.32-.08.64-.17.96-.26.24-.07.48-.14.72-.2.3-.09.6-.18.9-.27.24-.07.48-.15.71-.22.31-.1.62-.2.94-.3.22-.07.43-.14.65-.21.49-.17.98-.34,1.46-.52.24-.09.47-.18.7-.27.28-.1.56-.21.84-.32.26-.1.51-.2.77-.3.25-.1.5-.2.76-.31.26-.11.52-.22.78-.33.24-.1.48-.21.72-.32.26-.12.53-.23.79-.35.23-.11.47-.22.7-.33.5-.23.98-.47,1.47-.71.21-.1.42-.2.62-.31.28-.14.55-.29.83-.43.2-.11.4-.21.6-.32.28-.15.55-.3.83-.45.19-.11.38-.22.58-.32.28-.16.56-.32.84-.48.17-.1.34-.2.51-.3,1-.59,1.99-1.21,2.97-1.85.15-.1.3-.2.45-.3.28-.19.56-.38.84-.57.16-.11.32-.22.48-.33.28-.2.55-.39.83-.59.15-.11.3-.22.44-.33.29-.21.57-.42.85-.63,0,0,.02-.01.02-.02h0c17.91-13.51,29.49-34.98,29.49-59.14s-11.58-45.63-29.49-59.15ZM351.14,527.58c-3.14.5-6.37.76-9.65.76-33.72,0-61.05-27.33-61.05-61.05s27.33-61.05,61.05-61.05c3.28,0,6.51.26,9.65.76,19.74,12.82,32.82,35.05,32.82,60.29s-13.08,47.47-32.82,60.29ZM339.34,368.93l-4.54,15.96c-.11.39.11.8.5.91.07.02.14.03.2.03.32,0,.62-.21.71-.54l4.54-15.96c.11-.39-.11-.8-.51-.91-.39-.11-.8.12-.91.51ZM374.73,410.21c.15.16.34.24.54.24.18,0,.35-.06.49-.19l54.93-50.08c.3-.27.32-.74.05-1.04-.27-.3-.74-.32-1.04-.05l-54.93,50.08c-.3.28-.32.74-.05,1.04ZM319.88,375.58l-.6,6.54c-.04.4.26.76.66.8.02,0,.04,0,.07,0,.38,0,.7-.29.73-.67l.61-6.55c.04-.4-.26-.76-.66-.8-.41-.04-.76.26-.8.66ZM328.91,373.45l-1.81,9.7c-.08.4.19.79.59.86.04,0,.09.01.14.01.35,0,.66-.25.72-.6l1.81-9.7c.08-.4-.19-.79-.59-.86-.4-.07-.79.19-.86.59ZM261.7,366.03c-.36.18-.51.62-.33.99l12,24.11c.13.26.39.41.66.41.11,0,.22-.02.33-.08.36-.18.51-.62.33-.99l-12-24.1c-.18-.37-.62-.51-.99-.33ZM352.99,361.79c-.38-.15-.81.04-.95.42l-9.74,25.12c-.15.38.04.81.42.95.09.03.18.05.27.05.29,0,.57-.18.69-.47l9.74-25.12c.15-.38-.04-.81-.42-.95ZM379.73,416.23c.14.19.36.29.59.29.16,0,.31-.05.44-.15l54.26-40.97c.33-.25.39-.71.14-1.03-.25-.32-.71-.39-1.03-.14l-54.26,40.97c-.32.24-.39.71-.14,1.03ZM356.72,395.26c.12.07.25.11.39.11.25,0,.49-.12.63-.35l28.91-46.69c.21-.35.11-.8-.24-1.01-.34-.21-.8-.11-1.01.24l-28.91,46.69c-.22.35-.11.8.24,1.01ZM363.17,399.68c.13.1.29.15.44.15.22,0,.44-.1.59-.29l40.98-54.26c.24-.32.18-.79-.15-1.03-.32-.25-.79-.18-1.03.14l-40.98,54.26c-.24.33-.18.79.14,1.03ZM417.61,426.42c-.14-.38-.57-.57-.95-.42l-25.12,9.73c-.38.15-.57.57-.42.95.11.29.39.47.69.47.09,0,.18-.02.27-.05l25.12-9.73c.38-.15.57-.57.42-.95ZM237.83,347.32c-.35.22-.45.67-.24,1.01l28.91,46.69c.14.22.38.35.63.35.13,0,.27-.04.39-.11.35-.21.45-.67.24-1.01l-28.91-46.69c-.21-.35-.67-.45-1.01-.24ZM413.38,416.87c-.18-.37-.62-.51-.99-.33l-24.1,12c-.37.18-.51.62-.33.99.13.26.39.41.66.41.11,0,.22-.02.33-.08l24.1-12c.36-.18.51-.62.33-.99ZM387.96,505.06c-.18.36-.03.8.33.99l24.1,12c.11.05.22.08.33.08.27,0,.53-.15.66-.41.18-.36.03-.81-.33-.99l-24.1-12c-.36-.18-.81-.03-.99.33ZM417.2,507.21l-25.12-9.73c-.38-.15-.8.04-.95.42-.15.38.04.81.42.96l25.12,9.73c.09.03.18.05.27.05.29,0,.57-.18.69-.47.15-.38-.04-.81-.42-.95ZM432.09,393.01c-.21-.35-.67-.45-1.01-.24l-46.69,28.91c-.34.21-.45.67-.24,1.01.14.23.38.35.63.35.13,0,.27-.04.39-.11l46.69-28.91c.34-.21.45-.67.24-1.01ZM271.25,361.79c-.38.15-.57.58-.42.95l9.73,25.12c.11.29.39.47.69.47.09,0,.18-.02.26-.05.38-.15.57-.57.42-.95l-9.73-25.12c-.15-.38-.57-.57-.95-.42ZM384.39,512.91l46.68,28.91c.12.08.25.11.39.11.25,0,.49-.12.63-.35.21-.35.11-.8-.24-1.01l-46.69-28.91c-.34-.21-.8-.11-1.01.24-.22.34-.11.8.24,1.01ZM294.47,372.86c-.4.08-.66.46-.59.86l1.81,9.71c.07.35.38.6.72.6.04,0,.09,0,.14-.01.4-.07.66-.46.59-.86l-1.81-9.7c-.07-.4-.46-.66-.86-.59ZM219.2,344.25c-.32.25-.39.7-.14,1.03l40.97,54.26c.14.19.36.29.59.29.15,0,.31-.05.44-.15.33-.25.39-.71.14-1.03l-40.98-54.26c-.24-.33-.7-.39-1.03-.15ZM303.56,374.92c-.41.04-.7.4-.67.8l.61,6.54c.03.38.36.67.73.67.02,0,.04,0,.07,0,.4-.04.7-.4.66-.8l-.6-6.54c-.04-.41-.4-.7-.8-.67ZM283.99,368.42c-.39.11-.62.52-.51.91l4.54,15.96c.09.32.38.54.71.54.06,0,.13,0,.2-.03.39-.11.62-.52.51-.91l-4.54-15.96c-.11-.39-.52-.62-.91-.51ZM362.54,568.56c.36-.18.51-.62.33-.99l-12-24.1c-.18-.36-.62-.51-.99-.33-.36.18-.51.62-.33.99l12,24.1c.13.26.39.41.66.41.11,0,.22-.03.33-.08ZM261.06,534.91c-.32-.25-.79-.18-1.03.14l-40.97,54.26c-.24.33-.18.79.14,1.03.13.1.29.15.44.15.22,0,.44-.1.59-.29l40.98-54.26c.25-.33.18-.79-.14-1.03ZM267.52,539.33c-.35-.21-.8-.11-1.01.24l-28.91,46.69c-.21.34-.11.8.24,1.01.12.08.26.11.39.11.25,0,.49-.12.63-.35l28.91-46.69c.21-.35.11-.8-.24-1.02ZM274.35,543.14c-.36-.18-.81-.03-.99.33l-12,24.1c-.18.36-.03.8.33.99.11.05.22.08.33.08.27,0,.53-.15.66-.41l12-24.1c.18-.36.03-.8-.33-.99ZM271.25,572.79c.09.03.18.05.27.05.3,0,.57-.18.68-.47l9.74-25.12c.15-.38-.04-.8-.42-.95-.38-.15-.8.04-.95.42l-9.73,25.12c-.15.38.04.81.42.95ZM284.19,566.19c.32,0,.61-.21.71-.53l4.54-15.96c.11-.39-.12-.8-.51-.91-.39-.11-.8.12-.91.51l-4.54,15.96c-.11.39.11.8.51.91.07.02.13.03.2.03ZM393.61,444.11c.09.32.39.54.71.54.07,0,.14,0,.2-.03l52.81-15.03c.39-.11.62-.52.51-.91-.11-.39-.52-.62-.91-.51l-52.82,15.03c-.39.11-.62.52-.5.91ZM395.4,451.72c.06.35.37.6.72.6.04,0,.09,0,.14-.01l66.83-12.49c.4-.08.67-.46.59-.86-.08-.4-.46-.66-.86-.59l-66.84,12.49c-.4.07-.66.46-.58.86ZM369.2,404.68c.14.13.32.19.5.19.2,0,.4-.08.54-.24l50.08-54.93c.27-.3.25-.77-.05-1.04-.3-.27-.76-.25-1.04.05l-50.08,54.94c-.27.3-.25.76.05,1.04ZM396.48,459.47c.03.38.35.67.73.67.02,0,.04,0,.07,0l67.7-6.27c.4-.04.7-.4.66-.8-.04-.4-.4-.7-.8-.66l-67.7,6.27c-.4.04-.7.4-.66.8ZM386.02,587.37c.13,0,.26-.04.38-.11.35-.21.45-.67.24-1.01l-28.91-46.68c-.21-.35-.67-.45-1.01-.24-.34.21-.45.67-.24,1.01l28.91,46.68c.14.23.38.35.63.35ZM294.6,561.74c.35,0,.65-.25.72-.6l1.82-9.71c.07-.4-.19-.79-.59-.86-.4-.07-.79.19-.86.59l-1.82,9.71c-.08.4.19.78.59.86.05,0,.09.01.14.01ZM235.95,428.54l-24.1-12c-.37-.18-.81-.03-.99.33-.18.36-.03.81.33.99l24.1,12c.11.05.22.08.33.08.27,0,.53-.15.66-.41.18-.36.03-.81-.33-.99ZM235.29,504.73l-24.1,12c-.36.18-.51.62-.33.99.13.26.39.41.66.41.11,0,.22-.02.33-.08l24.1-12c.36-.18.51-.62.33-.99-.18-.36-.62-.51-.99-.33ZM239.46,423.04c.25,0,.49-.12.63-.35.21-.34.11-.8-.24-1.01l-46.69-28.91c-.35-.21-.8-.11-1.01.24-.22.35-.11.8.24,1.01l46.69,28.91c.12.07.25.11.39.11ZM206.62,508.16c.11.29.39.47.69.47.09,0,.18-.02.27-.05l25.12-9.73c.38-.15.57-.58.42-.95-.15-.38-.57-.57-.95-.42l-25.12,9.73c-.38.15-.57.57-.42.95ZM192.14,541.58c.14.22.38.35.63.35.13,0,.27-.04.39-.11l46.69-28.91c.34-.21.45-.67.24-1.01-.21-.34-.67-.45-1.01-.24l-46.69,28.91c-.34.21-.45.67-.24,1.01ZM207.04,427.38l25.12,9.73c.09.03.18.05.27.05.29,0,.57-.18.69-.47.15-.38-.04-.81-.42-.95l-25.12-9.73c-.38-.15-.8.04-.95.42-.15.38.04.81.42.96ZM303.63,559.67c.37,0,.69-.29.73-.67l.61-6.55c.04-.4-.26-.76-.67-.8-.41-.04-.76.26-.8.66l-.61,6.54c-.04.41.26.76.67.8.02,0,.05,0,.07,0ZM404.59,590.49c.15,0,.31-.05.44-.15.33-.25.39-.71.15-1.03l-40.98-54.26c-.24-.33-.71-.39-1.03-.14-.32.25-.39.71-.14,1.03l40.97,54.26c.15.19.37.29.59.29ZM329.63,561.74s.09,0,.14-.01c.4-.08.66-.46.59-.86l-1.81-9.71c-.08-.4-.46-.66-.86-.59-.4.07-.66.46-.59.86l1.81,9.7c.07.36.38.6.72.6ZM320.61,559.67s.05,0,.07,0c.4-.04.7-.39.66-.8l-.61-6.54c-.04-.4-.39-.7-.8-.66-.41.04-.7.4-.66.8l.6,6.55c.04.38.36.67.73.67ZM340.05,566.19c.07,0,.13-.01.2-.03.39-.11.62-.52.51-.91l-4.54-15.96c-.11-.39-.52-.62-.91-.51-.39.11-.62.52-.51.91l4.54,15.96c.09.32.39.54.71.54ZM352.72,572.84c.09,0,.18-.01.27-.05.38-.14.57-.57.42-.95l-9.74-25.12c-.14-.38-.57-.57-.95-.42-.38.15-.57.57-.42.95l9.73,25.12c.11.29.39.47.69.47ZM349.88,391.45c.11.05.22.08.33.08.27,0,.53-.15.66-.41l12-24.1c.18-.36.03-.81-.33-.99-.36-.18-.81-.03-.99.33l-12,24.1c-.18.37-.03.81.33.99ZM227.39,467.29c0-.41-.33-.74-.74-.74h-74.33c-.41,0-.74.33-.74.74s.33.74.74.74h74.33c.41,0,.74-.33.74-.74ZM161.14,439.82l66.83,12.49s.09.01.14.01c.35,0,.66-.25.72-.6.07-.4-.19-.79-.59-.86l-66.83-12.49c-.4-.08-.78.19-.86.59-.08.4.19.79.59.86ZM159.25,453.87l67.7,6.27s.05,0,.07,0c.37,0,.7-.29.73-.67.04-.41-.26-.76-.67-.8l-67.7-6.27c-.41-.04-.76.26-.8.66-.04.41.26.76.66.8ZM230.63,490.48c-.11-.39-.52-.62-.91-.51l-52.81,15.03c-.39.11-.62.52-.51.91.09.32.39.53.71.53.07,0,.13,0,.2-.03l52.82-15.03c.39-.11.62-.52.51-.91ZM228.84,482.86c-.08-.4-.46-.66-.86-.59l-66.83,12.49c-.4.08-.66.46-.59.86.07.35.37.6.72.6.04,0,.09,0,.14-.01l66.83-12.49c.4-.07.66-.46.59-.86ZM227.75,475.11c-.04-.41-.4-.7-.8-.67l-67.7,6.27c-.41.04-.7.4-.66.8.04.38.35.67.73.67.02,0,.05,0,.07,0l67.7-6.27c.41-.04.7-.39.67-.8ZM248.46,410.26c.14.13.32.19.49.19.2,0,.4-.08.55-.24.27-.3.25-.77-.05-1.04l-54.93-50.08c-.3-.27-.77-.25-1.04.05-.28.3-.25.77.05,1.04l54.93,50.08ZM435.02,559.18l-54.26-40.97c-.33-.25-.79-.18-1.03.14-.25.33-.18.79.14,1.03l54.26,40.97c.13.1.29.15.44.15.22,0,.44-.1.59-.29.24-.32.18-.78-.14-1.03ZM176.9,429.58l52.81,15.03c.07.02.13.03.2.03.32,0,.61-.21.71-.54.11-.39-.12-.8-.51-.91l-52.82-15.03c-.39-.11-.8.11-.91.51-.11.39.12.8.51.91ZM254,404.63c.14.16.34.24.54.24.18,0,.36-.06.5-.19.3-.28.32-.74.05-1.04l-50.08-54.94c-.27-.3-.74-.32-1.04-.05-.3.27-.32.74-.05,1.04l50.08,54.93ZM189.21,375.4l54.26,40.97c.14.1.29.15.44.15.22,0,.44-.1.59-.29.25-.33.18-.79-.14-1.03l-54.26-40.97c-.33-.25-.79-.18-1.03.14-.25.33-.18.79.14,1.03ZM471.91,466.56h-74.33c-.41,0-.73.33-.73.74s.33.73.73.73h74.33c.4,0,.74-.33.74-.73s-.33-.74-.74-.74ZM464.98,480.72l-67.7-6.27c-.41-.04-.76.26-.8.66-.04.41.26.77.66.8l67.7,6.27s.05,0,.07,0c.37,0,.7-.29.73-.67.04-.41-.26-.77-.66-.8ZM370.24,529.95c-.27-.3-.74-.32-1.04-.05-.3.27-.32.74-.05,1.04l50.08,54.93c.14.16.34.24.54.24.18,0,.35-.06.5-.19.3-.27.32-.74.05-1.04l-50.08-54.93ZM375.77,524.32c-.3-.27-.76-.25-1.04.05-.27.3-.25.77.05,1.04l54.93,50.08c.14.13.32.19.5.19.2,0,.4-.08.55-.24.27-.3.25-.77-.05-1.04l-54.93-50.08ZM255.24,530.69h0c.03-.09.04-.18.04-.28h0c0-.1-.03-.19-.07-.27,0,0,0,0,0,0-.04-.08-.1-.16-.17-.23-.21-.19-.51-.24-.77-.14-.1.04-.2.1-.28.19l-22.38,24.56-27.69,30.37c-.27.3-.25.77.05,1.04.14.13.32.19.5.19.2,0,.4-.08.54-.24l4.26-4.68s0,0,.01,0l45.81-50.25c.07-.08.12-.16.15-.25ZM244.51,518.35c-.25-.32-.71-.39-1.03-.14l-54.26,40.97c-.33.25-.39.71-.14,1.03.15.19.37.29.59.29.15,0,.31-.05.44-.15l54.26-40.97c.33-.25.39-.71.14-1.03ZM463.09,494.77l-66.83-12.49c-.4-.08-.79.19-.86.59-.08.4.19.79.58.86l66.84,12.49s.09.01.13.01c.35,0,.66-.25.72-.6.08-.4-.19-.78-.59-.86ZM249.5,524.37c-.07-.08-.15-.13-.23-.17,0,0,0,0,0,0-.08-.04-.18-.06-.27-.07h0c-.09,0-.18,0-.27.04,0,0,0,0,0,0-.08.03-.16.08-.24.14,0,0,0,0,0,0l-54.93,50.08c-.3.28-.32.74-.05,1.04.14.16.34.24.54.24.18,0,.35-.06.5-.19l4.68-4.27s0,0,0,0l50.25-45.81c.3-.27.32-.74.05-1.04ZM447.33,505l-52.81-15.02c-.39-.11-.8.12-.91.51-.11.39.11.8.5.91l52.82,15.03c.07.02.13.03.2.03.32,0,.61-.21.71-.53.11-.39-.12-.8-.51-.91ZM355.68,616.6c0-24.06-19.5-43.56-43.56-43.56s-43.56,19.5-43.56,43.56,19.5,43.56,43.56,43.56,43.56-19.5,43.56-43.56ZM268.56,317.99c0,24.06,19.5,43.56,43.56,43.56s43.56-19.5,43.56-43.56-19.5-43.56-43.56-43.56-43.56,19.5-43.56,43.56ZM283.29,189.26c.03.4.06.79.1,1.18.01.1.03.2.04.31.05.4.1.81.16,1.21.01.07.03.15.04.22.07.43.15.86.24,1.28,0,.04.02.09.03.13.1.45.21.91.33,1.35,0,.02,0,.03.01.04,3.13,11.51,13.2,20.15,25.43,21.18-.08.25-.13.51-.13.78v.37c0,1.42,1.15,2.58,2.58,2.58s2.58-1.15,2.58-2.58v-.37c0-.27-.05-.53-.13-.78,10.71-.9,19.75-7.63,23.94-17.01h0s0,0,0,0c.2-.44.38-.89.56-1.33,0-.01,0-.02.01-.04.17-.44.33-.89.48-1.34,0-.03.02-.05.02-.07.14-.43.27-.87.39-1.31.01-.04.03-.09.04-.13.11-.42.21-.84.31-1.26.02-.07.03-.14.05-.21.09-.4.16-.8.23-1.2.02-.1.04-.19.05-.29.06-.38.11-.77.16-1.16.01-.12.03-.24.04-.36.04-.38.07-.77.1-1.15,0-.12.02-.25.03-.37.03-.51.04-1.02.04-1.53,0-15.46-12.14-28.08-27.41-28.85-.49-.03-.99-.04-1.49-.04s-.99.01-1.49.04c-15.26.78-27.41,13.4-27.41,28.85,0,.52.02,1.03.04,1.54,0,.11.02.23.03.34ZM312.12,182.04c10.72,0,20.07,5.84,25.06,14.52-3.75,10.21-13.57,17.51-25.06,17.51s-21.31-7.3-25.06-17.51c4.99-8.67,14.34-14.52,25.06-14.52ZM340.97,745.67c0-.13-.02-.25-.03-.38-.03-.38-.05-.76-.09-1.14-.01-.12-.03-.25-.05-.37-.04-.38-.09-.76-.15-1.14-.02-.1-.04-.2-.05-.3-.07-.4-.14-.79-.22-1.19-.02-.08-.04-.15-.05-.23-.09-.42-.19-.83-.3-1.24-.01-.05-.03-.1-.04-.15-.12-.43-.25-.86-.39-1.29-.01-.03-.02-.06-.03-.1-.15-.44-.3-.88-.47-1.31,0-.02-.02-.04-.02-.06-.17-.44-.35-.88-.54-1.31,0,0,0-.01-.01-.02h0c-4.51-10.08-14.62-17.12-26.38-17.12-12.81,0-23.67,8.34-27.45,19.89h0c-.15.46-.29.92-.42,1.39,0,.02-.01.04-.02.07-.12.44-.23.88-.33,1.33-.01.05-.02.1-.03.15-.09.42-.17.84-.24,1.26-.01.08-.03.16-.04.24-.06.4-.11.79-.16,1.2-.01.11-.03.21-.04.32-.04.39-.07.78-.09,1.17,0,.12-.02.23-.03.35-.03.51-.04,1.01-.04,1.53h0c0,11.48,6.69,21.39,16.37,26.05,2.11,1.01,4.35,1.78,6.7,2.26.94.19,1.9.34,2.87.44.97.1,1.96.15,2.96.15s1.98-.05,2.95-.15c.97-.1,1.93-.25,2.87-.44,2.35-.48,4.6-1.25,6.7-2.26,9.68-4.67,16.37-14.57,16.37-26.04h0c0-.52-.01-1.03-.04-1.53ZM312.12,752.54c-10.72,0-20.07-5.84-25.06-14.52,3.75-10.21,13.57-17.51,25.06-17.51s21.31,7.3,25.06,17.51c-4.98,8.67-14.34,14.52-25.06,14.52ZM314.69,672.95c0-1.42-1.15-2.58-2.58-2.58s-2.58,1.15-2.58,2.58v.37c0,1.42,1.15,2.57,2.58,2.57s2.58-1.15,2.58-2.57v-.37ZM314.69,665.22c0-1.42-1.15-2.58-2.58-2.58s-2.58,1.15-2.58,2.58v.37c0,1.42,1.15,2.58,2.58,2.58s2.58-1.15,2.58-2.58v-.37ZM314.69,680.68c0-1.42-1.15-2.58-2.58-2.58s-2.58,1.15-2.58,2.58v.37c0,1.42,1.15,2.58,2.58,2.58s2.58-1.15,2.58-2.58v-.37ZM314.69,688.41c0-1.42-1.15-2.58-2.58-2.58s-2.58,1.15-2.58,2.58v.37c0,1.42,1.15,2.58,2.58,2.58s2.58-1.15,2.58-2.58v-.37ZM314.69,371.53c0-1.42-1.15-2.58-2.58-2.58s-2.58,1.15-2.58,2.58v.37c0,1.42,1.15,2.58,2.58,2.58s2.58-1.16,2.58-2.58v-.37ZM312.12,552.24c1.42,0,2.58-1.15,2.58-2.58v-.37c0-1.42-1.15-2.58-2.58-2.58s-2.58,1.15-2.58,2.58v.37c0,1.42,1.15,2.58,2.58,2.58ZM309.54,565.12c0,1.42,1.15,2.58,2.58,2.58s2.58-1.15,2.58-2.58v-.37c0-1.42-1.15-2.58-2.58-2.58s-2.58,1.15-2.58,2.58v.37ZM309.54,557.39c0,1.42,1.15,2.58,2.58,2.58s2.58-1.15,2.58-2.58v-.37c0-1.42-1.15-2.58-2.58-2.58s-2.58,1.15-2.58,2.58v.37ZM314.69,703.87c0-1.42-1.15-2.57-2.58-2.57s-2.58,1.15-2.58,2.57v.37c0,1.42,1.15,2.58,2.58,2.58s2.58-1.15,2.58-2.58v-.37ZM312.12,709.02c-1.42,0-2.58,1.15-2.58,2.58v.37c0,1.42,1.15,2.58,2.58,2.58s2.58-1.16,2.58-2.58v-.37c0-1.42-1.15-2.58-2.58-2.58ZM309.54,232.78c0,1.42,1.15,2.58,2.58,2.58s2.58-1.15,2.58-2.58v-.37c0-1.42-1.15-2.58-2.58-2.58s-2.58,1.15-2.58,2.58v.37ZM314.69,379.26c0-1.42-1.15-2.58-2.58-2.58s-2.58,1.15-2.58,2.58v.37c0,1.42,1.15,2.58,2.58,2.58s2.58-1.15,2.58-2.58v-.37ZM309.54,263.69c0,1.42,1.15,2.57,2.58,2.57s2.58-1.15,2.58-2.57v-.37c0-1.42-1.15-2.58-2.58-2.58s-2.58,1.15-2.58,2.58v.37ZM309.54,240.51c0,1.42,1.15,2.58,2.58,2.58s2.58-1.15,2.58-2.58v-.37c0-1.42-1.15-2.58-2.58-2.58s-2.58,1.15-2.58,2.58v.37ZM309.54,248.24c0,1.42,1.15,2.58,2.58,2.58s2.58-1.15,2.58-2.58v-.37c0-1.42-1.15-2.58-2.58-2.58s-2.58,1.15-2.58,2.58v.37ZM312.12,227.62c1.42,0,2.58-1.15,2.58-2.58v-.37c0-1.42-1.15-2.57-2.58-2.57s-2.58,1.15-2.58,2.57v.37c0,1.42,1.15,2.58,2.58,2.58ZM312.12,384.41c-1.42,0-2.58,1.15-2.58,2.58v.37c0,1.42,1.15,2.58,2.58,2.58s2.58-1.15,2.58-2.58v-.37c0-1.42-1.15-2.58-2.58-2.58ZM314.69,696.14c0-1.42-1.15-2.58-2.58-2.58s-2.58,1.15-2.58,2.58v.37c0,1.42,1.15,2.58,2.58,2.58s2.58-1.15,2.58-2.58v-.37ZM309.54,255.96c0,1.42,1.15,2.58,2.58,2.58s2.58-1.15,2.58-2.58v-.37c0-1.42-1.15-2.58-2.58-2.58s-2.58,1.15-2.58,2.58v.37ZM350.84,655.15l-1.16,1.16,29.71,27.38-27.38-29.71-1.16,1.17ZM297.92,687.79l5.13-17.33-1.62-.32-1.62-.32-1.89,17.98ZM251.64,656.83l15.86-8.61-.92-1.37-.92-1.37-14.03,11.36ZM342.54,661.96l-1.37.91,11.36,14.03-8.62-15.86-1.37.92ZM362.71,637.38l-.63,1.52,32.13,11.52-30.87-14.57-.63,1.52ZM366.88,616.42v1.65l40.37-1.65-40.37-1.65v1.65ZM240.75,630.61l17.98-1.89-.32-1.62-.32-1.62-17.34,5.13ZM261.52,637.38l-.63-1.52-30.86,14.57,32.12-11.53-.63-1.52ZM357.65,646.85l-.92,1.37,15.86,8.62-14.03-11.36-.92,1.37ZM383.49,630.62l-17.34-5.13-.32,1.62-.32,1.62,17.98,1.9ZM257.35,616.42v-1.65l-40.37,1.65,40.37,1.65v-1.65ZM333.07,667.02l-1.52.63,14.57,30.86-11.53-32.13-1.52.63ZM321.18,670.45l5.13,17.34-1.9-17.98-1.62.32-1.62.32ZM291.16,667.01l-1.52-.63-11.52,32.13,14.57-30.87-1.52-.63ZM281.69,661.95l-1.37-.91-8.61,15.86,11.35-14.03-1.37-.92ZM273.39,655.14l-1.17-1.17-27.38,29.71,29.71-27.38-1.17-1.17ZM372.6,277.47l-15.86,8.62.92,1.37.91,1.37,14.03-11.36ZM366.88,317.89v1.65l40.37-1.65-40.37-1.65v1.65ZM362.71,296.93l.63,1.52,30.87-14.57-32.13,11.52.63,1.52ZM291.16,267.29l1.52-.63-14.57-30.87,11.52,32.13,1.52-.63ZM281.69,272.36l1.37-.92-11.35-14.03,8.61,15.86,1.37-.92ZM333.07,267.29l1.52.63,11.53-32.12-14.57,30.87,1.52.63ZM350.84,279.16l1.16,1.17,27.38-29.71-29.71,27.38,1.17,1.17ZM240.75,303.7l17.34,5.13.32-1.62.32-1.62-17.98-1.9ZM342.54,272.35l1.37.91,8.62-15.86-11.36,14.03,1.37.92ZM303.05,263.86l-5.12-17.33,1.89,17.98,1.62-.32,1.62-.32ZM266.58,287.46l.92-1.37-15.86-8.62,14.03,11.36.92-1.37ZM326.31,246.52l-5.13,17.34,1.62.32,1.62.32,1.9-17.98ZM383.49,303.69l-17.98,1.9.32,1.62.32,1.62,17.34-5.13ZM261.52,296.93l.63-1.52-32.12-11.53,30.86,14.57.63-1.52ZM273.39,279.16l1.17-1.17-29.71-27.38,27.38,29.71,1.17-1.17ZM257.35,317.89v-1.65l-40.37,1.65,40.37,1.65v-1.65Z" fill="#fec87c"/><rect x="144.95" y="72.15" width="334.44" height="165.33" rx="45.3" ry="45.3" fill="#181818" stroke="#fec87c" stroke-width="4.4"/><path d="M258.3,106.25v44.02l14.67-44.02h8.46l-15.33,46.27,15.33,46.27h-8.46l-14.67-43.89v43.89h-7.67v-92.54h7.67Z" fill="#fec87c"/><path d="M303.38,106.25l11.5,92.54h-8.46l-2.38-23.13h-8.99l-2.51,23.13h-8.46l11.5-92.54h7.8ZM303.25,167.99l-3.7-35.17-3.7,35.17h7.4Z" fill="#fec87c"/><path d="M341.72,113.92h-11.5v84.87h-7.8v-84.87h-11.5v-7.67h30.8v7.67Z" fill="#fec87c"/><path d="M375.29,113.92h-23.14v34.77h23.14v7.67h-23.14v34.77h23.14v7.67h-30.8v-92.54h30.8v7.67Z" fill="#fec87c"/></svg>