<?xml version="1.0" encoding="UTF-8"?><svg id="a" xmlns="http://www.w3.org/2000/svg" viewBox="0 0 843.46 440.42"><path d="M503.46,273.03c-2.64.32-4.29-.78-4.75-3.45-.5-2.92-.42-5.83-.37-8.8.09-5.39-.18-10.91-2.47-16.09-.82-1.85-.64-4.13-1.16-6.14-1.16-4.51-.76-8.98-.07-13.49.09-.6.24-1.25.15-1.84-.67-4.13-1.32-8.26-2.12-12.37-.34-1.75-1.26-3.41-1.47-5.17-.57-4.66-.51-9.3.65-13.92.94-3.75,1.58-7.57,2.3-11.68-.08-1.47-.88-2.58-.02-3.78.23-.31-.05-1.09-.25-1.59-1.09-2.79-2.55-5.49-3.26-8.37-.87-3.54-3.19-6.86-2.01-10.79-1.32-5.24,1.04-10.26.92-15.44-.05-2.19.23-4.41-.04-6.56-.47-3.82-1.23-7.61-1.9-11.4-.57-3.23.08-6.24,2.43-8.48,1.73-1.64,3.72-3,6.59-2.67,2.59.3,5.33,0,7.92-.46,5.65-1.02,11.23-2.46,16.89-3.43,2.32-.4,4.78-.11,7.16.09,1.33.12,2.11,1,2.54,2.48.82,2.87-.07,5.44-1.1,7.91-1.46,3.53-2.77,7.12-2.97,10.9-.13,2.36.59,4.77,1.07,7.14,1.19,5.94.24,11.5-2.18,17.05-2.51,5.75-3.82,11.87-3.88,18.19,0,.22.17.49.09.64-.74,1.31-.78,2.81.64,3.25,1.13.34,2.88.02,3.85-.7,4.51-3.35,8.79-7.07,11.43-12.12,1.14-2.19,1.7-4.88,1.79-7.37.09-2.58.84-4.98,1.86-7.07,1.63-3.32,1.72-6.74,2.1-10.2.42-3.86.62-7.78,1.46-11.56.66-3,1.7-6.1,4.98-7.54.65-.29,1.24-.72,1.91-.97.51-.19,1.07-.25,1.62-.29,6.04-.43,11.46-2.72,16.7-5.54,1.17-.63,2.26-1.42,3.49-1.9,1.57-.61,3.31-.5,4.48.69,1.34,1.36,1.72,3.07,1.4,5.19-.69,4.65-3.19,8.63-4.3,13.11-.68,2.73-.86,5.45-1.04,8.22-.32,4.94.47,9.9-.68,14.86-.53,2.29-1.3,4.5-2.53,6.26-2.88,4.13-4.58,8.64-5.95,13.4-1.28,4.43-3.63,8.23-6.92,11.56-2.27,2.29-3.98,5.11-6.07,7.59-2.57,3.06-.79,6.3,1.88,7.3,3.06,1.15,5.58,3.11,8.32,4.75,3.29,1.98,5.45,4.92,7.07,8.18.98,1.97,2.44,3.32,3.88,4.78,1.75,1.79,3.55,3.54,5.32,5.31,1.85,1.85,2.66,4.28,3.08,6.68.86,4.83,2.38,9.24,5.31,13.28,2.61,3.6.57,7.52-4.16,8.69-3.02.74-6.11,1.26-9.04,2.28-2.79.97-5.36,2.58-8.11,3.68-2.67,1.06-5.3,2.72-8.4,1.75-3.69-1.15-6.58-3.23-7.87-7.06-.96-2.88-1.61-5.92-2.92-8.63-1-2.07-2.59-4-4.32-5.54-3.32-2.96-5.72-6.28-6.45-10.76-.29-1.76-.74-3.58-1.6-5.11-.68-1.22-1.98-2.23-3.21-3-1.81-1.13-3.58-.36-4.27,1.76-.7,2.16-.98,4.34-1,6.68-.03,3.58,1.37,6.61,2.42,9.84,1.12,3.48.77,7.08.26,10.67-.36,2.55-.53,5.17-.35,7.72.13,1.86,1.21,3.63,1.49,5.49.93,6.14-4.68,10.57-9.74,10.06-3.48-.36-7.08-.36-10.31,1.69-1.64,1.04-3.47,1.71-5.41,2.04-.27.05-.54.09-.81.12Z"/><path d="M28.9,440.32c-4.77.58-7.72-1.41-8.55-6.23-.9-5.26-.75-10.5-.66-15.85.15-9.71-.33-19.66-4.45-28.99-1.47-3.34-1.15-7.43-2.09-11.07-2.1-8.12-1.37-16.19-.13-24.29.17-1.1.44-2.25.27-3.31-1.2-7.44-2.38-14.88-3.82-22.28-.61-3.16-2.26-6.14-2.65-9.31-1.03-8.39-.92-16.75,1.17-25.07,1.7-6.74,2.86-13.63,4.15-21.04-.16-2.64-1.59-4.65-.03-6.81.41-.56-.09-1.96-.44-2.86-1.96-5.03-4.6-9.88-5.87-15.08-1.56-6.38-5.75-12.36-3.62-19.44-2.38-9.44,1.87-18.49,1.67-27.8-.09-3.95.42-7.94-.07-11.82-.85-6.88-2.22-13.7-3.42-20.53-1.03-5.83.13-11.25,4.38-15.27,3.12-2.95,6.7-5.4,11.87-4.8,4.67.54,9.59,0,14.26-.83,10.18-1.84,20.24-4.44,30.43-6.18,4.17-.71,8.61-.21,12.89.16,2.4.21,3.81,1.8,4.57,4.46,1.48,5.16-.13,9.8-1.97,14.24-2.64,6.36-4.98,12.82-5.35,19.63-.23,4.24,1.07,8.6,1.93,12.86,2.15,10.7.43,20.72-3.93,30.71-4.52,10.35-6.88,21.37-6.99,32.76,0,.39.31.89.16,1.16-1.34,2.35-1.4,5.07,1.16,5.85,2.03.63,5.19.04,6.93-1.25,8.13-6.03,15.84-12.74,20.58-21.83,2.05-3.95,3.07-8.79,3.23-13.27.16-4.64,1.5-8.98,3.35-12.74,2.94-5.97,3.11-12.13,3.78-18.37.75-6.96,1.12-14.02,2.62-20.82,1.19-5.4,3.06-10.99,8.97-13.58,1.18-.52,2.24-1.29,3.44-1.74.91-.35,1.93-.45,2.92-.52,10.88-.77,20.65-4.9,30.1-9.99,2.1-1.13,4.07-2.55,6.27-3.42,2.82-1.11,5.96-.9,8.07,1.24,2.41,2.45,3.09,5.52,2.53,9.35-1.25,8.37-5.74,15.55-7.75,23.61-1.23,4.93-1.55,9.82-1.87,14.81-.58,8.9.84,17.84-1.23,26.77-.95,4.13-2.33,8.1-4.56,11.28-5.18,7.43-8.25,15.57-10.72,24.13-2.3,7.98-6.53,14.83-12.46,20.82-4.08,4.12-7.17,9.21-10.93,13.67-4.62,5.5-1.42,11.35,3.39,13.15,5.52,2.07,10.04,5.59,14.97,8.56,5.93,3.57,9.82,8.86,12.74,14.74,1.76,3.54,4.39,5.97,6.98,8.61,3.15,3.23,6.39,6.38,9.57,9.57,3.33,3.33,4.78,7.71,5.55,12.04,1.56,8.69,4.29,16.64,9.57,23.92,4.71,6.47,1.02,13.55-7.49,15.65-5.44,1.35-11.01,2.28-16.28,4.11-5.03,1.75-9.65,4.65-14.62,6.63-4.81,1.91-9.54,4.9-15.13,3.15-6.64-2.07-11.85-5.81-14.16-12.71-1.74-5.2-2.9-10.66-5.26-15.55-1.8-3.73-4.66-7.2-7.77-9.98-5.98-5.32-10.3-11.32-11.62-19.39-.52-3.16-1.33-6.46-2.87-9.21-1.23-2.21-3.56-4.01-5.77-5.4-3.26-2.04-6.45-.65-7.69,3.17-1.26,3.88-1.77,7.82-1.82,12.03-.06,6.44,2.48,11.91,4.36,17.73,2.02,6.27,1.38,12.74.47,19.22-.64,4.59-.96,9.31-.62,13.91.24,3.34,2.17,6.53,2.68,9.89,1.68,11.06-8.43,19.04-17.54,18.11-6.27-.64-12.76-.64-18.57,3.04-2.97,1.88-6.25,3.08-9.75,3.67-.49.08-.97.15-1.46.21Z"/><path d="M726.64,332.99c-4.41-.18-8.42,1.12-12.65,1.36-2.23.13-4.49.35-6.69.09-5.28-.64-8.46-5.62-8.38-11.1.1-7.14,2.78-13.68,3.88-20.56.83-5.24,1.91-10.39,1.65-15.88-.23-4.96-1.45-9.73-1.66-14.61-.32-7.6-1.19-15.19.08-22.82,1.07-6.4.36-12.5-1.93-18.82-2.66-7.35-6.4-14.41-7.19-22.45-.52-5.27-.2-10.42.27-15.66.48-5.32,1.02-10.65.74-16.1-.23-4.44-1.1-8.74-1.41-13.13-.89-12.13-.27-24.13,2.48-36.08,1.66-7.22,2.95-14.93.6-22.14-1.86-5.72-2.55-11.54-3.75-17.32-1.01-4.87.97-8.55,4.74-11.63,5.1-4.16,10.98-3.57,16.7-2.72,6.47.97,12.88.98,19.36.71,8.63-.36,17.33-.34,24.35,5.81,5.22,4.58,9.33,9.97,11.89,16.66,3.12,8.16,4.81,16.58,6.28,25.12.49,2.83,1.06,5.9,2.56,8.23,1.09,1.68,1.15,3.32,1.97,5.18,3.9,7.59,5.14,15.69,5.57,23.62.48,8.67,2.57,16.99,3.59,25.5.22,1.83,3.22,9.81,3.85,10.73.26.38.45.81.67,1.22.11-.41.43-.89.32-1.24-1.21-4.06-1-8.33-2.85-12.42-1.42-3.14-.82-7.28-.79-10.97.04-6.31.03-12.64.62-18.91.53-5.57-1.23-10.75-1.83-16.11-1.29-11.73-1.57-23.34,3.28-34.5.86-1.98,1.16-4.21,2.06-6.18,3.04-6.71,2.82-13.6,1.54-20.6-.63-3.48-.34-6.78,2.2-9.49,1.94-2.08,4.1-2.84,7.23-2.47,8.12.96,15.67,3.85,23.32,6.32,4.79,1.54,9.22,4.13,10.91,9.41.75,2.35,1.56,4.93,1.31,7.3-.55,5.22-2.03,10.35-2.62,15.57-.66,5.92-.62,11.91-1.13,17.84-.8,9.27-.47,18.46,1.7,27.5,2.29,9.56,1.36,19.18.39,28.69-1.27,12.49-2.36,24.88.61,37.27.62,2.6.75,5.32,1.41,7.91,2.71,10.65,1.38,21.27.15,31.94-.81,7.01-2.18,13.89-1.59,21.15.44,5.42,1.26,10.74,2.05,16.08,1.12,7.54-1.48,13.96-6.08,19.49-1.64,1.97-4.75,3.24-7.39,3.75-2.67.51-5.39.75-8.11,1-2.67.24-5.34.48-7.95.97-3.7.7-7.2,2.45-10.83,3.63-10.52,3.39-18.15.61-21.98-10.64-1.93-5.64-1.5-11.42-2.63-17.09-1.5-7.47-4.53-14.33-7.04-21.41-1.85-5.22-3.64-10.16-3.92-16.02-.36-7.68-1.31-15.64-5.24-22.82-4.72-8.62-5.67-18.36-7.05-27.88-.44-3.06.21-6.27.31-9.41.01-.26-.28-.73-.46-.75-.43-.04-1.19.02-1.28.24-.39,1-.84,2.09-.81,3.13.3,8.82-.59,17.55-1.59,26.3-.33,2.83-.05,5.82.44,8.65,2.04,11.92,1.26,23.81-.07,35.71-.79,7.01-2.1,13.9-1.69,21.09.34,5.95,1.14,11.88,1.19,17.83.07,9.06-1.47,17.34-9.89,22.88-2.91,1.91-6.06,3.17-9.26,3.71-1.5.25-3,.36-4.51.3Z"/><path d="M285.12,360.32c-3,.42-6.01-.92-8.65-2.41-5.05-2.85-9.54-6.68-12.14-11.77-3.13-6.12-7.49-10.92-12.6-15.25-4.36-3.69-7.41-8.13-8.02-13.94-.37-3.56-1.21-6.98-1.19-10.67.04-4.94-2.22-9.48-6.68-12.3-.87-.55-2.59-.67-3.41-.17-.86.53-1.65,2.1-1.55,3.13.85,8.79-1.48,17.02-3.98,25.26-1.21,3.99-1.96,8.15-.82,12.23.92,3.31,2.7,6.37,3.73,9.66,1.29,4.12,3.24,8.07,2.02,12.75-2.23,8.57-9.34,13.32-18.56,10.85-4.15-1.11-8.45-1.48-12.72-.55-1.97.43-3.83,1.39-5.8,1.77-2.54.49-5.08,0-7.33-1.23-3.86-2.12-5.38-6.12-3.82-11.3,1.92-6.38,2.22-12.67.72-19.16-.96-4.13-1.44-8.36-2.2-12.54-.76-4.17-.14-8.21.89-12.27,1.03-4.05,2.09-8.12,2.74-12.24.55-3.48,1.63-7.16-.96-10.41-.93-6.92-4.83-12.79-6.91-19.33-2.96-9.3-3.54-18.37-1.41-27.88,1.07-4.78,1.9-9.81.36-14.82-.7-2.28-.76-4.75-1.28-7.09-1.71-7.64.2-14.93,2.81-21.86,3.18-8.45,4.15-16.51.49-25.03-1.81-4.21-3.28-8.71-3.96-13.22-1.67-11.09,6.9-21.58,19.12-20.81,7.54.47,14.83,2.33,22.32,2.76,2.53.14,5.07.21,7.6.14,2.72-.07,5.49-.08,8.15-.56,5.54-.99,10.98-.17,16.24,1.18,3.9,1,7.85,2.02,11.73,3.38,6.59,2.31,11.2,6.83,15.02,11.94,6.3,8.46,13.23,16.12,21.61,22.55,3.59,2.76,6.46,6.31,7.54,10.98.48,2.1,1.47,4.1,1.83,6.22.36,2.12.23,4.32.38,6.9-1.53,7.83-3.18,15.23-4.73,22.65-.84,4-1.94,7.93-1.44,12.15.95,8.1-.94,15.78-5.47,22.41-3.45,5.05-8.34,8.94-14.35,10.94-2.72.9-5.51,1.58-8.29,2.29-2.4.62-3.24,2.19-1.92,4.28.9,1.44,2.32,2.54,3.34,3.92,2.26,3.06,4.26,6.21,5.96,9.71,2.48,5.1,3.41,10.67,5.81,15.76,1.62,3.43,3.96,6.02,6.82,8.2,2.27,1.73,3.61,3.98,4.36,6.53,1.78,6.09,5.41,10.1,11.22,12.92,3.68,1.78,7.83,3.4,10.37,7.16,2.59,3.82.77,8.59-3.85,9.59-1.03.22-2.07.38-3.11.54-1.2.18-2.39.37-3.57.65-2.24.53-4.51,1.08-6.61,2-2.7,1.2-5.52,1.87-8.37,2.36-2.48.42-4.99.7-7.48,1.06ZM232.84,207.89c.32,2.23.65,4.47,1.14,6.67,1.02,4.54.32,8.6-2.75,12.22-1.43,1.68-2.09,3.57-2.02,5.97.11,3.26-.43,6.55-.83,9.81-.22,1.8-.59,3.62-1.16,5.34-.63,1.9-.18,3.2,2.01,4.51,2.41.8,4.07-.63,5.79-1.93,1.25-.94,2.5-1.91,3.84-2.71,2.57-1.54,5.35-2.76,7.8-4.48,3.93-2.76,4.4-6.71,2.72-11.3-1.29-3.55-3.37-6.89-2.49-11.25.66-3.21-.27-6.8-.77-10.17-.18-1.18-.96-2.7-1.93-3.26-2.27-1.31-4.79-2.25-7.28-3.12-.77-.27-1.46-.34-2.05-.24-1.54.26-2.35,1.72-2.03,3.94Z"/><path d="M640.13,296.64c-1.84-.64-3.87-.83-5.62-1.64-5.37-2.48-10.42-.27-15.41,1.08-3.63.99-6.9,3.32-10.54,4.23-2.28.57-5.21.19-7.36-.81-3.15-1.47-6.2-3.54-7.84-7.29-1.99-3.62-2.38-7.08-2.08-11.06.42-5.61.05-11.42-1.06-16.93-.73-3.64-1.29-7.3-1.88-10.96-1.01-6.23.16-12.29,2.02-18.14,2.78-8.74,3.41-17.53,1.43-26.41-.92-4.13-2.85-8.04-3.75-12.17-.63-2.88-.57-5.92-.46-8.98.19-5.09.95-10.04,1.99-14.94.85-4,1.92-7.87,2.09-12.03.19-4.52-.07-7.64-1.48-12.78-2.34-8.57-3.76-17.3-1.25-26.1,1.4-4.89.8-9.45-1.2-13.97-.46-1.04-.97-5.3-1.17-6.23-.66-3.11.95-5.3,2.85-7.32,2.02-2.14,4.3-3.94,7.34-4.5,3.37-.62,6.72-1.87,10.07-1.85,6.93.04,13.87.57,20.78,1.25,4.95.48,9.84,1.69,14.79,2.21,1.61.17,3.33-.91,5.02-1.3,2.92-.67,6.05-.81,8.77-1.94,5.96-2.49,12.26-2.81,18.49-3.74,3.37-.5,6.36.56,9.31,1.63,2.7.98,4.48,6.04,3.56,9.04-1.77,5.74-5.11,10.3-10.01,13.79-2.37,1.68-4.75,3.42-6.78,5.47-1.5,1.52-2.97,3.44-3.57,5.44-2.55,8.56-8.94,11.76-16.97,13.54-5.44,1.21-11.24,1.23-16.17,4.65-2.32,1.61-3.51,3.81-4.21,6.11-.92,3.04-1.76,6.33-.69,9.53.51,1.52-.55,2.89.25,4.46.66,1.29.55,3,.69,4.53.31,3.36,2.18,5.98,4.22,8.38,3.39,3.97,7.93,2.76,11.94,1.6,4.38-1.27,8.35-4.06,12.75-5.07,5.93-1.36,12.08-2.81,18.22-.51,10.05,3.77,12,14.93,6.88,22.51-2.82,4.18-6.35,7.7-10.56,10.71-3.07,2.2-5.94,5.3-7.64,8.64-2.67,5.23-6.98,7.98-11.98,9.89-3.75,1.43-7.74,2.44-11.71,3.03-7.34,1.1-11.27,5.67-10.83,13.19.05.92-.13,1.85-.25,2.77-.58,4.26,1.25,7.98,3.26,11.36,2.17,3.64,6.6,2.77,9.11,1.36,5.4-3.02,11.17-3.62,16.96-4.22,1.37-.14,2.74-.29,4.12-.46,4.06-.52,7.86-1.89,11.77-2.9,5.6-1.44,11.37-1.81,16.2,2.9,3.09,3.02,5.15,9.05,4.78,13.7-.72,9.07-6,14.31-13.63,18.28-5.84,3.05-11.48,6.49-15.9,11.73-2.8,3.32-6.51,5.81-11.07,6.57-2.68.45-5.32,1.14-7.97,1.72-.38.08-.75.14-1.11.18-2.6.29-5.07-.39-7.53-1.25Z"/><path d="M358.52,202.98c0-1.74.73-3.37-.03-5.26-1.37-3.41-2.3-7-3.32-10.54-.36-1.26-.37-2.62-.73-3.89-.18-.65-.77-1.19-1.17-1.77-.24.72-.53,1.43-.71,2.16-.07.29.12.64.14.97.35,4.86-.23,9.5-2.92,13.74-1.3,2.05-1.82,4.5-1.53,6.81.67,5.34.09,10.31-2.5,15.13-1.39,2.59-1.97,5.61-3.19,8.32-.82,1.82.61,2.48,1.35,3.45,1.02,1.34,1.75-.31,2.34-.65,1.31-.76,2.3-2.05,3.46-3.09,2.7-2.4,5.76-4.17,9.03-5.71,3.79-1.79,4.99-3.92,2.47-7.41-2.55-3.54-3.74-7.28-2.7-12.25ZM414.54,268.37c1.3,4.33-.19,8.13-3.52,11.13-2.39,2.15-5.33,3.57-8.27,3.93-6.15.77-11.45,3.34-16.48,6.58-2.77,1.79-5.81,2.07-8.84,2.53-1.98.3-4.77-2.17-5-4.62-.29-3-.09-6.05-.08-9.07,0-2.08.44-4.25,0-6.22-1.22-5.42-.25-10.56,1.2-15.72.47-1.68,1.18-3.51-.74-4.87-.7-.5-1.11-.51-2.14-.12-5.98,2.27-11.66,5.38-18.2,6.15-3.36.4-5.96,2.59-6.87,6.05-.98,3.72-1.47,7.51-.87,11.39.24,1.54-.35,3.37.27,4.67,1.29,2.73,1.4,5.63,2,8.46.86,4.1-2.82,10.69-7.23,12.46-4.32,1.73-8.86,2.07-13.33,2.8-3.1.51-5.88,1.68-8.65,2.93-1.76.79-3.29,2.11-5.08,2.78-.34.13-.69.22-1.04.28-1.43.24-2.93-.06-4.02-1.06-1.24-1.13-2.41-2.6-1.92-4.63.67-2.77,1.06-5.62,1.95-8.31,1.27-3.84,1.22-7.72,1.06-11.66-.24-5.99-.18-11.95,1.9-17.72,1.16-3.21,1.58-6.51,1.55-10.01-.03-2.73-.81-5.32-.8-7.98.04-5.6-1.73-10.95-2.11-16.45-.45-6.5.62-12.94,3.2-18.96,2.73-6.36,4.05-12.74,2.93-19.71-1.29-8-.34-15.91,2.67-23.46,1.05-2.63,2.54-5.08,3.94-7.56,2.95-5.22,4.97-10.65,4.62-16.8-.36-6.37.85-12.65,3.74-18.19,3.35-6.41,9.73-10.16,17.77-8.17,3.73.92,6.98,2.76,10.18,4.66,3.71,2.2,7.69,3.72,11.65,5.28,4.71,1.86,8.63,4.58,11.71,8.74,2.82,3.81,4.72,7.84,6.29,12.33,1.33,3.81.98,7.55,1.61,11.27.96,5.69,2.89,10.9,6.29,15.8,2.17,3.72,3.85,7.34,4.57,11.48.85,4.97.42,9.84.04,14.75-.35,4.46-.66,8.98.71,13.26,1.15,3.6,2.87,7.05,4.6,10.43,2.04,3.99,2.76,8.15,2.82,12.59.08,4.93-.54,9.86.23,14.79.48,3.09,1.79,5.79,3.11,8.52.85,1.75,2.03,3.38,2.58,5.21Z" fill="#57b2c8"/><path d="M468.33,127.41c.57,2.93.69,5.82.29,8.82-.27,2.06-.04,4.25.31,6.32.73,4.3.26,8.51-.7,12.68-1,4.35-1.6,8.79-.19,13.03.89,2.69,1.24,5.43,1.97,8.11,1.03,3.81.17,7.47-.59,11.14-.77,3.68-1.83,7.3-2.55,10.99-.34,1.7-.41,3.53-.2,5.26.39,3.28,1.13,6.51,1.6,9.77.82,5.62.77,11.28-.05,16.88-.71,4.83-1.72,9.61-2.74,14.39-.47,2.2-.56,4.34-.14,6.54.67,3.57,1.24,7.16,1.85,10.74.93,5.5-1.22,9.2-6.56,11.32-.86.34-1.69,1.02-2.55,1.05-3.31.12-6.04,1.85-8.86,3.17-.99.46-1.95.78-2.89.94-2.23.38-4.33-.11-6.31-1.6-2.65-1.99-3.79-4.78-3.51-8.24.31-3.82.08-7.68.42-11.49.21-2.42-.15-4.7-.62-7-.27-1.32-1.17-2.56-1.24-3.86-.21-4.32.1-8.63,1.22-12.85,1.01-3.8,1.25-7.53-.64-11.24-.76-1.48-.82-3.3-1.43-4.88-1.53-3.94-3.2-7.83-4.81-11.75-.12-.3-.12-.65-.23-1.3-.24-1.41-.34-2.52-.62-3.58-1.33-4.93-.62-9.77.61-14.57.89-3.49,1.33-6.93.52-10.53-1.37-6.04-.85-12.02,1.26-17.84,1.24-3.4,1.79-6.95,1.85-10.51.04-2.54-1.1-4.85-2.33-7.14-1.17-2.17-2.14-4.57-2.62-6.98-.79-3.96.22-7.52,3.27-10.45,2.43-2.33,5.48-2.21,8.4-2.37,2.99-.16,6.01.24,9.01.19,3.69-.06,7.38-.43,11.07-.5,3.97-.08,7.98,3.41,8.75,7.33Z" fill="#57b2c8"/><path d="M90,17.46c2.37.69,3.59,3.25,3.09,5.69-.68,3.39-3.14,5.4-5.51,7.44-2.62,2.26-5.51,4.19-7.42,7.18-.44.69-1.09,1.25-1.72,1.98-1.03.68-1.99,1.22-2.92,1.82-1.95,1.26-4.1,1.98-6.37,2.28-3.73.5-4.71,1.79-3.9,5.57.21.97.33,1.96.51,2.94.36,2.02.32,4.04.26,6.08-.03.85.11,1.76.44,2.54,1.17,2.76,2.36,5.51,2.63,8.54.26,2.87.08,5.72-.52,8.55-.47,2.22-.98,4.43-1.25,6.68-.15,1.31.11,2.67.23,4.01.05.59.15,1.19.3,1.76,1.14,4.27.6,8.55.05,12.83-.24,1.87-.32,3.72-.21,5.63.13,2.22.54,4.38.77,6.57.29,2.78-1.72,5.39-4.71,5.91-2.61.46-4.85,1.65-7.2,2.71-1.71.77-3.58,1.14-5.26-.35-1.31-1.17-1.44-2.76-1.37-4.25.11-2.5.11-4.87-.89-7.27-.81-1.95-1.31-4.12-1.46-6.22-.13-2,.42-4.03.61-6.06.33-3.5,1.16-7.01.1-10.52-.58-1.93-1.38-3.8-1.88-5.74-.52-2.04-2-3.89-1.35-6.18-.84-3.08.33-6.15.05-9.23-.06-.68.18-1.41.02-2.05-1.06-4.16-.59-8.33,0-12.45.28-1.91.13-3.69-.23-5.5-.27-1.33-1.27-1.84-2.63-1.92-2.22-.12-3.99,1.05-5.96,1.68-1.97.63-4.09,1.51-6.18.41-2.41-1.27-4.78-2.62-7.16-3.93-1.34-.74-2.32-2.39-1.72-4.42.27-.92-.17-2.01-.94-2.81-.95-.98-1.7-2.1-1.63-3.51.03-.69.25-1.62.74-2.01,2.29-1.85,4.82-3.23,7.79-3.85,2.69-.56,5.35-1.26,8-2.06,2.54-.77,4.89-1.87,7.33-2.86,1.62-.65,3.5-.65,5.26-.97,3.08-.57,6.16-.32,9.26-.12,3.08.19,6.09-.15,8.95-1.53,2.25-1.09,4.44-2.44,7.02-2.63,1.69-.12,3.49-.41,5.08,0,3.35.83,6.5-.06,9.73-.5.72-.1,1.51-.04,2.21.16Z"/><path d="M151.76,17.44c.25,1.57.55,3.14.8,4.71.54,3.45.09,6.87-.51,10.25-.38,2.12-.53,4.22-.27,6.34.17,1.38.41,2.76.71,4.11.23,1.05.81,2.06.87,3.11.12,1.87-.02,3.76-.05,5.63-.06,3.54-1.31,6.87-1.79,10.34-.36,2.64.14,5.14.99,7.7,1.35,4.04,2.61,8.18,1.23,12.54-.67,2.1-1.17,4.26-1.78,6.38-.67,2.33-1.04,4.69-.98,7.14.05,2.12.03,4.26-.12,6.38-.22,3.2-2.18,5.03-5.07,6.08-1.69.62-3.37,1.3-4.99,2.08-.93.44-1.71,1.22-2.64,1.66-.85.41-1.8.68-2.74.81-.87.12-1.74-1.14-1.69-2.4.05-1.42.45-2.86.28-4.25-.3-2.57.12-5.17-1.03-7.73-.99-2.21-1.25-4.76-1.7-7.19-.17-.93.5-1.97-.47-2.84-.43-.39-.47-1.35-.91-1.54-.52-.22-1.32,0-1.91.23-1.46.59-2.84,1.33-4.44,1.61-.7.12-1.37.83-1.9,1.42-2.1,2.33-3.03,5.18-3.77,8.18-.88,3.53-.48,6.96.2,10.42.38,1.93.1,3.69-1.24,5.18-.85.95-1.78,1.77-3.17,1.88-.66.05-1.3.28-1.96.31-2.23.11-4.12,1.2-6.13,2-1.01.4-2.11.69-3.19.78-1.21.09-2.45-1.16-2.79-2.42-.5-1.83-.22-3.65.03-5.47.29-2.13.86-4.23.98-6.36.09-1.57.17-3.11-.51-4.78-1.55-3.85-1.62-7.93-.56-12.01.26-1.01.41-2.12.26-3.13-.6-4.12-.39-4.76-3.29-10.58-1.1-2.21-2.05-4.6-2.09-7.14-.02-1.6.09-3.24.48-4.78.61-2.39,1.08-4.8,1.28-7.25.04-.5.03-1.03-.09-1.52-.57-2.41-.41-4.97-1.62-7.23.45-1.45-.25-2.96.34-4.45.84-2.11,1.52-4.29,2.2-6.47.88-2.82.73-5.56-.75-8.19-.6-1.07-1.14-2.2-1.57-3.35-1.11-2.99,1.02-7.77,4.02-8.69.98-.3,2.21.09,3.29.29,1.26.23,2.55.48,3.74.94,1.68.65,3.42.44,5.13.65,3.29.4,6.87,2.18,7.53,6.29.05.33.15.65.16.98.17,3.14,1.49,5.89,2.82,8.65.28.59.49,1.33.42,1.96-.36,3.05-.9,6.08-1.24,9.14-.23,2-.49,4.03,0,6.03.29,1.17.71,2.32.98,3.5.85,3.71-.11,7.18-1.46,10.6-.94,2.41-1.81,4.87-1.82,7.49,0,.49.55,1.18,1.03,1.43.37.19,1.08-.05,1.54-.3,1.02-.55,1.98-1.23,2.96-1.85,1.43-.9,3.09-.89,4.67-1.2,2.13-.41,2.63-1.08,2.58-3.21-.08-3.29.19-6.54,1.11-9.74.7-2.41,1.23-4.87,1.74-7.33.14-.66.15-1.49-.12-2.08-1.09-2.36-1.68-4.85-2.02-7.4-.53-3.98.22-7.71,2.31-11.16.39-.65.73-1.34,1.17-2.13.47-1.41.9-2.69,1.22-4,.36-1.49.3-3,.06-4.51-.14-.87-.31-1.7-.11-2.66.48-2.3,1.21-2.81,3.6-3.12,2.37-.31,4.62.12,6.87.53,2.49.45,4.42,1.94,4.88,4.73Z"/><path d="M203.19.63c1.29.39,2.27,2.71,1.91,4.15-.67,2.74-2.12,4.97-4.33,6.74-1.06.85-2.14,1.73-3.03,2.75-.67.75-1.3,1.69-1.53,2.65-.97,4.08-3.88,5.75-7.6,6.81-2.52.71-5.24.88-7.46,2.61-1.05.82-1.55,1.88-1.81,2.98-.35,1.45-.66,3.02-.07,4.49.28.7-.18,1.37.24,2.09.35.59.34,1.4.45,2.11.23,1.57,1.18,2.75,2.21,3.82,1.7,1.78,3.8,1.08,5.65.43,2.02-.71,3.81-2.13,5.85-2.72,2.75-.79,5.59-1.64,8.54-.73,4.82,1.5,6.03,6.68,3.84,10.38-1.21,2.04-2.77,3.79-4.67,5.31-1.38,1.11-2.64,2.65-3.35,4.26-1.11,2.52-3.06,3.93-5.36,4.96-1.72.77-3.56,1.35-5.41,1.74-3.42.71-5.14,2.96-4.73,6.48.05.43-.01.87-.04,1.31-.16,2.01.8,3.71,1.83,5.24,1.11,1.65,3.17,1.12,4.31.39,3.04-1.93,6.44-2.14,9.76-2.76,1.89-.35,3.64-1.1,5.45-1.68,2.59-.83,5.29-1.15,7.68.93,1.53,1.33,2.66,4.11,2.61,6.3-.09,4.27-2.43,6.88-5.9,8.95-2.66,1.59-5.22,3.35-7.15,5.93-1.23,1.63-2.9,2.9-5.02,3.38-1.25.28-2.47.68-3.69,1.03-1.4.39-2.74.12-4.09-.27-.88-.25-1.84-.28-2.68-.62-2.59-1.02-4.9.15-7.2.92-1.68.56-3.15,1.74-4.83,2.27-1.05.33-2.44.23-3.47-.18-1.52-.61-3.01-1.49-3.87-3.21-1.03-1.65-1.31-3.26-1.27-5.13.05-2.64-.28-5.36-.95-7.92-.44-1.69-.8-3.39-1.18-5.09-.64-2.9-.25-5.77.46-8.56,1.07-4.18,1.13-8.32-.04-12.43-.54-1.91-1.55-3.69-2.09-5.61-.37-1.34-.43-2.76-.45-4.2-.05-2.39.18-4.74.53-7.07.29-1.9.69-3.74.66-5.7-.03-2.13-.24-3.58-1.04-5.96-1.33-3.96-2.23-8.02-1.29-12.21.53-2.33.12-4.46-.94-6.53-.24-.47-.59-2.46-.71-2.89-.39-1.44.3-2.51,1.14-3.51.89-1.06,1.91-1.96,3.32-2.31,1.56-.38,3.1-1.06,4.68-1.14,3.25-.17,6.53-.1,9.78.03,2.34.09,4.66.53,7,.64.76.04,1.54-.52,2.32-.75,1.35-.39,2.82-.54,4.06-1.15,2.73-1.33,5.68-1.65,8.58-2.25,1.57-.33,3,.09,4.41.51Z"/></svg>