<?xml version="1.0" encoding="UTF-8"?><svg id="a" xmlns="http://www.w3.org/2000/svg" viewBox="0 0 636.99 619.56"><path d="M100.53,452.28c-1.07-.12-2.11-.28-3.16-.47-2.28-.39-4.45-1.28-6.49-2.35-2.1-1.1-3.84-2.79-5.16-4.75-.69-1.02-1.21-2.12-1.67-3.25-.52-1.27-.73-2.67-.9-4.02-.25-2.03-.15-4.15.14-6.18.09-.65.18-1.3.27-1.95.08-.59.25-1.17.38-1.75.23-1.07.52-2.11.81-3.16.32-1.14.72-2.25,1.1-3.37.71-2.11,1.63-4.14,2.52-6.18.91-2.09,1.96-4.15,3.04-6.15,1.25-2.31,2.54-4.6,3.88-6.86,2.41-4.05,5-8,7.67-11.81.1-.14.19-.28.24-.34.03-.04.06-.08.09-.12.03-.05.07-.1.34-.49.15-.21.29-.42.3-.43,5.07-7.28,10.58-14.25,16.2-21.12,5.66-6.91,11.58-13.62,17.59-20.22,12.22-13.4,25.01-26.23,38.08-38.8,13.09-12.59,26.63-24.73,40.37-36.6,1.4-1.22,2.81-2.42,3.98-3.42.28-.24.55-.47.83-.71.28-.24.57-.52.87-.75.12-.1.23-.2.35-.3.27-.23.54-.46.55-.47,6.76-5.78,13.62-11.45,20.51-17.07,7.04-5.74,14.14-11.4,21.31-16.98,14.43-11.23,29.08-22.18,43.98-32.76,12.63-8.97,25.43-17.69,38.42-26.14,7.44-4.89,14.99-9.62,22.61-14.23,3.59-2.18,7.2-4.34,10.82-6.47.03-.02.05-.04.08-.06,0,0,0,0,.01,0,.08-.06.18-.13.29-.18.07-.04.14-.08.21-.12.14-.1.3-.18.46-.24.22-.13.44-.26.67-.39.37-.22.73-.45,1.1-.66,1.41-.82,2.82-1.64,4.24-2.45,3.29-1.89,6.6-3.75,9.92-5.59,6.32-3.5,12.7-6.89,19.15-10.14,2.74-1.38,5.48-2.74,7.95-3.92,3.41-1.65,6.84-3.24,10.3-4.79.12-.06.24-.11.36-.17.09-.04.17-.08.26-.1,3.75-1.67,7.52-3.27,11.32-4.81,7.79-3.15,15.75-5.95,23.87-8.08,5.27-1.38,10.63-2.48,16.06-2.95,4.89-.42,10.01-.29,14.58,1.33.04.01.08.03.11.04l.05.02c1.91.71,3.66,1.63,5.26,2.91,1.62,1.29,2.87,2.96,3.81,4.79.94,1.83,1.42,3.95,1.61,5.98.2,2.11.14,4.25-.16,6.35-.6,4.18-1.85,8.24-3.41,12.16-1.61,4.06-3.56,7.96-5.65,11.8-3.27,6.03-7.03,11.8-10.78,17.14-.19.28-.39.55-.39.56-9.86,14.12-21.01,27.32-32.54,40.11l-.32.34c-.18.2-.36.4-.48.54-11.82,13.04-24.19,25.59-36.89,37.77-12.64,12.13-25.58,23.95-38.81,35.44-2.76,2.4-5.53,4.8-8.07,6.96-.58.49-1.15.98-1.73,1.48-.15.12-.29.25-.44.37-6.64,5.69-13.38,11.27-20.16,16.8-6.75,5.5-13.53,10.96-20.42,16.29-6.8,5.26-13.59,10.52-20.47,15.66-6.96,5.2-13.96,10.34-21.02,15.4-12.45,8.94-25.08,17.67-37.93,26.04-.47.31-.94.62-1.34.88-.08.05-.16.1-.24.16h-.01c-.31.21-.62.41-.66.44-14.34,9.37-28.94,18.33-43.79,26.87-5.76,3.31-11.6,6.51-17.46,9.64-5.63,3.01-11.33,5.93-17.09,8.69-.12.06-.24.12-.33.16-.44.21-.88.43-1.21.58-8.02,3.88-16.17,7.49-24.47,10.71-4.37,1.7-8.79,3.27-13.25,4.72-4.07,1.32-8.22,2.52-12.41,3.41-4.36.93-8.78,1.74-13.25,1.91-.92.04-1.84.06-2.76.06-1.21,0-2.42-.05-3.62-.18ZM104.28,447.36c.94,0,1.88-.03,2.82-.06,1.28-.1,2.55-.21,3.83-.35,1.41-.15,2.8-.41,4.2-.64,2.99-.58,5.97-1.22,8.91-2.02,3.13-.85,6.22-1.81,9.3-2.81,5.85-2.01,11.65-4.15,17.35-6.57,5.78-2.45,11.49-5.03,17.03-7.66.05-.02.1-.05.15-.07.05-.02.1-.05.15-.07.54-.26,1.07-.51,1.3-.63.16-.08.33-.16.49-.24,7.66-3.77,15.24-7.67,22.74-11.76,7.72-4.21,15.36-8.6,22.92-13.09,10.61-6.31,21.09-12.86,31.42-19.6.05-.03.1-.06.14-.09.04-.03.09-.06.11-.07.31-.2.62-.4.66-.43.19-.12.37-.25.56-.37.53-.35,1.06-.7,1.32-.87,14.58-9.62,28.96-19.53,43.1-29.79,14.05-10.19,27.89-20.69,41.51-31.44,11.75-9.27,23.33-18.75,34.72-28.45.07-.06.14-.12.21-.18.22-.18.43-.37.65-.56.52-.45,1.05-.89,1.57-1.34,13.16-11.28,26.09-22.82,38.72-34.68,13.08-12.28,25.83-24.93,38.09-38.03,2.11-2.25,4.19-4.52,6.11-6.62.11-.12.22-.24.25-.28.17-.18.33-.37.48-.53,11.44-12.62,22.41-25.72,32.17-39.55.04-.05.07-.1.11-.15.03-.04.05-.08.18-.25.06-.09.12-.18.18-.26,0,0,0,0,0,0l.1-.14.15-.22.02-.03c4.28-6.19,8.3-12.53,11.8-19.18,1.72-3.36,3.29-6.79,4.63-10.32.77-2.17,1.44-4.36,1.97-6.6.26-1.28.47-2.57.61-3.87.07-1.16.1-2.3.05-3.46-.05-.53-.11-1.06-.19-1.59-.14-.67-.31-1.32-.5-1.98-.14-.37-.28-.73-.44-1.1-.18-.34-.36-.66-.55-.99-.22-.31-.44-.61-.67-.91-.24-.28-.5-.54-.75-.81-.42-.37-.85-.71-1.3-1.04-.35-.22-.7-.43-1.05-.64-.57-.29-1.14-.56-1.75-.78-.09-.03-.18-.07-.27-.1-.74-.24-1.49-.45-2.25-.64-1.04-.21-2.09-.37-3.16-.48-1.83-.13-3.65-.14-5.48-.07-2.93.17-5.84.57-8.74,1.09-5.85,1.11-11.6,2.7-17.17,4.5-.06.02-.12.04-.19.06l-.05.02c-8.79,2.94-17.38,6.4-25.83,10.19-3.4,1.63-6.8,3.27-10.15,4.88-.04.02-.07.03-.06.03,0,0,.01,0-.13.06-.07.03-.14.07-.17.08-.06.03-.11.05-.17.08-.04.02-.09.04-.09.04-.26.13-.52.25-.73.35-.39.19-.79.38-1.04.5-.84.41-1.68.81-2.47,1.19-.62.3-1.25.6-1.58.76-.44.21-.87.42-1.21.58-.1.05-.2.1-.3.14h0c-.16.08-.32.16-.38.18-.12.06-.24.12-.3.15-.07.03-.14.07-.21.1-7.93,4.03-15.76,8.22-23.49,12.6-3.37,1.91-6.72,3.84-10.06,5.8-.14.08-.28.16-.42.24-4.64,2.72-9.26,5.49-13.85,8.3-6.78,4.16-13.51,8.4-19.9,12.55-1.03.68-2.06,1.34-3.09,2.01-15.19,9.98-30.13,20.32-44.85,30.96-14.51,10.49-28.78,21.34-42.8,32.48-5.83,4.63-11.62,9.3-17.38,14.03-5.26,4.31-10.46,8.7-15.66,13.09-.14.12-.28.24-.42.35-.22.19-.45.38-.67.57-.06.06-.13.12-.2.18-.04.04-.09.07-.13.11-.28.27-.6.51-.9.76-.23.19-.46.39-.69.59-13.8,11.82-27.32,23.96-40.54,36.44-12.98,12.24-25.62,24.86-37.74,37.96-1.53,1.65-3.05,3.31-4.55,4.96-5.7,6.34-11.32,12.74-16.73,19.32-5.39,6.57-10.58,13.28-15.5,20.2l-.02.03c-.04.06-.08.11-.12.17l-.03.04c-.09.14-.19.27-.24.35-.05.07-.1.14-.15.22-.01.02-.02.03-.03.04-.11.15-.21.31-.32.46l-.23.32c-4.14,5.94-7.94,12.09-11.38,18.46-.9,1.76-1.77,3.54-2.62,5.33-.86,1.8-1.57,3.68-2.29,5.53-.3.87-.59,1.75-.89,2.62-.3.88-.51,1.81-.77,2.71-.17.76-.33,1.52-.5,2.29-.09.42-.12.86-.18,1.29-.09.62-.17,1.23-.23,1.85-.06,1-.08,1.99-.04,2.99.06.67.14,1.32.24,1.98.07.35.16.7.26,1.04.19.54.41,1.06.65,1.58.18.35.37.69.58,1.03.29.43.6.84.93,1.25.2.22.4.43.62.63.28.25.57.48.87.7.55.36,1.11.69,1.69,1,.59.28,1.19.53,1.79.76.79.26,1.59.49,2.4.68.58.1,1.16.2,1.74.3.5.09,1.01.12,1.52.18.95.05,1.89.1,2.85.1Z"/><path d="M154.46,534.48c-42.3-4.61-72.18-46.62-71.44-87.69.72-7.25.14-23.1,6.27-27.45,5.81.4.7,6.97.63,10.19-9.05,41.17,15.58,89.07,58.02,98.73,34.61,6.4,67.79-11.94,96.41-29.32,74.9-46.43,142.28-104.02,208.88-161.38,33.54-31.3,71.59-58.65,99.74-95.17,24.09-35.52,21.15-91.62-14.49-118.46-14.18-8.72-31.93-9.72-48.13-9.54-3.36-.77-9.13,3.5-10.96-.66.21-8.35,30.9-3.23,36.83-2.77,45.54,5.14,63.6,58.56,55.51,98.4-6.02,39.32-40.44,64.79-67.86,90.11-60.46,54.02-121.74,107.28-186.69,155.89-44.58,31.03-106.63,82.8-162.71,79.12Z"/><path d="M463.61,206.16c-1.47,1.67-2.95,3.32-4.44,4.98l-.32.34c-.18.2-.36.39-.48.54-1.29,1.42-2.59,2.84-3.9,4.25-19.96,10.24-39.23,21.9-57.89,34.31-.02.02-.05.03-.07.05-62.57,43.54-127.06,86.06-180.32,141.07-8.97,10.18-18.13,20.18-27.03,30.39h0c-.08.04-.15.08-.23.13-3.77,2.02-7.57,3.99-11.4,5.9,12.47-14.94,24.51-28.26,27.43-31.54.04-.04.07-.08.1-.12,36.23-40.81,80.77-73.21,124.45-105.53,43.49-29.92,86.12-62.42,134.09-84.76Z"/><path d="M265.25,461.5c-9.37-14.86-19-29.64-27.63-44.92-1.27-3.57,4.24-4.86,5.03-1.24,4.88,8.39,10.18,16.56,15.14,24.91,3.88,6.3,7.97,12.47,11.9,18.74,1.65,2.82-2.77,5.41-4.43,2.52Z"/><path d="M254.14,439.8c-.85-1.12-.61-2.72.49-3.57,4.22-3.42,8.64-6.61,11.83-11.02,4.31-5.35,2.59-15.35-5.25-15.78-7.82-.3-14.1,4.86-19.64,9.55-1.3.32-2.82-.5-3.09-1.86-.37-3.5,5.56-6.47,7.98-8.44,23.15-14.44,38.35,10.47,17.61,26.41-2.79,1.6-6.64,7.97-9.92,4.72Z"/><path d="M298.62,439.01c-7.4-12-15.02-23.86-22.45-35.84-1.22-3.06-8.14-9.07-2.39-10.84-.28.04-.55.11-.8.24,3.89-1.34,4.77,4.68,6.87,6.88,4.08,6.61,8.24,13.16,12.39,19.73,3.64,5.75,7.23,11.52,10.8,17.31,1.64,2.82-2.78,5.41-4.43,2.52Z"/><path d="M288.19,413.14c-2.98-2.92,5.06-7.58,5.64-11.74,2.98-7.37-3.6-15.38-10.69-9.28-1.16.8-2.33,1.64-3.17,2.79-.24,1.23-1.33,2.07-2.53,2.06-6.7-1.89,1.43-8.75,4.67-10.19,17.4-8.68,22.67,14.79,11.09,24.93-1.18,1.53-3.28,3.16-5.01,1.42Z"/><path d="M318.23,425.89c-8.66-3.05-17.05-6.51-25.8-9.16-3.26-.52-8.34-3.18-3.73-6.14.93-.37,1.96-.14,2.67.49,3.71,1.19,7.45,2.27,11.1,3.61,5.93,2.1,11.8,4.39,17.73,6.5,3.05,1.22,1.02,6.03-2.01,4.68,0,0,.04.01.04.01Z"/><path d="M332.44,415.2c-9.97-12.55-20.93-24.55-29.81-37.85-.74-3.08,3.71-4.37,4.94-1.53,9.1,12.52,19.16,24.31,28.93,36.3,2.01,2.58-2.05,5.73-4.06,3.08Z"/><path d="M350.41,400.44c-19.1-1.57-31.19-32.35-18.46-46.34,3.36-2.58,11.88-3.63,13.18,1.45,0,1.57-1.58,2.79-3.09,2.43-10.09-4.64-10.79,9.37-9.72,16.02,1.41,7.24,5.03,14.4,11.19,18.69,9.57,6.66,20.03.79,20.1-10.73.43-3.27,5.54-2.5,5.04.75-.29,9.81-7.72,19.24-18.24,17.72Z"/><path d="M377.81,374.5c-7.59-10.35-15.89-20.19-24.37-29.82-3.94-3.07,1.22-8.1,3.58-3.63,8.67,9.84,17.1,19.79,24.85,30.37,2,2.61-2.08,5.74-4.05,3.08Z"/><path d="M388.37,361.76c-5.78-7.64-11.39-15.42-17.06-23.15-1.55-2.67-4.61-5.04-4.76-8.25.35-2.84,4.75-2.97,5.13-.08,6.67,9.63,13.77,18.99,20.74,28.4,2.01,2.59-2.07,5.74-4.06,3.08Z"/><path d="M412.31,349.17c-14.44-4.6-28.21-11.67-42.26-16.96-4.16-.44-2.45-6.43,1.4-4.9,14.21,5.26,27.84,12.37,42.31,16.98-5.18-10.8-13.5-19.56-20.88-28.86-.88-1.07-.59-2.75.49-3.57,3.27-3.01,9.87,9.2,12.48,11.39,3.75,5.07,23.74,28.63,6.46,25.93Z"/><path d="M433.83,326.52c-22.42-.84-36.71-46.96-6.91-43.3,2.24.67,5.71.65,6.65,3.19.33,1.32-.5,2.79-1.85,3.09-24.95-8.68-17.98,21.83-4.17,29.75,13.87,8.73,27.39-12.15,18.92-23.66-4.4,1.86-6.66,7.58-11.34,8.29-3.38-.68-2.17-4.63.12-5.87,6.18-5.09,11.8-10.87,16.79-16.97,2.01-2.6,6.08.55,4.02,3.13-2.19,2.59-4.24,4.96-6.48,7.38,11.06,11.95.78,35.32-15.74,34.98Z"/><path d="M449.62,268c-3.31-6.23.89-14.97,7.45-17.09,5.05-1.66,10.39.38,15.52-.66,6.69-.62,11.79-9.91,5.9-14.65-2.09-1.65-7.06-1.31-6.5,2.2.49,1.82,2.81,3.53.9,5.39-4.19,3.05-6.97-4.74-5.79-7.97,1.58-5.49,8.59-7.05,13.21-4.44,8.3,4.32,7.14,17.02-.19,21.75-7.03,5.71-15.94.76-23.06,4.02-2.63,1.9-4.3,5.78-3.06,8.91,1.16,2.66-2.59,4.86-4.38,2.54Z"/><path d="M467.22,301c-2.54-.78-2.46-3.98-2.71-6.16-.97-6.1,2.93-11.99,8.26-14.69,4.39-2.9,10.5,1.34,14.23-2.67,3.64-4.57,1.48-11.09,4.14-16.07,3.42-8.06,15.29-6.54,19.22.27,3.42,5.76-.11,15.55-7.22,16.13-4.11.1-7.12-4.67-5.57-8.4.47-1.31,2.1-1.89,3.33-1.37,2.47.98.82,3.03,1.75,4.46,1.33.78,2.55-1.38,3.12-2.37,1.93-3.34.38-7.6-3.41-8.64-10.89-3.2-5.95,12.54-10.39,17.8-3.16,5.84-9.79,5.1-15.36,4.9-5.62,1.33-8.28,7.51-6.71,12.8,1.53,1.83-.43,4.69-2.68,4.01Z"/><path d="M200.32,464.56c-6.98-.5-13.52-8.88-10.4-15.63,1.77-5.06,14.66-4.47,11.9,1.76-2.04,2.79-4.69-1.49-7,.27-1.88,2.22.75,5.54,2.52,7.09,6.44,4.91,13.72-4.08,12.15-10.6-.28-6.91,1.6-15.58,9.4-17.28,4.93-1.44,12.42-.25,14.75,4.85.89,3.02-3.79,4.52-4.83,1.56,0,.02.01.04.02.06.02.04.04.07.05.11-6.38-4.95-14.66-.8-14.21,7.49,1.07,9.8-3.06,20.34-14.33,20.32Z"/><path d="M215.76,484.83c-5.01-4.43-4.66-13.15.59-17.25,6.07-4.97,14.16-1.87,20.55.74,6.66,3.07,12.41-2.46,8.83-9.08-1.15-2.54-6.24-6.16-1.82-8.23-.07.02-.13.05-.2.07,2.15-1.02,3.43,1.38,4.56,2.78,6.36,6.85,3.98,20.25-6.67,20.35-4.17.21-7.9-1.76-11.73-3.11-14.21-6.2-17.35,13.38-4.71,11.11,0-.02,0-.04,0-.06,0,.02,0,.04.01.05,0,0,0,0,0,0,0,0,0,0,0,0,0,0,0,0,0,0-.67-3.1,4.23-4.2,4.95-1.12,1.15,7.93-10.23,8.14-14.36,3.76Z"/><path d="M499.8,241.13c-3.47-4.58,6.93-9.8,8.45-14.17,1.33-3.04-.93-6.2-.71-9.36-.35-5.27,2.33-12.2,8.41-12.37,5.13-.2,7.08,5.69,11.53,6.71.6-1.56,1.12-3.67,3.31-3.33,1.32.18,2.44,1.51,2.17,2.87-.38,4.01-4.38,6.82-8.18,5.05-3.9-.67-8.02-10.06-11.25-4.12-3.18,15.48,6.77,11.01-9.31,27.07-.06,2.19-2.93,3.23-4.41,1.64Z"/><path d="M192.69,481.49c-7.78.39-14.38-17.11-18.2-2.89-.09,1.38-1.12,2.53-2.56,2.52-7.39-1.49,2.8-17.36,10.28-12.56,4.33,2.1,7,8.64,12.48,7.76,2.21-1.24,3.99-3.23,6.26-4.35,2.29-1.07,4.63,1.88,3.03,3.88-3.44,2.33-6.72,6.32-11.28,5.65Z"/><path d="M521.9,310.66c-.5-3.11,3.55-4.43,4.99-6.76,2.84-2.1,7.52-12.71,11.04-9.87,1.12.85,1.3,2.45.48,3.57-2.59,2.57-13.46,20.55-16.51,13.07Z"/><path d="M540.08,307.95c.2-2.83,2.98-4.8,4.22-7.26,1.38-1.81,2.67-5.64,5.57-4.1,3.45,2.52-1.3,6.12-2.52,8.67-1.4,1.54-2.07,4.02-4.06,4.84-1.45.37-3.01-.59-3.21-2.15Z"/><path d="M65.59,394.48c-.39-3.53,1.6-6.95,2.65-10.24,1.87-3.05,4.11-15.66,8.56-13.95,1.24.52,1.96,2.08,1.37,3.33-2.47,5.34-4.63,10.82-6.62,16.36-.35,1.3-1.02,2.61-.88,3.97.02,2.97-4.44,3.41-5.08.54Z"/><path d="M81.82,386.35c-3.99-3.89,8.55-22.3,10.92-27.06,1.45-3.14,6.3-.72,4.56,2.3-4.31,7.14-8.5,14.45-11.31,22.33.11,2.14-2.32,3.87-4.16,2.43Z"/><path d="M507.07,124.02c.05,1.16.02,2.3-.05,3.46-.14,1.31-.35,2.59-.61,3.87-.53,2.25-1.19,4.43-1.96,6.6-1.34,3.54-2.91,6.96-4.63,10.32-3.5,6.64-7.53,12.99-11.8,19.18l-.02.03c-.05.07-.1.15-.15.22l-.1.14h0c-.06.09-.12.18-.18.27-.13.17-.15.21-.18.25-.03.05-.07.1-.1.15-9.76,13.82-20.73,26.92-32.17,39.55-.15.17-.32.35-.48.53-.03.04-.14.16-.25.28-.96,1.05-1.97,2.15-3,3.27-43.05,21.94-82.09,51.43-121.84,78.78-43.68,32.31-88.23,64.71-124.45,105.53-.03.04-.07.08-.1.12-2.23,2.51-9.77,10.86-18.76,21.31-5.42,2.86-10.89,5.64-16.39,8.35-.17.08-.33.16-.49.24-.24.12-.77.37-1.3.63-.05.02-.1.05-.15.07l-.15.07c-5.53,2.63-11.25,5.2-17.03,7.66-5.7,2.42-11.5,4.56-17.35,6.57-3.08.99-6.17,1.95-9.3,2.81-2.94.8-5.92,1.44-8.91,2.02-1.39.24-2.79.49-4.2.64-1.28.13-2.55.25-3.83.35-.94.04-1.88.07-2.82.06-.95,0-1.89-.05-2.85-.1-.51-.05-1.02-.09-1.52-.17-.58-.1-1.16-.2-1.74-.3-.81-.19-1.61-.42-2.4-.68-.61-.23-1.21-.48-1.8-.76-.58-.31-1.13-.64-1.68-1-.3-.22-.59-.45-.87-.7-.21-.2-.42-.41-.62-.63-.33-.4-.64-.81-.93-1.25-.21-.33-.4-.68-.58-1.03-.24-.52-.46-1.04-.65-1.58-.06-.21-.12-.43-.17-.64.31-3.02.78-6.03,1.44-9,.05-2.57,3.33-7.29,1.68-9.28.46-1.14.93-2.28,1.46-3.39.85-1.79,1.72-3.57,2.62-5.33,3.44-6.37,7.24-12.53,11.38-18.46l.23-.32.32-.46s.01-.02.02-.04c.05-.07.1-.14.15-.21.05-.07.14-.21.24-.35l.03-.04c.04-.06.08-.11.12-.17l.02-.03c4.92-6.92,10.11-13.63,15.5-20.2,5.41-6.59,11.03-12.99,16.73-19.32,1.51-1.66,3.03-3.31,4.55-4.96,12.12-13.1,24.77-25.72,37.74-37.96,13.22-12.48,26.73-24.62,40.54-36.44.23-.19.46-.39.69-.58.29-.25.62-.49.9-.77l.13-.11c.07-.06.14-.11.2-.17.23-.19.45-.38.67-.58.14-.12.28-.23.42-.35,5.2-4.38,10.4-8.77,15.66-13.09,5.75-4.72,11.54-9.4,17.38-14.03,14.02-11.14,28.29-21.99,42.8-32.48,14.72-10.65,29.66-20.99,44.85-30.96,1.03-.67,2.06-1.33,3.09-2.01,6.39-4.15,13.12-8.4,19.9-12.55,4.59-2.82,9.2-5.58,13.84-8.3.14-.08.28-.16.42-.24,3.34-1.95,6.7-3.89,10.07-5.8,7.73-4.38,15.57-8.58,23.49-12.6.07-.03.14-.07.21-.1.06-.03.18-.09.3-.15.06-.02.21-.1.38-.18.1-.05.2-.1.3-.14.34-.16.77-.37,1.21-.58.33-.16.95-.46,1.58-.76.79-.38,1.63-.79,2.47-1.19.25-.12.65-.31,1.04-.5.21-.1.47-.23.73-.35l.09-.05c.06-.03.11-.06.17-.08.03-.02.1-.05.17-.08.12-.06.13-.06.13-.06,0,0,.03-.02.06-.03,3.35-1.61,6.75-3.24,10.15-4.88,8.45-3.79,17.04-7.25,25.83-10.19l.05-.02c.06-.02.12-.04.19-.06,5.44-1.76,11.05-3.32,16.76-4.43,1.99,3.57,7.53-.44,10.79.31,3.37-.04,6.8-.02,10.25.1.34.15.68.31,1.01.48.36.21.71.42,1.06.64.45.33.88.67,1.3,1.04.26.26.51.53.75.8.23.3.46.6.67.91.19.32.38.65.55.99.16.36.3.73.44,1.1.2.65.36,1.31.5,1.97.07.53.13,1.06.19,1.59Z" fill="#d09630"/><path d="M203.97,475.83c1.6-1.99-.74-4.95-3.03-3.88-2.27,1.11-4.05,3.11-6.26,4.35-5.47.88-8.15-5.65-12.48-7.76-7.47-4.79-17.67,11.07-10.28,12.56,1.44,0,2.47-1.14,2.56-2.52,3.83-14.22,10.42,3.28,18.2,2.89,4.56.66,7.84-3.32,11.28-5.65ZM228.86,436.74c1.15,2.75,5.65,1.24,4.77-1.72-2.33-5.1-9.81-6.29-14.75-4.85-7.81,1.7-9.68,10.36-9.4,17.28,1.57,6.53-5.71,15.51-12.15,10.6-1.77-1.56-4.4-4.87-2.52-7.1,2.31-1.75,4.96,2.53,7-.27,2.76-6.23-10.13-6.82-11.9-1.76-3.12,6.75,3.43,15.13,10.4,15.63,11.27.02,15.4-10.53,14.33-20.32-.45-8.28,7.82-12.44,14.2-7.5ZM241.6,474.21c10.65-.11,13.03-13.5,6.67-20.35-1.13-1.4-2.41-3.8-4.56-2.78.06-.02.13-.04.2-.07-4.42,2.07.67,5.69,1.82,8.23,3.58,6.62-2.16,12.15-8.83,9.08-6.38-2.61-14.48-5.71-20.55-.74-5.25,4.1-5.61,12.82-.59,17.25,4.13,4.38,15.5,4.18,14.36-3.76-.68-2.89-5.02-2.1-5.02.55,0,.18.02.37.06.57h0s0,0,0,0c0-.02,0-.04-.01-.06,0,.02,0,.04,0,.06-12.63,2.27-9.5-17.3,4.71-11.11,3.83,1.36,7.56,3.32,11.73,3.11ZM265.25,461.5c1.66,2.89,6.08.3,4.43-2.52-3.92-6.27-8.01-12.44-11.89-18.73,2.24-1.14,4.48-4.15,6.27-5.18,20.74-15.94,5.54-40.84-17.61-26.4-1.45,1.18-4.18,2.73-6.04,4.53-1.7-.22-3.6,1.13-2.8,3.38,8.64,15.28,18.27,30.06,27.63,44.92ZM318.19,425.88c3.02,1.35,5.05-3.46,2.01-4.68-5.92-2.11-11.79-4.4-17.73-6.5-3.03-1.12-6.13-2.05-9.21-3.02,11.51-10.16,6.24-33.55-11.14-24.89-1.89.84-5.42,3.5-6.74,5.97-.54-.33-1.17-.47-1.92-.32.1-.04.21-.07.32-.11-.28.04-.55.11-.8.24.17-.06.32-.1.48-.13-5.17,1.89,1.51,7.73,2.71,10.73,7.43,11.98,15.05,23.84,22.45,35.84,1.65,2.9,6.08.3,4.43-2.52-3.57-5.79-7.16-11.57-10.8-17.31-.63-1-1.26-2-1.9-3,.71.26,1.44.45,2.09.56,8.74,2.65,17.11,6.1,25.76,9.15ZM332.44,415.2c2,2.65,6.06-.5,4.06-3.09-9.77-11.99-19.83-23.78-28.93-36.3-1.24-2.84-5.68-1.55-4.94,1.53,8.88,13.3,19.85,25.3,29.81,37.85ZM368.65,382.71c.51-3.25-4.61-4.02-5.04-.75-.07,11.52-10.53,17.39-20.1,10.73-6.15-4.3-9.78-11.46-11.19-18.69-1.07-6.65-.38-20.66,9.71-16.02,1.52.36,3.09-.87,3.09-2.43-1.3-5.08-9.82-4.03-13.18-1.45-12.73,13.99-.64,44.77,18.46,46.34,10.53,1.52,17.95-7.91,18.24-17.73ZM377.81,374.5c1.97,2.66,6.05-.47,4.06-3.08-7.74-10.57-16.18-20.53-24.85-30.36-2.37-4.47-7.53.56-3.58,3.63,8.49,9.63,16.78,19.47,24.38,29.82ZM412.31,349.17c17.29,2.7-2.7-20.86-6.46-25.93-2.62-2.19-9.22-14.4-12.48-11.39-1.08.82-1.36,2.5-.49,3.57,7.38,9.3,15.7,18.06,20.88,28.86-14.46-4.61-28.1-11.72-42.31-16.98-1.63-.64-2.87.05-3.45,1.1-.74.32-1.33.98-1.45,1.95.15,3.21,3.21,5.58,4.76,8.25,5.67,7.73,11.28,15.51,17.06,23.15,1.99,2.66,6.06-.49,4.06-3.08-6.12-8.26-12.34-16.48-18.28-24.88,12.65,5.05,25.13,11.22,38.17,15.37ZM456.05,284.16c2.06-2.58-2.01-5.73-4.02-3.13-4.99,6.11-10.61,11.88-16.79,16.97-2.29,1.24-3.5,5.18-.12,5.87,4.68-.7,6.94-6.43,11.34-8.29,8.46,11.51-5.05,32.39-18.93,23.66-13.81-7.92-20.78-38.43,4.17-29.75,1.35-.31,2.19-1.77,1.85-3.09-.94-2.53-4.4-2.52-6.65-3.19-29.79-3.66-15.51,42.46,6.91,43.3,16.53.34,26.81-23.03,15.74-34.98,2.25-2.42,4.29-4.8,6.48-7.39ZM480.11,252.53c7.33-4.73,8.49-17.43.19-21.76-4.62-2.6-11.63-1.04-13.21,4.44-1.17,3.23,1.6,11.02,5.8,7.97,1.9-1.85-.42-3.57-.91-5.39-.57-3.51,4.41-3.84,6.5-2.19,5.9,4.74.8,14.03-5.89,14.65-5.13,1.04-10.46-1-15.52.66-6.57,2.12-10.76,10.86-7.45,17.09,1.79,2.32,5.54.11,4.38-2.54-1.24-3.12.43-7.01,3.06-8.91,7.12-3.27,16.03,1.68,23.06-4.02ZM503.14,277.81c7.11-.58,10.65-10.37,7.22-16.13-3.93-6.81-15.8-8.33-19.22-.28-2.66,4.98-.5,11.5-4.13,16.07-3.73,4.01-9.85-.23-14.23,2.67-5.33,2.7-9.23,8.59-8.26,14.69.25,2.19.18,5.39,2.71,6.16,2.25.68,4.21-2.18,2.68-4.01-1.57-5.29,1.09-11.47,6.71-12.8,5.57.2,12.21.95,15.36-4.9,4.45-5.26-.49-21.01,10.39-17.8,3.78,1.04,5.34,5.3,3.41,8.63-.57.99-1.79,3.15-3.12,2.38-.93-1.43.72-3.48-1.75-4.46-1.23-.51-2.86.06-3.33,1.37-1.55,3.73,1.45,8.5,5.57,8.4ZM532.95,211.49c.27-1.36-.85-2.69-2.17-2.87-2.19-.34-2.71,1.77-3.31,3.33-4.44-1.02-6.4-6.9-11.53-6.71-6.08.17-8.75,7.1-8.4,12.37-.22,3.16,2.04,6.31.71,9.36-1.52,4.37-11.92,9.58-8.45,14.16,1.48,1.59,4.35.55,4.41-1.64,16.08-16.05,6.13-11.59,9.31-27.07,3.24-5.94,7.35,3.44,11.25,4.11,3.8,1.77,7.8-1.04,8.18-5.05ZM538.48,123.94c35.64,26.84,38.58,82.94,14.49,118.45-28.15,36.53-66.2,63.88-99.74,95.17-66.59,57.36-133.98,114.95-208.88,161.38-28.61,17.38-61.79,35.71-96.4,29.31-36.38-8.28-59.67-44.65-59.89-80.8.85.79,1.79,1.47,2.82,2.01,2.04,1.07,4.2,1.96,6.49,2.35,1.06.18,2.1.35,3.16.47,1.2.13,2.41.18,3.62.18.92,0,1.85-.03,2.76-.06,4.47-.17,8.89-.98,13.25-1.91,4.19-.89,8.34-2.08,12.41-3.41,4.46-1.45,8.88-3.02,13.25-4.72,8.3-3.22,16.46-6.83,24.47-10.71.33-.16.77-.37,1.21-.58.09-.04.21-.1.33-.16,1.9-.91,3.8-1.84,5.69-2.79.04-.02.07-.03.11-.06.92-.46,1.84-.92,2.75-1.39.01,0,.03-.01.04-.02.94-.48,1.88-.96,2.82-1.45.8-.41,1.59-.83,2.38-1.24.25-.13.5-.26.75-.39.85-.45,1.7-.9,2.55-1.35.08-.04.16-.08.24-.13,5.78-3.09,11.54-6.24,17.23-9.51,14.85-8.53,29.45-17.49,43.79-26.87.04-.02.35-.23.66-.43h0c.08-.06.16-.11.24-.16.4-.26.87-.57,1.34-.88,12.85-8.37,25.47-17.1,37.93-26.04,7.05-5.06,14.06-10.2,21.02-15.4,6.88-5.14,13.67-10.41,20.47-15.66,6.88-5.33,13.67-10.79,20.42-16.29,6.78-5.53,13.52-11.11,20.16-16.8.15-.12.29-.25.44-.37.58-.49,1.15-.98,1.73-1.48,2.54-2.16,5.31-4.56,8.07-6.96,13.23-11.49,26.17-23.3,38.81-35.44,11.31-10.86,22.36-22,32.99-33.52.65-.7,1.3-1.41,1.95-2.12s1.3-1.42,1.94-2.13c.13-.14.31-.34.48-.54l.32-.34c.72-.8,1.44-1.6,2.16-2.4.02-.02.05-.05.07-.08.74-.83,1.48-1.66,2.22-2.49,9.94-11.23,19.51-22.83,28.09-35.13,0,0,.2-.28.39-.56,3.74-5.35,7.5-11.12,10.78-17.14,2.08-3.83,4.04-7.74,5.65-11.8,1.55-3.92,2.81-7.98,3.41-12.16.3-2.09.36-4.24.16-6.35-.19-2.03-.67-4.15-1.61-5.98-.35-.68-.75-1.34-1.19-1.97,10.29,1.03,20.42,3.47,29.19,8.86Z" fill="#f6b139"/><path d="M261.21,409.42c7.84.43,9.56,10.43,5.25,15.78-3.06,4.24-7.27,7.35-11.34,10.62-3.79-6.23-7.7-12.39-11.4-18.66,5.01-4.1,10.66-8,17.48-7.74Z" fill="#f6b139"/><path d="M283.14,392.13c7.09-6.11,13.67,1.9,10.69,9.27-.48,3.46-6.12,7.27-6.3,10.13-.02.02-.05.05-.07.08-2.56-4.04-5.1-8.1-7.61-12.17-.61-.63-1.11-1.59-1.61-2.59.86-.27,1.55-.99,1.74-1.94.84-1.14,2.01-1.99,3.16-2.79Z" fill="#f6b139"/></svg>